<?xml version="1.0" encoding="UTF-8" standalone="no"?>
<!DOCTYPE svg PUBLIC "-//W3C//DTD SVG 1.1//EN"
 "http://www.w3.org/Graphics/SVG/1.1/DTD/svg11.dtd">
<!-- Generated by graphviz version 2.40.1 (0)
 -->
<!-- Title: snakemake_dag Pages: 1 -->
<svg width="1702pt" height="836pt"
 viewBox="0.00 0.00 1702.00 836.00" xmlns="http://www.w3.org/2000/svg" xmlns:xlink="http://www.w3.org/1999/xlink">
<g id="graph0" class="graph" transform="scale(1 1) rotate(0) translate(4 832)">
<title>snakemake_dag</title>
<polygon fill="#ffffff" stroke="transparent" points="-4,4 -4,-832 1698,-832 1698,4 -4,4"/>
<!-- 0 -->
<g id="node1" class="node">
<title>0</title>
<path fill="none" stroke="#d89556" stroke-width="2" d="M666,-36C666,-36 636,-36 636,-36 630,-36 624,-30 624,-24 624,-24 624,-12 624,-12 624,-6 630,0 636,0 636,0 666,0 666,0 672,0 678,-6 678,-12 678,-12 678,-24 678,-24 678,-30 672,-36 666,-36"/>
<text text-anchor="middle" x="651" y="-15.5" font-family="sans" font-size="10.00" fill="#000000">all</text>
</g>
<!-- 1 -->
<g id="node2" class="node">
<title>1</title>
<path fill="none" stroke="#56d8d8" stroke-width="2" d="M85,-108C85,-108 29,-108 29,-108 23,-108 17,-102 17,-96 17,-96 17,-84 17,-84 17,-78 23,-72 29,-72 29,-72 85,-72 85,-72 91,-72 97,-78 97,-84 97,-84 97,-96 97,-96 97,-102 91,-108 85,-108"/>
<text text-anchor="middle" x="57" y="-87.5" font-family="sans" font-size="10.00" fill="#000000">_copy_spring</text>
</g>
<!-- 1&#45;&gt;0 -->
<g id="edge8" class="edge">
<title>1&#45;&gt;0</title>
<path fill="none" stroke="#c0c0c0" stroke-width="2" d="M97.1314,-74.3418C100.1072,-73.4636 103.0849,-72.6684 106,-72 203.215,-49.7087 507.1138,-27.687 613.6475,-20.4638"/>
<polygon fill="#c0c0c0" stroke="#c0c0c0" stroke-width="2" points="614.1668,-23.9369 623.9089,-19.7726 613.6963,-16.9527 614.1668,-23.9369"/>
</g>
<!-- 2 -->
<g id="node3" class="node">
<title>2</title>
<path fill="none" stroke="#56d8a2" stroke-width="2" d="M102,-180C102,-180 12,-180 12,-180 6,-180 0,-174 0,-168 0,-168 0,-156 0,-156 0,-150 6,-144 12,-144 12,-144 102,-144 102,-144 108,-144 114,-150 114,-156 114,-156 114,-168 114,-168 114,-174 108,-180 102,-180"/>
<text text-anchor="middle" x="57" y="-159.5" font-family="sans" font-size="10.00" fill="#000000">compression_spring</text>
</g>
<!-- 2&#45;&gt;1 -->
<g id="edge12" class="edge">
<title>2&#45;&gt;1</title>
<path fill="none" stroke="#c0c0c0" stroke-width="2" d="M57,-143.8314C57,-136.131 57,-126.9743 57,-118.4166"/>
<polygon fill="#c0c0c0" stroke="#c0c0c0" stroke-width="2" points="60.5001,-118.4132 57,-108.4133 53.5001,-118.4133 60.5001,-118.4132"/>
</g>
<!-- 3 -->
<g id="node4" class="node">
<title>3</title>
<path fill="none" stroke="#c6d856" stroke-width="2" d="M553,-108C553,-108 431,-108 431,-108 425,-108 419,-102 419,-96 419,-96 419,-84 419,-84 419,-78 425,-72 431,-72 431,-72 553,-72 553,-72 559,-72 565,-78 565,-84 565,-84 565,-96 565,-96 565,-102 559,-108 553,-108"/>
<text text-anchor="middle" x="492" y="-87.5" font-family="sans" font-size="10.00" fill="#000000">_copy_exomedepth_nexus</text>
</g>
<!-- 3&#45;&gt;0 -->
<g id="edge7" class="edge">
<title>3&#45;&gt;0</title>
<path fill="none" stroke="#c0c0c0" stroke-width="2" d="M532.1224,-71.8314C557.4618,-60.3569 589.9416,-45.6491 614.546,-34.5075"/>
<polygon fill="#c0c0c0" stroke="#c0c0c0" stroke-width="2" points="616.2269,-37.5885 623.8927,-30.275 613.3393,-31.2118 616.2269,-37.5885"/>
</g>
<!-- 4 -->
<g id="node5" class="node">
<title>4</title>
<path fill="none" stroke="#afd856" stroke-width="2" d="M607.5,-180C607.5,-180 516.5,-180 516.5,-180 510.5,-180 504.5,-174 504.5,-168 504.5,-168 504.5,-156 504.5,-156 504.5,-150 510.5,-144 516.5,-144 516.5,-144 607.5,-144 607.5,-144 613.5,-144 619.5,-150 619.5,-156 619.5,-156 619.5,-168 619.5,-168 619.5,-174 613.5,-180 607.5,-180"/>
<text text-anchor="middle" x="562" y="-159.5" font-family="sans" font-size="10.00" fill="#000000">exomedepth_export</text>
</g>
<!-- 4&#45;&gt;3 -->
<g id="edge13" class="edge">
<title>4&#45;&gt;3</title>
<path fill="none" stroke="#c0c0c0" stroke-width="2" d="M544.336,-143.8314C536.0268,-135.2848 525.9736,-124.9443 516.9082,-115.6198"/>
<polygon fill="#c0c0c0" stroke="#c0c0c0" stroke-width="2" points="519.3821,-113.1435 509.9018,-108.4133 514.3631,-118.023 519.3821,-113.1435"/>
</g>
<!-- 14 -->
<g id="node15" class="node">
<title>14</title>
<path fill="none" stroke="#d85656" stroke-width="2" d="M706.5,-108C706.5,-108 595.5,-108 595.5,-108 589.5,-108 583.5,-102 583.5,-96 583.5,-96 583.5,-84 583.5,-84 583.5,-78 589.5,-72 595.5,-72 595.5,-72 706.5,-72 706.5,-72 712.5,-72 718.5,-78 718.5,-84 718.5,-84 718.5,-96 718.5,-96 718.5,-102 712.5,-108 706.5,-108"/>
<text text-anchor="middle" x="651" y="-87.5" font-family="sans" font-size="10.00" fill="#000000">_copy_exomedepth_aed</text>
</g>
<!-- 4&#45;&gt;14 -->
<g id="edge25" class="edge">
<title>4&#45;&gt;14</title>
<path fill="none" stroke="#c0c0c0" stroke-width="2" d="M584.4585,-143.8314C595.4205,-134.9632 608.7699,-124.1637 620.6265,-114.5718"/>
<polygon fill="#c0c0c0" stroke="#c0c0c0" stroke-width="2" points="622.9755,-117.1734 628.5487,-108.1628 618.5729,-111.7313 622.9755,-117.1734"/>
</g>
<!-- 5 -->
<g id="node6" class="node">
<title>5</title>
<path fill="none" stroke="#d8b456" stroke-width="2" d="M1227,-756C1227,-756 1141,-756 1141,-756 1135,-756 1129,-750 1129,-744 1129,-744 1129,-732 1129,-732 1129,-726 1135,-720 1141,-720 1141,-720 1227,-720 1227,-720 1233,-720 1239,-726 1239,-732 1239,-732 1239,-744 1239,-744 1239,-750 1233,-756 1227,-756"/>
<text text-anchor="middle" x="1184" y="-735.5" font-family="sans" font-size="10.00" fill="#000000">parabricks_fq2bam</text>
</g>
<!-- 11 -->
<g id="node12" class="node">
<title>11</title>
<path fill="none" stroke="#bed856" stroke-width="2" d="M465.5,-684C465.5,-684 358.5,-684 358.5,-684 352.5,-684 346.5,-678 346.5,-672 346.5,-672 346.5,-660 346.5,-660 346.5,-654 352.5,-648 358.5,-648 358.5,-648 465.5,-648 465.5,-648 471.5,-648 477.5,-654 477.5,-660 477.5,-660 477.5,-672 477.5,-672 477.5,-678 471.5,-684 465.5,-684"/>
<text text-anchor="middle" x="412" y="-663.5" font-family="sans" font-size="10.00" fill="#000000">parabricks_deepvariant</text>
</g>
<!-- 5&#45;&gt;11 -->
<g id="edge22" class="edge">
<title>5&#45;&gt;11</title>
<path fill="none" stroke="#c0c0c0" stroke-width="2" d="M1128.9753,-736.386C1011.4268,-732.3513 727.3376,-719.4705 492,-684 490.6935,-683.8031 489.3765,-683.5968 488.0516,-683.382"/>
<polygon fill="#c0c0c0" stroke="#c0c0c0" stroke-width="2" points="488.2332,-679.8607 477.7797,-681.5859 487.0274,-686.7561 488.2332,-679.8607"/>
</g>
<!-- 17 -->
<g id="node18" class="node">
<title>17</title>
<path fill="none" stroke="#d87556" stroke-width="2" d="M884.5,-396C884.5,-396 803.5,-396 803.5,-396 797.5,-396 791.5,-390 791.5,-384 791.5,-384 791.5,-372 791.5,-372 791.5,-366 797.5,-360 803.5,-360 803.5,-360 884.5,-360 884.5,-360 890.5,-360 896.5,-366 896.5,-372 896.5,-372 896.5,-384 896.5,-384 896.5,-390 890.5,-396 884.5,-396"/>
<text text-anchor="middle" x="844" y="-375.5" font-family="sans" font-size="10.00" fill="#000000">qc_mosdepth_bed</text>
</g>
<!-- 5&#45;&gt;17 -->
<g id="edge30" class="edge">
<title>5&#45;&gt;17</title>
<path fill="none" stroke="#c0c0c0" stroke-width="2" d="M1128.8382,-732.7897C1059.2642,-725.265 944.6399,-709.4032 911,-684 875.1513,-656.9288 865,-638.9219 865,-594 865,-594 865,-594 865,-522 865,-481.2729 856.673,-434.7384 850.5061,-405.8595"/>
<polygon fill="#c0c0c0" stroke="#c0c0c0" stroke-width="2" points="853.9177,-405.0768 848.3512,-396.0621 847.0811,-406.5806 853.9177,-405.0768"/>
</g>
<!-- 18 -->
<g id="node19" class="node">
<title>18</title>
<path fill="none" stroke="#80d856" stroke-width="2" d="M1206.5,-324C1206.5,-324 1135.5,-324 1135.5,-324 1129.5,-324 1123.5,-318 1123.5,-312 1123.5,-312 1123.5,-300 1123.5,-300 1123.5,-294 1129.5,-288 1135.5,-288 1135.5,-288 1206.5,-288 1206.5,-288 1212.5,-288 1218.5,-294 1218.5,-300 1218.5,-300 1218.5,-312 1218.5,-312 1218.5,-318 1212.5,-324 1206.5,-324"/>
<text text-anchor="middle" x="1171" y="-303.5" font-family="sans" font-size="10.00" fill="#000000">qc_pic_dup_met</text>
</g>
<!-- 5&#45;&gt;18 -->
<g id="edge31" class="edge">
<title>5&#45;&gt;18</title>
<path fill="none" stroke="#c0c0c0" stroke-width="2" d="M1168.2428,-719.8597C1147.3256,-693.8524 1113,-643.6151 1113,-594 1113,-594 1113,-594 1113,-450 1113,-406.6562 1135.8892,-360.9417 1152.9093,-332.9402"/>
<polygon fill="#c0c0c0" stroke="#c0c0c0" stroke-width="2" points="1156.0719,-334.4847 1158.4149,-324.1522 1150.1398,-330.7684 1156.0719,-334.4847"/>
</g>
<!-- 21 -->
<g id="node22" class="node">
<title>21</title>
<path fill="none" stroke="#56c1d8" stroke-width="2" d="M1009,-252C1009,-252 875,-252 875,-252 869,-252 863,-246 863,-240 863,-240 863,-228 863,-228 863,-222 869,-216 875,-216 875,-216 1009,-216 1009,-216 1015,-216 1021,-222 1021,-228 1021,-228 1021,-240 1021,-240 1021,-246 1015,-252 1009,-252"/>
<text text-anchor="middle" x="942" y="-231.5" font-family="sans" font-size="10.00" fill="#000000">compression_samtools_view</text>
</g>
<!-- 5&#45;&gt;21 -->
<g id="edge34" class="edge">
<title>5&#45;&gt;21</title>
<path fill="none" stroke="#c0c0c0" stroke-width="2" d="M1128.7557,-731.8976C1052.6902,-720.0829 925,-686.4774 925,-594 925,-594 925,-594 925,-450 925,-382.4933 933.3545,-303.4839 938.35,-262.2745"/>
<polygon fill="#c0c0c0" stroke="#c0c0c0" stroke-width="2" points="941.846,-262.5218 939.6004,-252.1677 934.899,-261.6623 941.846,-262.5218"/>
</g>
<!-- 34 -->
<g id="node35" class="node">
<title>34</title>
<path fill="none" stroke="#56d8a2" stroke-width="2" d="M1218.5,-540C1218.5,-540 1153.5,-540 1153.5,-540 1147.5,-540 1141.5,-534 1141.5,-528 1141.5,-528 1141.5,-516 1141.5,-516 1141.5,-510 1147.5,-504 1153.5,-504 1153.5,-504 1218.5,-504 1218.5,-504 1224.5,-504 1230.5,-510 1230.5,-516 1230.5,-516 1230.5,-528 1230.5,-528 1230.5,-534 1224.5,-540 1218.5,-540"/>
<text text-anchor="middle" x="1186" y="-519.5" font-family="sans" font-size="10.00" fill="#000000">qc_pic_hs_met</text>
</g>
<!-- 5&#45;&gt;34 -->
<g id="edge58" class="edge">
<title>5&#45;&gt;34</title>
<path fill="none" stroke="#c0c0c0" stroke-width="2" d="M1184.1671,-719.9555C1184.5149,-682.3938 1185.3189,-595.5541 1185.7369,-550.4103"/>
<polygon fill="#c0c0c0" stroke="#c0c0c0" stroke-width="2" points="1189.2392,-550.1771 1185.832,-540.1451 1182.2395,-550.1122 1189.2392,-550.1771"/>
</g>
<!-- 36 -->
<g id="node37" class="node">
<title>36</title>
<path fill="none" stroke="#d86656" stroke-width="2" d="M1292,-612C1292,-612 1224,-612 1224,-612 1218,-612 1212,-606 1212,-600 1212,-600 1212,-588 1212,-588 1212,-582 1218,-576 1224,-576 1224,-576 1292,-576 1292,-576 1298,-576 1304,-582 1304,-588 1304,-588 1304,-600 1304,-600 1304,-606 1298,-612 1292,-612"/>
<text text-anchor="middle" x="1258" y="-591.5" font-family="sans" font-size="10.00" fill="#000000">qc_pic_ins_size</text>
</g>
<!-- 5&#45;&gt;36 -->
<g id="edge59" class="edge">
<title>5&#45;&gt;36</title>
<path fill="none" stroke="#c0c0c0" stroke-width="2" d="M1193.3722,-719.7623C1206.1607,-694.8764 1229.18,-650.0822 1244.0138,-621.2165"/>
<polygon fill="#c0c0c0" stroke="#c0c0c0" stroke-width="2" points="1247.2462,-622.5837 1248.7039,-612.0896 1241.0202,-619.3842 1247.2462,-622.5837"/>
</g>
<!-- 37 -->
<g id="node38" class="node">
<title>37</title>
<path fill="none" stroke="#d6d856" stroke-width="2" d="M1364.5,-540C1364.5,-540 1299.5,-540 1299.5,-540 1293.5,-540 1287.5,-534 1287.5,-528 1287.5,-528 1287.5,-516 1287.5,-516 1287.5,-510 1293.5,-504 1299.5,-504 1299.5,-504 1364.5,-504 1364.5,-504 1370.5,-504 1376.5,-510 1376.5,-516 1376.5,-516 1376.5,-528 1376.5,-528 1376.5,-534 1370.5,-540 1364.5,-540"/>
<text text-anchor="middle" x="1332" y="-519.5" font-family="sans" font-size="10.00" fill="#000000">qc_pic_gc_met</text>
</g>
<!-- 5&#45;&gt;37 -->
<g id="edge60" class="edge">
<title>5&#45;&gt;37</title>
<path fill="none" stroke="#c0c0c0" stroke-width="2" d="M1210.2685,-719.9086C1240.0261,-697.9507 1287.6644,-658.0902 1313,-612 1323.4176,-593.0485 1328.1303,-568.9624 1330.2587,-550.4774"/>
<polygon fill="#c0c0c0" stroke="#c0c0c0" stroke-width="2" points="1333.7619,-550.6116 1331.2368,-540.322 1326.7941,-549.9404 1333.7619,-550.6116"/>
</g>
<!-- 38 -->
<g id="node39" class="node">
<title>38</title>
<path fill="none" stroke="#56d85b" stroke-width="2" d="M1446.5,-468C1446.5,-468 1363.5,-468 1363.5,-468 1357.5,-468 1351.5,-462 1351.5,-456 1351.5,-456 1351.5,-444 1351.5,-444 1351.5,-438 1357.5,-432 1363.5,-432 1363.5,-432 1446.5,-432 1446.5,-432 1452.5,-432 1458.5,-438 1458.5,-444 1458.5,-444 1458.5,-456 1458.5,-456 1458.5,-462 1452.5,-468 1446.5,-468"/>
<text text-anchor="middle" x="1405" y="-447.5" font-family="sans" font-size="10.00" fill="#000000">qc_samtools_stats</text>
</g>
<!-- 5&#45;&gt;38 -->
<g id="edge61" class="edge">
<title>5&#45;&gt;38</title>
<path fill="none" stroke="#c0c0c0" stroke-width="2" d="M1228.098,-719.9827C1246.9166,-710.9508 1268.3321,-698.7688 1285,-684 1343.5092,-632.1571 1354.8498,-611.6985 1386,-540 1394.5643,-520.2875 1399.375,-496.4268 1402.0118,-478.2279"/>
<polygon fill="#c0c0c0" stroke="#c0c0c0" stroke-width="2" points="1405.4913,-478.612 1403.325,-468.241 1398.5511,-477.6993 1405.4913,-478.612"/>
</g>
<!-- 39 -->
<g id="node40" class="node">
<title>39</title>
<path fill="none" stroke="#56d8c1" stroke-width="2" d="M1536,-684C1536,-684 1438,-684 1438,-684 1432,-684 1426,-678 1426,-672 1426,-672 1426,-660 1426,-660 1426,-654 1432,-648 1438,-648 1438,-648 1536,-648 1536,-648 1542,-648 1548,-654 1548,-660 1548,-660 1548,-672 1548,-672 1548,-678 1542,-684 1536,-684"/>
<text text-anchor="middle" x="1487" y="-663.5" font-family="sans" font-size="10.00" fill="#000000">qc_samtools_idxstats</text>
</g>
<!-- 5&#45;&gt;39 -->
<g id="edge62" class="edge">
<title>5&#45;&gt;39</title>
<path fill="none" stroke="#c0c0c0" stroke-width="2" d="M1239.2974,-724.952C1285.4772,-714.0437 1353.0418,-698.0569 1412,-684 1413.2456,-683.703 1414.5027,-683.4031 1415.7689,-683.1009"/>
<polygon fill="#c0c0c0" stroke="#c0c0c0" stroke-width="2" points="1416.6959,-686.478 1425.6087,-680.7497 1415.069,-679.6697 1416.6959,-686.478"/>
</g>
<!-- 40 -->
<g id="node41" class="node">
<title>40</title>
<path fill="none" stroke="#56d8a9" stroke-width="2" d="M1682,-684C1682,-684 1578,-684 1578,-684 1572,-684 1566,-678 1566,-672 1566,-672 1566,-660 1566,-660 1566,-654 1572,-648 1578,-648 1578,-648 1682,-648 1682,-648 1688,-648 1694,-654 1694,-660 1694,-660 1694,-672 1694,-672 1694,-678 1688,-684 1682,-684"/>
<text text-anchor="middle" x="1630" y="-663.5" font-family="sans" font-size="10.00" fill="#000000">qc_pic_align_sum_met</text>
</g>
<!-- 5&#45;&gt;40 -->
<g id="edge63" class="edge">
<title>5&#45;&gt;40</title>
<path fill="none" stroke="#c0c0c0" stroke-width="2" d="M1239.2688,-731.7164C1310.3402,-723.2553 1437.7289,-706.8047 1556.0305,-684.0913"/>
<polygon fill="#c0c0c0" stroke="#c0c0c0" stroke-width="2" points="1556.8339,-687.5008 1565.9847,-682.1609 1555.5012,-680.6288 1556.8339,-687.5008"/>
</g>
<!-- 43 -->
<g id="node44" class="node">
<title>43</title>
<path fill="none" stroke="#59d856" stroke-width="2" d="M620,-252C620,-252 504,-252 504,-252 498,-252 492,-246 492,-240 492,-240 492,-228 492,-228 492,-222 498,-216 504,-216 504,-216 620,-216 620,-216 626,-216 632,-222 632,-228 632,-228 632,-240 632,-240 632,-246 626,-252 620,-252"/>
<text text-anchor="middle" x="562" y="-231.5" font-family="sans" font-size="10.00" fill="#000000">cnv_sv_exomedepth_call</text>
</g>
<!-- 5&#45;&gt;43 -->
<g id="edge67" class="edge">
<title>5&#45;&gt;43</title>
<path fill="none" stroke="#c0c0c0" stroke-width="2" d="M1128.8039,-732.1318C967.1361,-714.2074 506,-657.5137 506,-594 506,-594 506,-594 506,-378 506,-337.1184 508.915,-325.5843 525,-288 529.0487,-278.5397 534.8622,-269.016 540.6855,-260.6574"/>
<polygon fill="#c0c0c0" stroke="#c0c0c0" stroke-width="2" points="543.6267,-262.5641 546.6841,-252.4199 537.9681,-258.4434 543.6267,-262.5641"/>
</g>
<!-- 6 -->
<g id="node7" class="node">
<title>6</title>
<path fill="none" stroke="#566bd8" stroke-width="2" d="M1236.5,-828C1236.5,-828 1131.5,-828 1131.5,-828 1125.5,-828 1119.5,-822 1119.5,-816 1119.5,-816 1119.5,-804 1119.5,-804 1119.5,-798 1125.5,-792 1131.5,-792 1131.5,-792 1236.5,-792 1236.5,-792 1242.5,-792 1248.5,-798 1248.5,-804 1248.5,-804 1248.5,-816 1248.5,-816 1248.5,-822 1242.5,-828 1236.5,-828"/>
<text text-anchor="middle" x="1184" y="-807.5" font-family="sans" font-size="10.00" fill="#000000">prealignment_fastp_pe</text>
</g>
<!-- 6&#45;&gt;5 -->
<g id="edge15" class="edge">
<title>6&#45;&gt;5</title>
<path fill="none" stroke="#c0c0c0" stroke-width="2" d="M1184,-791.8314C1184,-784.131 1184,-774.9743 1184,-766.4166"/>
<polygon fill="#c0c0c0" stroke="#c0c0c0" stroke-width="2" points="1187.5001,-766.4132 1184,-756.4133 1180.5001,-766.4133 1187.5001,-766.4132"/>
</g>
<!-- 7 -->
<g id="node8" class="node">
<title>7</title>
<path fill="none" stroke="#d85e56" stroke-width="2" d="M662,-324C662,-324 546,-324 546,-324 540,-324 534,-318 534,-312 534,-312 534,-300 534,-300 534,-294 540,-288 546,-288 546,-288 662,-288 662,-288 668,-288 674,-294 674,-300 674,-300 674,-312 674,-312 674,-318 668,-324 662,-324"/>
<text text-anchor="middle" x="604" y="-303.5" font-family="sans" font-size="10.00" fill="#000000">cnv_sv_exomedepth_sex</text>
</g>
<!-- 7&#45;&gt;43 -->
<g id="edge68" class="edge">
<title>7&#45;&gt;43</title>
<path fill="none" stroke="#c0c0c0" stroke-width="2" d="M593.4016,-287.8314C588.7123,-279.7925 583.0972,-270.1666 577.9202,-261.2918"/>
<polygon fill="#c0c0c0" stroke="#c0c0c0" stroke-width="2" points="580.8031,-259.2875 572.7411,-252.4133 574.7566,-262.8146 580.8031,-259.2875"/>
</g>
<!-- 8 -->
<g id="node9" class="node">
<title>8</title>
<path fill="none" stroke="#565bd8" stroke-width="2" d="M761.5,-396C761.5,-396 722.5,-396 722.5,-396 716.5,-396 710.5,-390 710.5,-384 710.5,-384 710.5,-372 710.5,-372 710.5,-366 716.5,-360 722.5,-360 722.5,-360 761.5,-360 761.5,-360 767.5,-360 773.5,-366 773.5,-372 773.5,-372 773.5,-384 773.5,-384 773.5,-390 767.5,-396 761.5,-396"/>
<text text-anchor="middle" x="742" y="-375.5" font-family="sans" font-size="10.00" fill="#000000">qc_peddy</text>
</g>
<!-- 8&#45;&gt;7 -->
<g id="edge16" class="edge">
<title>8&#45;&gt;7</title>
<path fill="none" stroke="#c0c0c0" stroke-width="2" d="M710.34,-361.4817C691.8463,-351.8329 668.2314,-339.512 647.9549,-328.933"/>
<polygon fill="#c0c0c0" stroke="#c0c0c0" stroke-width="2" points="649.3889,-325.7335 638.904,-324.2108 646.1509,-331.9396 649.3889,-325.7335"/>
</g>
<!-- 41 -->
<g id="node42" class="node">
<title>41</title>
<path fill="none" stroke="#d8ac56" stroke-width="2" d="M1093.5,-324C1093.5,-324 988.5,-324 988.5,-324 982.5,-324 976.5,-318 976.5,-312 976.5,-312 976.5,-300 976.5,-300 976.5,-294 982.5,-288 988.5,-288 988.5,-288 1093.5,-288 1093.5,-288 1099.5,-288 1105.5,-294 1105.5,-300 1105.5,-300 1105.5,-312 1105.5,-312 1105.5,-318 1099.5,-324 1093.5,-324"/>
<text text-anchor="middle" x="1041" y="-303.5" font-family="sans" font-size="10.00" fill="#000000">create_peddy_mqc_tsv</text>
</g>
<!-- 8&#45;&gt;41 -->
<g id="edge65" class="edge">
<title>8&#45;&gt;41</title>
<path fill="none" stroke="#c0c0c0" stroke-width="2" d="M773.6305,-363.0177C776.4315,-361.9198 779.2479,-360.8943 782,-360 842.8397,-340.2291 914.1395,-325.9877 966.5107,-317.1109"/>
<polygon fill="#c0c0c0" stroke="#c0c0c0" stroke-width="2" points="967.1055,-320.5602 976.3928,-315.4615 965.953,-313.6557 967.1055,-320.5602"/>
</g>
<!-- 9 -->
<g id="node10" class="node">
<title>9</title>
<path fill="none" stroke="#d86e56" stroke-width="2" d="M678.5,-540C678.5,-540 561.5,-540 561.5,-540 555.5,-540 549.5,-534 549.5,-528 549.5,-528 549.5,-516 549.5,-516 549.5,-510 555.5,-504 561.5,-504 561.5,-504 678.5,-504 678.5,-504 684.5,-504 690.5,-510 690.5,-516 690.5,-516 690.5,-528 690.5,-528 690.5,-534 684.5,-540 678.5,-540"/>
<text text-anchor="middle" x="620" y="-519.5" font-family="sans" font-size="10.00" fill="#000000">snv_indels_bcftools_view</text>
</g>
<!-- 9&#45;&gt;8 -->
<g id="edge19" class="edge">
<title>9&#45;&gt;8</title>
<path fill="none" stroke="#c0c0c0" stroke-width="2" d="M641.3904,-503.9681C652.7965,-493.9004 666.7558,-480.8301 678,-468 695.5928,-447.926 712.9784,-423.0685 725.1793,-404.567"/>
<polygon fill="#c0c0c0" stroke="#c0c0c0" stroke-width="2" points="728.2057,-406.3334 730.7305,-396.0438 722.3401,-402.5131 728.2057,-406.3334"/>
</g>
<!-- 13 -->
<g id="node14" class="node">
<title>13</title>
<path fill="none" stroke="#80d856" stroke-width="2" d="M657,-468C657,-468 583,-468 583,-468 577,-468 571,-462 571,-456 571,-456 571,-444 571,-444 571,-438 577,-432 583,-432 583,-432 657,-432 657,-432 663,-432 669,-438 669,-444 669,-444 669,-456 669,-456 669,-462 663,-468 657,-468"/>
<text text-anchor="middle" x="620" y="-447.5" font-family="sans" font-size="10.00" fill="#000000">snv_indels_tabix</text>
</g>
<!-- 9&#45;&gt;13 -->
<g id="edge24" class="edge">
<title>9&#45;&gt;13</title>
<path fill="none" stroke="#c0c0c0" stroke-width="2" d="M620,-503.8314C620,-496.131 620,-486.9743 620,-478.4166"/>
<polygon fill="#c0c0c0" stroke="#c0c0c0" stroke-width="2" points="623.5001,-478.4132 620,-468.4133 616.5001,-478.4133 623.5001,-478.4132"/>
</g>
<!-- 10 -->
<g id="node11" class="node">
<title>10</title>
<path fill="none" stroke="#afd856" stroke-width="2" d="M675.5,-612C675.5,-612 552.5,-612 552.5,-612 546.5,-612 540.5,-606 540.5,-600 540.5,-600 540.5,-588 540.5,-588 540.5,-582 546.5,-576 552.5,-576 552.5,-576 675.5,-576 675.5,-576 681.5,-576 687.5,-582 687.5,-588 687.5,-588 687.5,-600 687.5,-600 687.5,-606 681.5,-612 675.5,-612"/>
<text text-anchor="middle" x="614" y="-591.5" font-family="sans" font-size="10.00" fill="#000000">snv_indels_glnexus_peddy</text>
</g>
<!-- 10&#45;&gt;9 -->
<g id="edge20" class="edge">
<title>10&#45;&gt;9</title>
<path fill="none" stroke="#c0c0c0" stroke-width="2" d="M615.5141,-575.8314C616.1558,-568.131 616.9188,-558.9743 617.6319,-550.4166"/>
<polygon fill="#c0c0c0" stroke="#c0c0c0" stroke-width="2" points="621.1229,-550.6694 618.4656,-540.4133 614.1471,-550.088 621.1229,-550.6694"/>
</g>
<!-- 11&#45;&gt;10 -->
<g id="edge21" class="edge">
<title>11&#45;&gt;10</title>
<path fill="none" stroke="#c0c0c0" stroke-width="2" d="M462.7124,-647.9243C490.327,-638.0815 524.675,-625.8386 553.6601,-615.5073"/>
<polygon fill="#c0c0c0" stroke="#c0c0c0" stroke-width="2" points="555.0223,-618.7375 563.2667,-612.0831 552.6721,-612.1438 555.0223,-618.7375"/>
</g>
<!-- 29 -->
<g id="node30" class="node">
<title>29</title>
<path fill="none" stroke="#56d88a" stroke-width="2" d="M405.5,-612C405.5,-612 328.5,-612 328.5,-612 322.5,-612 316.5,-606 316.5,-600 316.5,-600 316.5,-588 316.5,-588 316.5,-582 322.5,-576 328.5,-576 328.5,-576 405.5,-576 405.5,-576 411.5,-576 417.5,-582 417.5,-588 417.5,-588 417.5,-600 417.5,-600 417.5,-606 411.5,-612 405.5,-612"/>
<text text-anchor="middle" x="367" y="-591.5" font-family="sans" font-size="10.00" fill="#000000">snv_indels_fix_af</text>
</g>
<!-- 11&#45;&gt;29 -->
<g id="edge44" class="edge">
<title>11&#45;&gt;29</title>
<path fill="none" stroke="#c0c0c0" stroke-width="2" d="M400.6446,-647.8314C395.5674,-639.7079 389.4773,-629.9637 383.8824,-621.0118"/>
<polygon fill="#c0c0c0" stroke="#c0c0c0" stroke-width="2" points="386.7763,-619.0383 378.5083,-612.4133 380.8403,-622.7483 386.7763,-619.0383"/>
</g>
<!-- 12 -->
<g id="node13" class="node">
<title>12</title>
<path fill="none" stroke="#d8c356" stroke-width="2" d="M1025.5,-468C1025.5,-468 978.5,-468 978.5,-468 972.5,-468 966.5,-462 966.5,-456 966.5,-456 966.5,-444 966.5,-444 966.5,-438 972.5,-432 978.5,-432 978.5,-432 1025.5,-432 1025.5,-432 1031.5,-432 1037.5,-438 1037.5,-444 1037.5,-444 1037.5,-456 1037.5,-456 1037.5,-462 1031.5,-468 1025.5,-468"/>
<text text-anchor="middle" x="1002" y="-447.5" font-family="sans" font-size="10.00" fill="#000000">create_ped</text>
</g>
<!-- 12&#45;&gt;8 -->
<g id="edge17" class="edge">
<title>12&#45;&gt;8</title>
<path fill="none" stroke="#c0c0c0" stroke-width="2" d="M966.3738,-443.3385C924.3598,-435.031 852.4175,-419.3925 783.3838,-396.2001"/>
<polygon fill="#c0c0c0" stroke="#c0c0c0" stroke-width="2" points="784.2602,-392.8009 773.6656,-392.8774 781.9955,-399.4244 784.2602,-392.8009"/>
</g>
<!-- 12&#45;&gt;41 -->
<g id="edge64" class="edge">
<title>12&#45;&gt;41</title>
<path fill="none" stroke="#c0c0c0" stroke-width="2" d="M1006.9394,-431.7623C1013.6207,-407.0928 1025.6005,-362.8598 1033.424,-333.9731"/>
<polygon fill="#c0c0c0" stroke="#c0c0c0" stroke-width="2" points="1036.8648,-334.6569 1036.1007,-324.0896 1030.1082,-332.8269 1036.8648,-334.6569"/>
</g>
<!-- 13&#45;&gt;8 -->
<g id="edge18" class="edge">
<title>13&#45;&gt;8</title>
<path fill="none" stroke="#c0c0c0" stroke-width="2" d="M650.7858,-431.8314C666.3903,-422.6221 685.524,-411.3301 702.2303,-401.4706"/>
<polygon fill="#c0c0c0" stroke="#c0c0c0" stroke-width="2" points="704.3909,-404.2596 711.2241,-396.1628 700.8331,-398.2312 704.3909,-404.2596"/>
</g>
<!-- 27 -->
<g id="node28" class="node">
<title>27</title>
<path fill="none" stroke="#56d873" stroke-width="2" d="M465.5,-396C465.5,-396 362.5,-396 362.5,-396 356.5,-396 350.5,-390 350.5,-384 350.5,-384 350.5,-372 350.5,-372 350.5,-366 356.5,-360 362.5,-360 362.5,-360 465.5,-360 465.5,-360 471.5,-360 477.5,-366 477.5,-372 477.5,-372 477.5,-384 477.5,-384 477.5,-390 471.5,-396 465.5,-396"/>
<text text-anchor="middle" x="414" y="-375.5" font-family="sans" font-size="10.00" fill="#000000">filtering_bcftools_view</text>
</g>
<!-- 13&#45;&gt;27 -->
<g id="edge41" class="edge">
<title>13&#45;&gt;27</title>
<path fill="none" stroke="#c0c0c0" stroke-width="2" d="M570.9196,-432.8457C542.2482,-422.8246 505.814,-410.0903 475.2713,-399.4152"/>
<polygon fill="#c0c0c0" stroke="#c0c0c0" stroke-width="2" points="476.174,-396.0231 465.5791,-396.0277 473.8643,-402.6312 476.174,-396.0231"/>
</g>
<!-- 30 -->
<g id="node31" class="node">
<title>30</title>
<path fill="none" stroke="#566bd8" stroke-width="2" d="M680,-396C680,-396 584,-396 584,-396 578,-396 572,-390 572,-384 572,-384 572,-372 572,-372 572,-366 578,-360 584,-360 584,-360 680,-360 680,-360 686,-360 692,-366 692,-372 692,-372 692,-384 692,-384 692,-390 686,-396 680,-396"/>
<text text-anchor="middle" x="632" y="-375.5" font-family="sans" font-size="10.00" fill="#000000">_copy_snv_indels_tbi</text>
</g>
<!-- 13&#45;&gt;30 -->
<g id="edge45" class="edge">
<title>13&#45;&gt;30</title>
<path fill="none" stroke="#c0c0c0" stroke-width="2" d="M623.0281,-431.8314C624.3115,-424.131 625.8376,-414.9743 627.2639,-406.4166"/>
<polygon fill="#c0c0c0" stroke="#c0c0c0" stroke-width="2" points="630.7394,-406.8526 628.9311,-396.4133 623.8347,-405.7018 630.7394,-406.8526"/>
</g>
<!-- 14&#45;&gt;0 -->
<g id="edge3" class="edge">
<title>14&#45;&gt;0</title>
<path fill="none" stroke="#c0c0c0" stroke-width="2" d="M651,-71.8314C651,-64.131 651,-54.9743 651,-46.4166"/>
<polygon fill="#c0c0c0" stroke="#c0c0c0" stroke-width="2" points="654.5001,-46.4132 651,-36.4133 647.5001,-46.4133 654.5001,-46.4132"/>
</g>
<!-- 15 -->
<g id="node16" class="node">
<title>15</title>
<path fill="none" stroke="#d88d56" stroke-width="2" d="M845.5,-180C845.5,-180 742.5,-180 742.5,-180 736.5,-180 730.5,-174 730.5,-168 730.5,-168 730.5,-156 730.5,-156 730.5,-150 736.5,-144 742.5,-144 742.5,-144 845.5,-144 845.5,-144 851.5,-144 857.5,-150 857.5,-156 857.5,-156 857.5,-168 857.5,-168 857.5,-174 851.5,-180 845.5,-180"/>
<text text-anchor="middle" x="794" y="-159.5" font-family="sans" font-size="10.00" fill="#000000">_copy_coverage_excel</text>
</g>
<!-- 15&#45;&gt;0 -->
<g id="edge9" class="edge">
<title>15&#45;&gt;0</title>
<path fill="none" stroke="#c0c0c0" stroke-width="2" d="M791.4195,-143.7045C787.7704,-123.8968 779.3722,-92.4082 761,-72 741.5708,-50.4178 711.5875,-36.4984 687.8287,-28.2062"/>
<polygon fill="#c0c0c0" stroke="#c0c0c0" stroke-width="2" points="688.6695,-24.7982 678.0765,-24.991 686.4777,-31.4462 688.6695,-24.7982"/>
</g>
<!-- 16 -->
<g id="node17" class="node">
<title>16</title>
<path fill="none" stroke="#d85e56" stroke-width="2" d="M832.5,-252C832.5,-252 755.5,-252 755.5,-252 749.5,-252 743.5,-246 743.5,-240 743.5,-240 743.5,-228 743.5,-228 743.5,-222 749.5,-216 755.5,-216 755.5,-216 832.5,-216 832.5,-216 838.5,-216 844.5,-222 844.5,-228 844.5,-228 844.5,-240 844.5,-240 844.5,-246 838.5,-252 832.5,-252"/>
<text text-anchor="middle" x="794" y="-231.5" font-family="sans" font-size="10.00" fill="#000000">create_cov_excel</text>
</g>
<!-- 16&#45;&gt;15 -->
<g id="edge26" class="edge">
<title>16&#45;&gt;15</title>
<path fill="none" stroke="#c0c0c0" stroke-width="2" d="M794,-215.8314C794,-208.131 794,-198.9743 794,-190.4166"/>
<polygon fill="#c0c0c0" stroke="#c0c0c0" stroke-width="2" points="797.5001,-190.4132 794,-180.4133 790.5001,-190.4133 797.5001,-190.4132"/>
</g>
<!-- 17&#45;&gt;16 -->
<g id="edge29" class="edge">
<title>17&#45;&gt;16</title>
<path fill="none" stroke="#c0c0c0" stroke-width="2" d="M798.0514,-359.8539C782.8255,-351.3763 767.5872,-339.629 759,-324 747.8302,-303.6706 758.9578,-279.0266 771.5436,-260.67"/>
<polygon fill="#c0c0c0" stroke="#c0c0c0" stroke-width="2" points="774.6564,-262.3439 777.7479,-252.2102 769.0116,-258.2042 774.6564,-262.3439"/>
</g>
<!-- 19 -->
<g id="node20" class="node">
<title>19</title>
<path fill="none" stroke="#56d88a" stroke-width="2" d="M869.5,-324C869.5,-324 780.5,-324 780.5,-324 774.5,-324 768.5,-318 768.5,-312 768.5,-312 768.5,-300 768.5,-300 768.5,-294 774.5,-288 780.5,-288 780.5,-288 869.5,-288 869.5,-288 875.5,-288 881.5,-294 881.5,-300 881.5,-300 881.5,-312 881.5,-312 881.5,-318 875.5,-324 869.5,-324"/>
<text text-anchor="middle" x="825" y="-303.5" font-family="sans" font-size="10.00" fill="#000000">mosdepth_bedtools</text>
</g>
<!-- 17&#45;&gt;19 -->
<g id="edge32" class="edge">
<title>17&#45;&gt;19</title>
<path fill="none" stroke="#c0c0c0" stroke-width="2" d="M839.2055,-359.8314C837.1511,-352.0463 834.704,-342.7729 832.4244,-334.1347"/>
<polygon fill="#c0c0c0" stroke="#c0c0c0" stroke-width="2" points="835.7948,-333.1892 829.8591,-324.4133 829.0265,-334.9753 835.7948,-333.1892"/>
</g>
<!-- 33 -->
<g id="node34" class="node">
<title>33</title>
<path fill="none" stroke="#97d856" stroke-width="2" d="M1308,-252C1308,-252 1262,-252 1262,-252 1256,-252 1250,-246 1250,-240 1250,-240 1250,-228 1250,-228 1250,-222 1256,-216 1262,-216 1262,-216 1308,-216 1308,-216 1314,-216 1320,-222 1320,-228 1320,-228 1320,-240 1320,-240 1320,-246 1314,-252 1308,-252"/>
<text text-anchor="middle" x="1285" y="-231.5" font-family="sans" font-size="10.00" fill="#000000">qc_multiqc</text>
</g>
<!-- 17&#45;&gt;33 -->
<g id="edge53" class="edge">
<title>17&#45;&gt;33</title>
<path fill="none" stroke="#c0c0c0" stroke-width="2" d="M862.6907,-359.9145C885.4004,-339.0571 925.8114,-305.4118 967,-288 1015.4618,-267.5136 1164.1171,-248.0073 1239.7647,-239.0803"/>
<polygon fill="#c0c0c0" stroke="#c0c0c0" stroke-width="2" points="1240.4101,-242.5288 1249.9363,-237.8919 1239.5977,-235.5761 1240.4101,-242.5288"/>
</g>
<!-- 18&#45;&gt;16 -->
<g id="edge27" class="edge">
<title>18&#45;&gt;16</title>
<path fill="none" stroke="#c0c0c0" stroke-width="2" d="M1123.4975,-290.1106C1120.6359,-289.3469 1117.7879,-288.6353 1115,-288 1003.95,-262.6965 970.2541,-276.1132 854.5514,-251.9097"/>
<polygon fill="#c0c0c0" stroke="#c0c0c0" stroke-width="2" points="855.1066,-248.4493 844.5954,-249.7776 853.6407,-255.2941 855.1066,-248.4493"/>
</g>
<!-- 18&#45;&gt;33 -->
<g id="edge49" class="edge">
<title>18&#45;&gt;33</title>
<path fill="none" stroke="#c0c0c0" stroke-width="2" d="M1199.767,-287.8314C1214.2133,-278.7074 1231.8965,-267.539 1247.404,-257.7449"/>
<polygon fill="#c0c0c0" stroke="#c0c0c0" stroke-width="2" points="1249.6563,-260.462 1256.2422,-252.1628 1245.9183,-254.5436 1249.6563,-260.462"/>
</g>
<!-- 19&#45;&gt;16 -->
<g id="edge28" class="edge">
<title>19&#45;&gt;16</title>
<path fill="none" stroke="#c0c0c0" stroke-width="2" d="M817.1774,-287.8314C813.7891,-279.9617 809.7459,-270.5712 805.9924,-261.8533"/>
<polygon fill="#c0c0c0" stroke="#c0c0c0" stroke-width="2" points="809.0973,-260.214 801.9279,-252.4133 802.6679,-262.9822 809.0973,-260.214"/>
</g>
<!-- 20 -->
<g id="node21" class="node">
<title>20</title>
<path fill="none" stroke="#88d856" stroke-width="2" d="M988.5,-180C988.5,-180 887.5,-180 887.5,-180 881.5,-180 875.5,-174 875.5,-168 875.5,-168 875.5,-156 875.5,-156 875.5,-150 881.5,-144 887.5,-144 887.5,-144 988.5,-144 988.5,-144 994.5,-144 1000.5,-150 1000.5,-156 1000.5,-156 1000.5,-168 1000.5,-168 1000.5,-174 994.5,-180 988.5,-180"/>
<text text-anchor="middle" x="938" y="-159.5" font-family="sans" font-size="10.00" fill="#000000">_copy_samtools_cram</text>
</g>
<!-- 20&#45;&gt;0 -->
<g id="edge1" class="edge">
<title>20&#45;&gt;0</title>
<path fill="none" stroke="#c0c0c0" stroke-width="2" d="M910.4256,-143.9164C880.5091,-124.7182 830.9841,-94.1503 786,-72 753.628,-56.06 715.3164,-41.0846 687.7914,-30.9665"/>
<polygon fill="#c0c0c0" stroke="#c0c0c0" stroke-width="2" points="688.7637,-27.5958 678.1697,-27.4657 686.3703,-34.1739 688.7637,-27.5958"/>
</g>
<!-- 21&#45;&gt;20 -->
<g id="edge33" class="edge">
<title>21&#45;&gt;20</title>
<path fill="none" stroke="#c0c0c0" stroke-width="2" d="M940.9906,-215.8314C940.5628,-208.131 940.0541,-198.9743 939.5787,-190.4166"/>
<polygon fill="#c0c0c0" stroke="#c0c0c0" stroke-width="2" points="943.0724,-190.2037 939.023,-180.4133 936.0831,-190.592 943.0724,-190.2037"/>
</g>
<!-- 23 -->
<g id="node24" class="node">
<title>23</title>
<path fill="none" stroke="#d89c56" stroke-width="2" d="M1167.5,-180C1167.5,-180 1030.5,-180 1030.5,-180 1024.5,-180 1018.5,-174 1018.5,-168 1018.5,-168 1018.5,-156 1018.5,-156 1018.5,-150 1024.5,-144 1030.5,-144 1030.5,-144 1167.5,-144 1167.5,-144 1173.5,-144 1179.5,-150 1179.5,-156 1179.5,-156 1179.5,-168 1179.5,-168 1179.5,-174 1173.5,-180 1167.5,-180"/>
<text text-anchor="middle" x="1099" y="-159.5" font-family="sans" font-size="10.00" fill="#000000">compression_samtools_index</text>
</g>
<!-- 21&#45;&gt;23 -->
<g id="edge36" class="edge">
<title>21&#45;&gt;23</title>
<path fill="none" stroke="#c0c0c0" stroke-width="2" d="M981.6177,-215.8314C1002.5222,-206.2446 1028.3483,-194.4008 1050.4488,-184.2655"/>
<polygon fill="#c0c0c0" stroke="#c0c0c0" stroke-width="2" points="1052.0364,-187.388 1059.6672,-180.038 1049.1184,-181.0252 1052.0364,-187.388"/>
</g>
<!-- 22 -->
<g id="node23" class="node">
<title>22</title>
<path fill="none" stroke="#d8a456" stroke-width="2" d="M1080.5,-108C1080.5,-108 985.5,-108 985.5,-108 979.5,-108 973.5,-102 973.5,-96 973.5,-96 973.5,-84 973.5,-84 973.5,-78 979.5,-72 985.5,-72 985.5,-72 1080.5,-72 1080.5,-72 1086.5,-72 1092.5,-78 1092.5,-84 1092.5,-84 1092.5,-96 1092.5,-96 1092.5,-102 1086.5,-108 1080.5,-108"/>
<text text-anchor="middle" x="1033" y="-87.5" font-family="sans" font-size="10.00" fill="#000000">_copy_samtools_crai</text>
</g>
<!-- 22&#45;&gt;0 -->
<g id="edge5" class="edge">
<title>22&#45;&gt;0</title>
<path fill="none" stroke="#c0c0c0" stroke-width="2" d="M973.3125,-78.75C893.4401,-63.6955 754.1881,-37.4491 687.9905,-24.972"/>
<polygon fill="#c0c0c0" stroke="#c0c0c0" stroke-width="2" points="688.489,-21.5044 678.0137,-23.0916 687.1924,-28.3833 688.489,-21.5044"/>
</g>
<!-- 23&#45;&gt;22 -->
<g id="edge35" class="edge">
<title>23&#45;&gt;22</title>
<path fill="none" stroke="#c0c0c0" stroke-width="2" d="M1082.3454,-143.8314C1074.5886,-135.3694 1065.2198,-125.1489 1056.739,-115.8971"/>
<polygon fill="#c0c0c0" stroke="#c0c0c0" stroke-width="2" points="1059.2162,-113.4198 1049.8788,-108.4133 1054.0561,-118.1499 1059.2162,-113.4198"/>
</g>
<!-- 24 -->
<g id="node25" class="node">
<title>24</title>
<path fill="none" stroke="#d88556" stroke-width="2" d="M218.5,-108C218.5,-108 127.5,-108 127.5,-108 121.5,-108 115.5,-102 115.5,-96 115.5,-96 115.5,-84 115.5,-84 115.5,-78 121.5,-72 127.5,-72 127.5,-72 218.5,-72 218.5,-72 224.5,-72 230.5,-78 230.5,-84 230.5,-84 230.5,-96 230.5,-96 230.5,-102 224.5,-108 218.5,-108"/>
<text text-anchor="middle" x="173" y="-87.5" font-family="sans" font-size="10.00" fill="#000000">_copy_automap_pdf</text>
</g>
<!-- 24&#45;&gt;0 -->
<g id="edge6" class="edge">
<title>24&#45;&gt;0</title>
<path fill="none" stroke="#c0c0c0" stroke-width="2" d="M230.6298,-74.0002C233.7902,-73.2845 236.9287,-72.6115 240,-72 311.4702,-57.7689 527.0722,-32.2598 614.0381,-22.2225"/>
<polygon fill="#c0c0c0" stroke="#c0c0c0" stroke-width="2" points="614.4537,-25.6978 623.9877,-21.0769 613.653,-18.7438 614.4537,-25.6978"/>
</g>
<!-- 25 -->
<g id="node26" class="node">
<title>25</title>
<path fill="none" stroke="#567bd8" stroke-width="2" d="M295.5,-180C295.5,-180 220.5,-180 220.5,-180 214.5,-180 208.5,-174 208.5,-168 208.5,-168 208.5,-156 208.5,-156 208.5,-150 214.5,-144 220.5,-144 220.5,-144 295.5,-144 295.5,-144 301.5,-144 307.5,-150 307.5,-156 307.5,-156 307.5,-168 307.5,-168 307.5,-174 301.5,-180 295.5,-180"/>
<text text-anchor="middle" x="258" y="-159.5" font-family="sans" font-size="10.00" fill="#000000">cnv_sv_automap</text>
</g>
<!-- 25&#45;&gt;24 -->
<g id="edge37" class="edge">
<title>25&#45;&gt;24</title>
<path fill="none" stroke="#c0c0c0" stroke-width="2" d="M236.5509,-143.8314C226.1822,-135.0485 213.5771,-124.3712 202.3354,-114.8489"/>
<polygon fill="#c0c0c0" stroke="#c0c0c0" stroke-width="2" points="204.3349,-111.9556 194.4422,-108.1628 199.8105,-117.297 204.3349,-111.9556"/>
</g>
<!-- 31 -->
<g id="node32" class="node">
<title>31</title>
<path fill="none" stroke="#568ad8" stroke-width="2" d="M351,-108C351,-108 261,-108 261,-108 255,-108 249,-102 249,-96 249,-96 249,-84 249,-84 249,-78 255,-72 261,-72 261,-72 351,-72 351,-72 357,-72 363,-78 363,-84 363,-84 363,-96 363,-96 363,-102 357,-108 351,-108"/>
<text text-anchor="middle" x="306" y="-87.5" font-family="sans" font-size="10.00" fill="#000000">_copy_automap_tsv</text>
</g>
<!-- 25&#45;&gt;31 -->
<g id="edge46" class="edge">
<title>25&#45;&gt;31</title>
<path fill="none" stroke="#c0c0c0" stroke-width="2" d="M270.1124,-143.8314C275.5281,-135.7079 282.0242,-125.9637 287.9921,-117.0118"/>
<polygon fill="#c0c0c0" stroke="#c0c0c0" stroke-width="2" points="291.0896,-118.6753 293.7245,-108.4133 285.2653,-114.7923 291.0896,-118.6753"/>
</g>
<!-- 26 -->
<g id="node27" class="node">
<title>26</title>
<path fill="none" stroke="#56a9d8" stroke-width="2" d="M281.5,-324C281.5,-324 234.5,-324 234.5,-324 228.5,-324 222.5,-318 222.5,-312 222.5,-312 222.5,-300 222.5,-300 222.5,-294 228.5,-288 234.5,-288 234.5,-288 281.5,-288 281.5,-288 287.5,-288 293.5,-294 293.5,-300 293.5,-300 293.5,-312 293.5,-312 293.5,-318 287.5,-324 281.5,-324"/>
<text text-anchor="middle" x="258" y="-303.5" font-family="sans" font-size="10.00" fill="#000000">vcf_addRef</text>
</g>
<!-- 26&#45;&gt;25 -->
<g id="edge38" class="edge">
<title>26&#45;&gt;25</title>
<path fill="none" stroke="#c0c0c0" stroke-width="2" d="M258,-287.7623C258,-263.201 258,-219.2474 258,-190.3541"/>
<polygon fill="#c0c0c0" stroke="#c0c0c0" stroke-width="2" points="261.5001,-190.0896 258,-180.0896 254.5001,-190.0897 261.5001,-190.0896"/>
</g>
<!-- 28 -->
<g id="node29" class="node">
<title>28</title>
<path fill="none" stroke="#56d86b" stroke-width="2" d="M429,-252C429,-252 353,-252 353,-252 347,-252 341,-246 341,-240 341,-240 341,-228 341,-228 341,-222 347,-216 353,-216 353,-216 429,-216 429,-216 435,-216 441,-222 441,-228 441,-228 441,-240 441,-240 441,-246 435,-252 429,-252"/>
<text text-anchor="middle" x="391" y="-231.5" font-family="sans" font-size="10.00" fill="#000000">snv_indels_bgzip</text>
</g>
<!-- 26&#45;&gt;28 -->
<g id="edge43" class="edge">
<title>26&#45;&gt;28</title>
<path fill="none" stroke="#c0c0c0" stroke-width="2" d="M291.5615,-287.8314C308.8881,-278.4516 330.2058,-266.9112 348.6536,-256.9244"/>
<polygon fill="#c0c0c0" stroke="#c0c0c0" stroke-width="2" points="350.3214,-260.0015 357.4492,-252.1628 346.9889,-253.8457 350.3214,-260.0015"/>
</g>
<!-- 27&#45;&gt;26 -->
<g id="edge39" class="edge">
<title>27&#45;&gt;26</title>
<path fill="none" stroke="#c0c0c0" stroke-width="2" d="M374.6346,-359.8314C352.7392,-349.7258 325.41,-337.1123 302.7108,-326.6357"/>
<polygon fill="#c0c0c0" stroke="#c0c0c0" stroke-width="2" points="304.1648,-323.4521 293.6184,-322.4393 301.2313,-329.8078 304.1648,-323.4521"/>
</g>
<!-- 28&#45;&gt;13 -->
<g id="edge23" class="edge">
<title>28&#45;&gt;13</title>
<path fill="none" stroke="#c0c0c0" stroke-width="2" d="M410.2371,-252.1451C451.1652,-290.7497 546.9311,-381.0791 593.5572,-425.0584"/>
<polygon fill="#c0c0c0" stroke="#c0c0c0" stroke-width="2" points="591.1933,-427.64 600.8695,-431.9555 595.9965,-422.5478 591.1933,-427.64"/>
</g>
<!-- 28&#45;&gt;27 -->
<g id="edge40" class="edge">
<title>28&#45;&gt;27</title>
<path fill="none" stroke="#c0c0c0" stroke-width="2" d="M393.8893,-252.0896C397.817,-276.6805 404.8807,-320.905 409.5043,-349.8531"/>
<polygon fill="#c0c0c0" stroke="#c0c0c0" stroke-width="2" points="406.0535,-350.4395 411.087,-359.7623 412.9659,-349.3354 406.0535,-350.4395"/>
</g>
<!-- 42 -->
<g id="node43" class="node">
<title>42</title>
<path fill="none" stroke="#70d856" stroke-width="2" d="M440,-180C440,-180 342,-180 342,-180 336,-180 330,-174 330,-168 330,-168 330,-156 330,-156 330,-150 336,-144 342,-144 342,-144 440,-144 440,-144 446,-144 452,-150 452,-156 452,-156 452,-168 452,-168 452,-174 446,-180 440,-180"/>
<text text-anchor="middle" x="391" y="-159.5" font-family="sans" font-size="10.00" fill="#000000">_copy_snv_indels_vcf</text>
</g>
<!-- 28&#45;&gt;42 -->
<g id="edge66" class="edge">
<title>28&#45;&gt;42</title>
<path fill="none" stroke="#c0c0c0" stroke-width="2" d="M391,-215.8314C391,-208.131 391,-198.9743 391,-190.4166"/>
<polygon fill="#c0c0c0" stroke="#c0c0c0" stroke-width="2" points="394.5001,-190.4132 391,-180.4133 387.5001,-190.4133 394.5001,-190.4132"/>
</g>
<!-- 29&#45;&gt;28 -->
<g id="edge42" class="edge">
<title>29&#45;&gt;28</title>
<path fill="none" stroke="#c0c0c0" stroke-width="2" d="M357.4567,-575.9269C344.2473,-549.1844 322,-497.1461 322,-450 322,-450 322,-450 322,-378 322,-333.474 349.1615,-288.1354 369.4016,-260.5313"/>
<polygon fill="#c0c0c0" stroke="#c0c0c0" stroke-width="2" points="372.4492,-262.3037 375.6867,-252.2156 366.8648,-258.0829 372.4492,-262.3037"/>
</g>
<!-- 30&#45;&gt;0 -->
<g id="edge10" class="edge">
<title>30&#45;&gt;0</title>
<path fill="none" stroke="#c0c0c0" stroke-width="2" d="M654.1097,-359.8582C664.4117,-350.2449 675.9289,-337.619 683,-324 688.6431,-313.1312 725.7716,-120.1847 727,-108 728.6049,-92.0807 734.339,-86.2175 727,-72 718.4354,-55.4081 702.1569,-42.8043 686.8559,-33.9635"/>
<polygon fill="#c0c0c0" stroke="#c0c0c0" stroke-width="2" points="688.4871,-30.8667 678.0255,-29.1913 685.1589,-37.0249 688.4871,-30.8667"/>
</g>
<!-- 31&#45;&gt;0 -->
<g id="edge2" class="edge">
<title>31&#45;&gt;0</title>
<path fill="none" stroke="#c0c0c0" stroke-width="2" d="M363.2877,-75.1954C367.9198,-74.0841 372.5339,-73.0055 377,-72 461.2542,-53.0319 560.9141,-34.3163 613.7504,-24.6851"/>
<polygon fill="#c0c0c0" stroke="#c0c0c0" stroke-width="2" points="614.4614,-28.1133 623.6749,-22.8826 613.2104,-21.226 614.4614,-28.1133"/>
</g>
<!-- 32 -->
<g id="node33" class="node">
<title>32</title>
<path fill="none" stroke="#56a2d8" stroke-width="2" d="M1254.5,-108C1254.5,-108 1163.5,-108 1163.5,-108 1157.5,-108 1151.5,-102 1151.5,-96 1151.5,-96 1151.5,-84 1151.5,-84 1151.5,-78 1157.5,-72 1163.5,-72 1163.5,-72 1254.5,-72 1254.5,-72 1260.5,-72 1266.5,-78 1266.5,-84 1266.5,-84 1266.5,-96 1266.5,-96 1266.5,-102 1260.5,-108 1254.5,-108"/>
<text text-anchor="middle" x="1209" y="-87.5" font-family="sans" font-size="10.00" fill="#000000">_copy_multiqc_html</text>
</g>
<!-- 32&#45;&gt;0 -->
<g id="edge4" class="edge">
<title>32&#45;&gt;0</title>
<path fill="none" stroke="#c0c0c0" stroke-width="2" d="M1151.3263,-79.7818C1135.3719,-77.0959 1118.035,-74.3074 1102,-72 948.8047,-49.9558 765.4183,-29.9724 688.1807,-21.8472"/>
<polygon fill="#c0c0c0" stroke="#c0c0c0" stroke-width="2" points="688.3112,-18.3418 678.0008,-20.7805 687.5816,-25.3037 688.3112,-18.3418"/>
</g>
<!-- 33&#45;&gt;32 -->
<g id="edge47" class="edge">
<title>33&#45;&gt;32</title>
<path fill="none" stroke="#c0c0c0" stroke-width="2" d="M1275.3745,-215.7623C1262.2403,-190.8764 1238.599,-146.0822 1223.3642,-117.2165"/>
<polygon fill="#c0c0c0" stroke="#c0c0c0" stroke-width="2" points="1226.3103,-115.2998 1218.5473,-108.0896 1220.1196,-118.5671 1226.3103,-115.2998"/>
</g>
<!-- 34&#45;&gt;33 -->
<g id="edge52" class="edge">
<title>34&#45;&gt;33</title>
<path fill="none" stroke="#c0c0c0" stroke-width="2" d="M1192.1929,-503.9843C1208.9649,-455.1929 1255.3558,-320.2377 1275.4806,-261.6927"/>
<polygon fill="#c0c0c0" stroke="#c0c0c0" stroke-width="2" points="1278.8685,-262.6036 1278.8094,-252.0089 1272.2487,-260.3279 1278.8685,-262.6036"/>
</g>
<!-- 35 -->
<g id="node36" class="node">
<title>35</title>
<path fill="none" stroke="#a7d856" stroke-width="2" d="M1440.5,-324C1440.5,-324 1401.5,-324 1401.5,-324 1395.5,-324 1389.5,-318 1389.5,-312 1389.5,-312 1389.5,-300 1389.5,-300 1389.5,-294 1395.5,-288 1401.5,-288 1401.5,-288 1440.5,-288 1440.5,-288 1446.5,-288 1452.5,-294 1452.5,-300 1452.5,-300 1452.5,-312 1452.5,-312 1452.5,-318 1446.5,-324 1440.5,-324"/>
<text text-anchor="middle" x="1421" y="-303.5" font-family="sans" font-size="10.00" fill="#000000">qc_fastqc</text>
</g>
<!-- 35&#45;&gt;33 -->
<g id="edge48" class="edge">
<title>35&#45;&gt;33</title>
<path fill="none" stroke="#c0c0c0" stroke-width="2" d="M1389.457,-289.3008C1371.2205,-279.6461 1348.0172,-267.3621 1328.1137,-256.8249"/>
<polygon fill="#c0c0c0" stroke="#c0c0c0" stroke-width="2" points="1329.7063,-253.7078 1319.2307,-252.1222 1326.431,-259.8943 1329.7063,-253.7078"/>
</g>
<!-- 36&#45;&gt;33 -->
<g id="edge50" class="edge">
<title>36&#45;&gt;33</title>
<path fill="none" stroke="#c0c0c0" stroke-width="2" d="M1259.3761,-575.6526C1263.7815,-516.9129 1277.5599,-333.2013 1282.8771,-262.3047"/>
<polygon fill="#c0c0c0" stroke="#c0c0c0" stroke-width="2" points="1286.3689,-262.5442 1283.6267,-252.3104 1279.3885,-262.0206 1286.3689,-262.5442"/>
</g>
<!-- 37&#45;&gt;33 -->
<g id="edge57" class="edge">
<title>37&#45;&gt;33</title>
<path fill="none" stroke="#c0c0c0" stroke-width="2" d="M1330.1645,-503.9751C1325.9971,-464.5649 1314.9309,-367.8652 1299,-288 1297.3215,-279.5855 1295.1281,-270.5278 1292.9772,-262.2797"/>
<polygon fill="#c0c0c0" stroke="#c0c0c0" stroke-width="2" points="1296.2911,-261.1247 1290.3173,-252.3746 1289.5306,-262.9402 1296.2911,-261.1247"/>
</g>
<!-- 38&#45;&gt;33 -->
<g id="edge54" class="edge">
<title>38&#45;&gt;33</title>
<path fill="none" stroke="#c0c0c0" stroke-width="2" d="M1399.8273,-431.9216C1390.4182,-400.8167 1368.5207,-335.9041 1337,-288 1330.3048,-277.8249 1321.5554,-267.8726 1313.1484,-259.34"/>
<polygon fill="#c0c0c0" stroke="#c0c0c0" stroke-width="2" points="1315.4982,-256.7422 1305.9089,-252.2372 1310.5959,-261.7389 1315.4982,-256.7422"/>
</g>
<!-- 39&#45;&gt;33 -->
<g id="edge55" class="edge">
<title>39&#45;&gt;33</title>
<path fill="none" stroke="#c0c0c0" stroke-width="2" d="M1487,-647.8146C1487,-620.4983 1487,-567.25 1487,-522 1487,-522 1487,-522 1487,-378 1487,-336.4855 1490.9835,-317.7223 1462,-288 1443.6496,-269.1818 1376.4478,-252.3589 1330.339,-242.6684"/>
<polygon fill="#c0c0c0" stroke="#c0c0c0" stroke-width="2" points="1330.7701,-239.1838 1320.2695,-240.5943 1329.3578,-246.0398 1330.7701,-239.1838"/>
</g>
<!-- 40&#45;&gt;33 -->
<g id="edge56" class="edge">
<title>40&#45;&gt;33</title>
<path fill="none" stroke="#c0c0c0" stroke-width="2" d="M1618.4998,-647.6962C1602.9121,-621.088 1577,-569.6848 1577,-522 1577,-522 1577,-522 1577,-378 1577,-321.4315 1535.998,-316.27 1487,-288 1437.7641,-259.5927 1373.1833,-245.7336 1330.4513,-239.2536"/>
<polygon fill="#c0c0c0" stroke="#c0c0c0" stroke-width="2" points="1330.7448,-235.7598 1320.3477,-237.7972 1329.746,-242.6882 1330.7448,-235.7598"/>
</g>
<!-- 41&#45;&gt;33 -->
<g id="edge51" class="edge">
<title>41&#45;&gt;33</title>
<path fill="none" stroke="#c0c0c0" stroke-width="2" d="M1102.2566,-287.9243C1145.0202,-275.3055 1201.1522,-258.742 1239.8636,-247.3189"/>
<polygon fill="#c0c0c0" stroke="#c0c0c0" stroke-width="2" points="1241.2017,-250.5734 1249.8022,-244.3862 1239.2205,-243.8596 1241.2017,-250.5734"/>
</g>
<!-- 42&#45;&gt;0 -->
<g id="edge11" class="edge">
<title>42&#45;&gt;0</title>
<path fill="none" stroke="#c0c0c0" stroke-width="2" d="M389.4973,-143.8099C388.8838,-123.4926 391.2592,-90.974 410,-72 438.0691,-43.5815 552.933,-27.9259 613.3879,-21.5083"/>
<polygon fill="#c0c0c0" stroke="#c0c0c0" stroke-width="2" points="614.0691,-24.9568 623.6583,-20.4515 613.3526,-17.9935 614.0691,-24.9568"/>
</g>
<!-- 43&#45;&gt;4 -->
<g id="edge14" class="edge">
<title>43&#45;&gt;4</title>
<path fill="none" stroke="#c0c0c0" stroke-width="2" d="M562,-215.8314C562,-208.131 562,-198.9743 562,-190.4166"/>
<polygon fill="#c0c0c0" stroke="#c0c0c0" stroke-width="2" points="565.5001,-190.4132 562,-180.4133 558.5001,-190.4133 565.5001,-190.4132"/>
</g>
</g>
</svg>
