<?xml version="1.0" encoding="UTF-8" standalone="no"?>
<!DOCTYPE svg PUBLIC "-//W3C//DTD SVG 1.1//EN"
 "http://www.w3.org/Graphics/SVG/1.1/DTD/svg11.dtd">
<!-- Generated by graphviz version 2.40.1 (0)
 -->
<!-- Title: snakemake_dag Pages: 1 -->
<svg width="1053pt" height="548pt"
 viewBox="0.00 0.00 1053.00 548.00" xmlns="http://www.w3.org/2000/svg" xmlns:xlink="http://www.w3.org/1999/xlink">
<g id="graph0" class="graph" transform="scale(1 1) rotate(0) translate(4 544)">
<title>snakemake_dag</title>
<polygon fill="#ffffff" stroke="transparent" points="-4,4 -4,-544 1049,-544 1049,4 -4,4"/>
<!-- 0 -->
<g id="node1" class="node">
<title>0</title>
<path fill="none" stroke="#d8c356" stroke-width="2" d="M478,-36C478,-36 448,-36 448,-36 442,-36 436,-30 436,-24 436,-24 436,-12 436,-12 436,-6 442,0 448,0 448,0 478,0 478,0 484,0 490,-6 490,-12 490,-12 490,-24 490,-24 490,-30 484,-36 478,-36"/>
<text text-anchor="middle" x="463" y="-15.5" font-family="sans" font-size="10.00" fill="#000000">all</text>
</g>
<!-- 1 -->
<g id="node2" class="node">
<title>1</title>
<path fill="none" stroke="#d89556" stroke-width="2" d="M319.5,-108C319.5,-108 182.5,-108 182.5,-108 176.5,-108 170.5,-102 170.5,-96 170.5,-96 170.5,-84 170.5,-84 170.5,-78 176.5,-72 182.5,-72 182.5,-72 319.5,-72 319.5,-72 325.5,-72 331.5,-78 331.5,-84 331.5,-84 331.5,-96 331.5,-96 331.5,-102 325.5,-108 319.5,-108"/>
<text text-anchor="middle" x="251" y="-87.5" font-family="sans" font-size="10.00" fill="#000000">_copy_exomedepth_male_ref</text>
</g>
<!-- 1&#45;&gt;0 -->
<g id="edge3" class="edge">
<title>1&#45;&gt;0</title>
<path fill="none" stroke="#c0c0c0" stroke-width="2" d="M304.2229,-71.9243C342.2378,-59.0136 392.4113,-41.9735 426.0927,-30.5345"/>
<polygon fill="#c0c0c0" stroke="#c0c0c0" stroke-width="2" points="427.6411,-33.7051 435.9844,-27.1751 425.39,-27.0769 427.6411,-33.7051"/>
</g>
<!-- 2 -->
<g id="node3" class="node">
<title>2</title>
<path fill="none" stroke="#56d8b1" stroke-width="2" d="M319.5,-180C319.5,-180 126.5,-180 126.5,-180 120.5,-180 114.5,-174 114.5,-168 114.5,-168 114.5,-156 114.5,-156 114.5,-150 120.5,-144 126.5,-144 126.5,-144 319.5,-144 319.5,-144 325.5,-144 331.5,-150 331.5,-156 331.5,-156 331.5,-168 331.5,-168 331.5,-174 325.5,-180 319.5,-180"/>
<text text-anchor="middle" x="223" y="-159.5" font-family="sans" font-size="10.00" fill="#000000">references_exomedepth_reference_male</text>
</g>
<!-- 2&#45;&gt;1 -->
<g id="edge4" class="edge">
<title>2&#45;&gt;1</title>
<path fill="none" stroke="#c0c0c0" stroke-width="2" d="M230.0656,-143.8314C233.126,-135.9617 236.7779,-126.5712 240.1682,-117.8533"/>
<polygon fill="#c0c0c0" stroke="#c0c0c0" stroke-width="2" points="243.4768,-119.0019 243.8393,-108.4133 236.9527,-116.4647 243.4768,-119.0019"/>
</g>
<!-- 3 -->
<g id="node4" class="node">
<title>3</title>
<path fill="none" stroke="#569ad8" stroke-width="2" d="M200,-252C200,-252 12,-252 12,-252 6,-252 0,-246 0,-240 0,-240 0,-228 0,-228 0,-222 6,-216 12,-216 12,-216 200,-216 200,-216 206,-216 212,-222 212,-228 212,-228 212,-240 212,-240 212,-246 206,-252 200,-252"/>
<text text-anchor="middle" x="106" y="-231.5" font-family="sans" font-size="10.00" fill="#000000">references_exomedepth_bam_list_male</text>
</g>
<!-- 3&#45;&gt;2 -->
<g id="edge5" class="edge">
<title>3&#45;&gt;2</title>
<path fill="none" stroke="#c0c0c0" stroke-width="2" d="M135.524,-215.8314C150.4891,-206.6221 168.8386,-195.3301 184.8603,-185.4706"/>
<polygon fill="#c0c0c0" stroke="#c0c0c0" stroke-width="2" points="186.8032,-188.3847 193.4854,-180.1628 183.1345,-182.423 186.8032,-188.3847"/>
</g>
<!-- 4 -->
<g id="node5" class="node">
<title>4</title>
<path fill="none" stroke="#5692d8" stroke-width="2" d="M679,-324C679,-324 563,-324 563,-324 557,-324 551,-318 551,-312 551,-312 551,-300 551,-300 551,-294 557,-288 563,-288 563,-288 679,-288 679,-288 685,-288 691,-294 691,-300 691,-300 691,-312 691,-312 691,-318 685,-324 679,-324"/>
<text text-anchor="middle" x="621" y="-303.5" font-family="sans" font-size="10.00" fill="#000000">alignment_samtools_sort</text>
</g>
<!-- 4&#45;&gt;2 -->
<g id="edge6" class="edge">
<title>4&#45;&gt;2</title>
<path fill="none" stroke="#c0c0c0" stroke-width="2" d="M550.8295,-301.1996C465.6623,-294.2735 328.0806,-279.2174 285,-252 261.5976,-237.2149 244.7325,-210.0511 234.5543,-189.4198"/>
<polygon fill="#c0c0c0" stroke="#c0c0c0" stroke-width="2" points="237.6377,-187.7514 230.2222,-180.1843 231.3002,-190.7241 237.6377,-187.7514"/>
</g>
<!-- 4&#45;&gt;3 -->
<g id="edge8" class="edge">
<title>4&#45;&gt;3</title>
<path fill="none" stroke="#c0c0c0" stroke-width="2" d="M550.6791,-296.6676C471.6562,-286.115 339.5618,-268.2789 226,-252 224.8791,-251.8393 223.7524,-251.6775 222.6207,-251.5145"/>
<polygon fill="#c0c0c0" stroke="#c0c0c0" stroke-width="2" points="222.7154,-247.9918 212.317,-250.0226 221.7122,-254.9196 222.7154,-247.9918"/>
</g>
<!-- 7 -->
<g id="node8" class="node">
<title>7</title>
<path fill="none" stroke="#d89c56" stroke-width="2" d="M976,-180C976,-180 812,-180 812,-180 806,-180 800,-174 800,-168 800,-168 800,-156 800,-156 800,-150 806,-144 812,-144 812,-144 976,-144 976,-144 982,-144 988,-150 988,-156 988,-156 988,-168 988,-168 988,-174 982,-180 976,-180"/>
<text text-anchor="middle" x="894" y="-159.5" font-family="sans" font-size="10.00" fill="#000000">alignment_samtools_extract_reads</text>
</g>
<!-- 4&#45;&gt;7 -->
<g id="edge13" class="edge">
<title>4&#45;&gt;7</title>
<path fill="none" stroke="#c0c0c0" stroke-width="2" d="M691.3454,-299.0121C781.15,-289.3702 926.9114,-271.0113 943,-252 959.5377,-232.458 942.0016,-206.4488 923.4724,-187.4174"/>
<polygon fill="#c0c0c0" stroke="#c0c0c0" stroke-width="2" points="925.7191,-184.7195 916.1184,-180.2388 920.8295,-189.7286 925.7191,-184.7195"/>
</g>
<!-- 11 -->
<g id="node12" class="node">
<title>11</title>
<path fill="none" stroke="#565bd8" stroke-width="2" d="M683.5,-252C683.5,-252 558.5,-252 558.5,-252 552.5,-252 546.5,-246 546.5,-240 546.5,-240 546.5,-228 546.5,-228 546.5,-222 552.5,-216 558.5,-216 558.5,-216 683.5,-216 683.5,-216 689.5,-216 695.5,-222 695.5,-228 695.5,-228 695.5,-240 695.5,-240 695.5,-246 689.5,-252 683.5,-252"/>
<text text-anchor="middle" x="621" y="-231.5" font-family="sans" font-size="10.00" fill="#000000">alignment_samtools_index</text>
</g>
<!-- 4&#45;&gt;11 -->
<g id="edge17" class="edge">
<title>4&#45;&gt;11</title>
<path fill="none" stroke="#c0c0c0" stroke-width="2" d="M621,-287.8314C621,-280.131 621,-270.9743 621,-262.4166"/>
<polygon fill="#c0c0c0" stroke="#c0c0c0" stroke-width="2" points="624.5001,-262.4132 621,-252.4133 617.5001,-262.4133 624.5001,-262.4132"/>
</g>
<!-- 13 -->
<g id="node14" class="node">
<title>13</title>
<path fill="none" stroke="#d8d356" stroke-width="2" d="M564.5,-180C564.5,-180 361.5,-180 361.5,-180 355.5,-180 349.5,-174 349.5,-168 349.5,-168 349.5,-156 349.5,-156 349.5,-150 355.5,-144 361.5,-144 361.5,-144 564.5,-144 564.5,-144 570.5,-144 576.5,-150 576.5,-156 576.5,-156 576.5,-168 576.5,-168 576.5,-174 570.5,-180 564.5,-180"/>
<text text-anchor="middle" x="463" y="-159.5" font-family="sans" font-size="10.00" fill="#000000">references_exomedepth_reference_female</text>
</g>
<!-- 4&#45;&gt;13 -->
<g id="edge19" class="edge">
<title>4&#45;&gt;13</title>
<path fill="none" stroke="#c0c0c0" stroke-width="2" d="M550.9896,-299.1254C460.6952,-289.5413 313.2415,-271.1724 297,-252 269.7843,-219.8729 311.6615,-197.3286 360.153,-182.8384"/>
<polygon fill="#c0c0c0" stroke="#c0c0c0" stroke-width="2" points="361.2675,-186.1601 369.921,-180.0473 359.3442,-179.4295 361.2675,-186.1601"/>
</g>
<!-- 14 -->
<g id="node15" class="node">
<title>14</title>
<path fill="none" stroke="#70d856" stroke-width="2" d="M516,-252C516,-252 318,-252 318,-252 312,-252 306,-246 306,-240 306,-240 306,-228 306,-228 306,-222 312,-216 318,-216 318,-216 516,-216 516,-216 522,-216 528,-222 528,-228 528,-228 528,-240 528,-240 528,-246 522,-252 516,-252"/>
<text text-anchor="middle" x="417" y="-231.5" font-family="sans" font-size="10.00" fill="#000000">references_exomedepth_bam_list_female</text>
</g>
<!-- 4&#45;&gt;14 -->
<g id="edge22" class="edge">
<title>4&#45;&gt;14</title>
<path fill="none" stroke="#c0c0c0" stroke-width="2" d="M569.7855,-287.9243C541.8975,-278.0815 507.2094,-265.8386 477.9373,-255.5073"/>
<polygon fill="#c0c0c0" stroke="#c0c0c0" stroke-width="2" points="478.8304,-252.1109 468.2356,-252.0831 476.5006,-258.7119 478.8304,-252.1109"/>
</g>
<!-- 16 -->
<g id="node17" class="node">
<title>16</title>
<path fill="none" stroke="#56d892" stroke-width="2" d="M769.5,-180C769.5,-180 606.5,-180 606.5,-180 600.5,-180 594.5,-174 594.5,-168 594.5,-168 594.5,-156 594.5,-156 594.5,-150 600.5,-144 606.5,-144 606.5,-144 769.5,-144 769.5,-144 775.5,-144 781.5,-150 781.5,-156 781.5,-156 781.5,-168 781.5,-168 781.5,-174 775.5,-180 769.5,-180"/>
<text text-anchor="middle" x="688" y="-159.5" font-family="sans" font-size="10.00" fill="#000000">references_exomedepth_reference</text>
</g>
<!-- 4&#45;&gt;16 -->
<g id="edge25" class="edge">
<title>4&#45;&gt;16</title>
<path fill="none" stroke="#c0c0c0" stroke-width="2" d="M665.4569,-287.8691C680.4726,-279.346 695.5576,-267.5645 704,-252 714.4547,-232.7256 708.9635,-208.04 701.6935,-189.3989"/>
<polygon fill="#c0c0c0" stroke="#c0c0c0" stroke-width="2" points="704.8272,-187.8247 697.6837,-180.0003 698.3887,-190.5717 704.8272,-187.8247"/>
</g>
<!-- 17 -->
<g id="node18" class="node">
<title>17</title>
<path fill="none" stroke="#88d856" stroke-width="2" d="M922,-252C922,-252 764,-252 764,-252 758,-252 752,-246 752,-240 752,-240 752,-228 752,-228 752,-222 758,-216 764,-216 764,-216 922,-216 922,-216 928,-216 934,-222 934,-228 934,-228 934,-240 934,-240 934,-246 928,-252 922,-252"/>
<text text-anchor="middle" x="843" y="-231.5" font-family="sans" font-size="10.00" fill="#000000">references_exomedepth_bam_list</text>
</g>
<!-- 4&#45;&gt;17 -->
<g id="edge27" class="edge">
<title>4&#45;&gt;17</title>
<path fill="none" stroke="#c0c0c0" stroke-width="2" d="M676.7334,-287.9243C707.346,-277.9959 745.4881,-265.6255 777.5155,-255.2382"/>
<polygon fill="#c0c0c0" stroke="#c0c0c0" stroke-width="2" points="778.8112,-258.4975 787.2436,-252.0831 776.6516,-251.839 778.8112,-258.4975"/>
</g>
<!-- 5 -->
<g id="node6" class="node">
<title>5</title>
<path fill="none" stroke="#56d87b" stroke-width="2" d="M1033,-36C1033,-36 877,-36 877,-36 871,-36 865,-30 865,-24 865,-24 865,-12 865,-12 865,-6 871,0 877,0 877,0 1033,0 1033,0 1039,0 1045,-6 1045,-12 1045,-12 1045,-24 1045,-24 1045,-30 1039,-36 1033,-36"/>
<text text-anchor="middle" x="955" y="-15.5" font-family="sans" font-size="10.00" fill="#000000">alignment_samtools_merge_bam</text>
</g>
<!-- 5&#45;&gt;4 -->
<g id="edge10" class="edge">
<title>5&#45;&gt;4</title>
<path fill="none" stroke="#c0c0c0" stroke-width="2" d="M974.05,-36.1141C982.857,-45.8115 992.3746,-58.5192 997,-72 1023.4771,-149.1684 1026.8103,-203.7817 961,-252 920.7692,-281.4766 788.4922,-295.4704 701.2812,-301.641"/>
<polygon fill="#c0c0c0" stroke="#c0c0c0" stroke-width="2" points="700.8791,-298.1603 691.1425,-302.3376 701.359,-305.1438 700.8791,-298.1603"/>
</g>
<!-- 6 -->
<g id="node7" class="node">
<title>6</title>
<path fill="none" stroke="#d89c56" stroke-width="2" d="M976,-108C976,-108 812,-108 812,-108 806,-108 800,-102 800,-96 800,-96 800,-84 800,-84 800,-78 806,-72 812,-72 812,-72 976,-72 976,-72 982,-72 988,-78 988,-84 988,-84 988,-96 988,-96 988,-102 982,-108 976,-108"/>
<text text-anchor="middle" x="894" y="-87.5" font-family="sans" font-size="10.00" fill="#000000">alignment_picard_mark_duplicates</text>
</g>
<!-- 6&#45;&gt;5 -->
<g id="edge11" class="edge">
<title>6&#45;&gt;5</title>
<path fill="none" stroke="#c0c0c0" stroke-width="2" d="M909.3929,-71.8314C916.4904,-63.454 925.048,-53.3531 932.824,-44.1749"/>
<polygon fill="#c0c0c0" stroke="#c0c0c0" stroke-width="2" points="935.6061,-46.3056 939.3999,-36.4133 930.2652,-41.7807 935.6061,-46.3056"/>
</g>
<!-- 7&#45;&gt;6 -->
<g id="edge12" class="edge">
<title>7&#45;&gt;6</title>
<path fill="none" stroke="#c0c0c0" stroke-width="2" d="M894,-143.8314C894,-136.131 894,-126.9743 894,-118.4166"/>
<polygon fill="#c0c0c0" stroke="#c0c0c0" stroke-width="2" points="897.5001,-118.4132 894,-108.4133 890.5001,-118.4133 897.5001,-118.4132"/>
</g>
<!-- 8 -->
<g id="node9" class="node">
<title>8</title>
<path fill="none" stroke="#8fd856" stroke-width="2" d="M688.5,-396C688.5,-396 553.5,-396 553.5,-396 547.5,-396 541.5,-390 541.5,-384 541.5,-384 541.5,-372 541.5,-372 541.5,-366 547.5,-360 553.5,-360 553.5,-360 688.5,-360 688.5,-360 694.5,-360 700.5,-366 700.5,-372 700.5,-372 700.5,-384 700.5,-384 700.5,-390 694.5,-396 688.5,-396"/>
<text text-anchor="middle" x="621" y="-375.5" font-family="sans" font-size="10.00" fill="#000000">alignment_bwa_mem_merge</text>
</g>
<!-- 8&#45;&gt;4 -->
<g id="edge9" class="edge">
<title>8&#45;&gt;4</title>
<path fill="none" stroke="#c0c0c0" stroke-width="2" d="M621,-359.8314C621,-352.131 621,-342.9743 621,-334.4166"/>
<polygon fill="#c0c0c0" stroke="#c0c0c0" stroke-width="2" points="624.5001,-334.4132 621,-324.4133 617.5001,-334.4133 624.5001,-334.4132"/>
</g>
<!-- 9 -->
<g id="node10" class="node">
<title>9</title>
<path fill="none" stroke="#bed856" stroke-width="2" d="M670,-468C670,-468 572,-468 572,-468 566,-468 560,-462 560,-456 560,-456 560,-444 560,-444 560,-438 566,-432 572,-432 572,-432 670,-432 670,-432 676,-432 682,-438 682,-444 682,-444 682,-456 682,-456 682,-462 676,-468 670,-468"/>
<text text-anchor="middle" x="621" y="-447.5" font-family="sans" font-size="10.00" fill="#000000">alignment_bwa_mem</text>
</g>
<!-- 9&#45;&gt;8 -->
<g id="edge15" class="edge">
<title>9&#45;&gt;8</title>
<path fill="none" stroke="#c0c0c0" stroke-width="2" d="M621,-431.8314C621,-424.131 621,-414.9743 621,-406.4166"/>
<polygon fill="#c0c0c0" stroke="#c0c0c0" stroke-width="2" points="624.5001,-406.4132 621,-396.4133 617.5001,-406.4133 624.5001,-406.4132"/>
</g>
<!-- 10 -->
<g id="node11" class="node">
<title>10</title>
<path fill="none" stroke="#56c1d8" stroke-width="2" d="M673.5,-540C673.5,-540 568.5,-540 568.5,-540 562.5,-540 556.5,-534 556.5,-528 556.5,-528 556.5,-516 556.5,-516 556.5,-510 562.5,-504 568.5,-504 568.5,-504 673.5,-504 673.5,-504 679.5,-504 685.5,-510 685.5,-516 685.5,-516 685.5,-528 685.5,-528 685.5,-534 679.5,-540 673.5,-540"/>
<text text-anchor="middle" x="621" y="-519.5" font-family="sans" font-size="10.00" fill="#000000">prealignment_fastp_pe</text>
</g>
<!-- 10&#45;&gt;9 -->
<g id="edge16" class="edge">
<title>10&#45;&gt;9</title>
<path fill="none" stroke="#c0c0c0" stroke-width="2" d="M621,-503.8314C621,-496.131 621,-486.9743 621,-478.4166"/>
<polygon fill="#c0c0c0" stroke="#c0c0c0" stroke-width="2" points="624.5001,-478.4132 621,-468.4133 617.5001,-478.4133 624.5001,-478.4132"/>
</g>
<!-- 11&#45;&gt;2 -->
<g id="edge7" class="edge">
<title>11&#45;&gt;2</title>
<path fill="none" stroke="#c0c0c0" stroke-width="2" d="M546.3772,-217.8443C543.2112,-217.2111 540.0752,-216.5937 537,-216 472.6951,-203.5861 400.7054,-191.1041 341.8947,-181.2724"/>
<polygon fill="#c0c0c0" stroke="#c0c0c0" stroke-width="2" points="342.2638,-177.7857 331.8243,-179.5932 341.1124,-184.6904 342.2638,-177.7857"/>
</g>
<!-- 11&#45;&gt;7 -->
<g id="edge14" class="edge">
<title>11&#45;&gt;7</title>
<path fill="none" stroke="#c0c0c0" stroke-width="2" d="M689.537,-215.9243C727.9125,-205.8033 775.9097,-193.1447 815.755,-182.6361"/>
<polygon fill="#c0c0c0" stroke="#c0c0c0" stroke-width="2" points="816.658,-186.0177 825.4348,-180.0831 814.8728,-179.2491 816.658,-186.0177"/>
</g>
<!-- 11&#45;&gt;13 -->
<g id="edge20" class="edge">
<title>11&#45;&gt;13</title>
<path fill="none" stroke="#c0c0c0" stroke-width="2" d="M581.1299,-215.8314C560.0923,-206.2446 534.1017,-194.4008 511.8604,-184.2655"/>
<polygon fill="#c0c0c0" stroke="#c0c0c0" stroke-width="2" points="513.1345,-180.9999 502.5834,-180.038 510.2317,-187.3697 513.1345,-180.9999"/>
</g>
<!-- 11&#45;&gt;16 -->
<g id="edge26" class="edge">
<title>11&#45;&gt;16</title>
<path fill="none" stroke="#c0c0c0" stroke-width="2" d="M637.9069,-215.8314C645.7813,-207.3694 655.292,-197.1489 663.9013,-187.8971"/>
<polygon fill="#c0c0c0" stroke="#c0c0c0" stroke-width="2" points="666.6153,-190.1183 670.8654,-180.4133 661.4908,-185.3497 666.6153,-190.1183"/>
</g>
<!-- 12 -->
<g id="node13" class="node">
<title>12</title>
<path fill="none" stroke="#97d856" stroke-width="2" d="M536,-108C536,-108 390,-108 390,-108 384,-108 378,-102 378,-96 378,-96 378,-84 378,-84 378,-78 384,-72 390,-72 390,-72 536,-72 536,-72 542,-72 548,-78 548,-84 548,-84 548,-96 548,-96 548,-102 542,-108 536,-108"/>
<text text-anchor="middle" x="463" y="-87.5" font-family="sans" font-size="10.00" fill="#000000">_copy_exomedepth_female_ref</text>
</g>
<!-- 12&#45;&gt;0 -->
<g id="edge1" class="edge">
<title>12&#45;&gt;0</title>
<path fill="none" stroke="#c0c0c0" stroke-width="2" d="M463,-71.8314C463,-64.131 463,-54.9743 463,-46.4166"/>
<polygon fill="#c0c0c0" stroke="#c0c0c0" stroke-width="2" points="466.5001,-46.4132 463,-36.4133 459.5001,-46.4133 466.5001,-46.4132"/>
</g>
<!-- 13&#45;&gt;12 -->
<g id="edge18" class="edge">
<title>13&#45;&gt;12</title>
<path fill="none" stroke="#c0c0c0" stroke-width="2" d="M463,-143.8314C463,-136.131 463,-126.9743 463,-118.4166"/>
<polygon fill="#c0c0c0" stroke="#c0c0c0" stroke-width="2" points="466.5001,-118.4132 463,-108.4133 459.5001,-118.4133 466.5001,-118.4132"/>
</g>
<!-- 14&#45;&gt;13 -->
<g id="edge21" class="edge">
<title>14&#45;&gt;13</title>
<path fill="none" stroke="#c0c0c0" stroke-width="2" d="M428.6077,-215.8314C433.7978,-207.7079 440.0232,-197.9637 445.7425,-189.0118"/>
<polygon fill="#c0c0c0" stroke="#c0c0c0" stroke-width="2" points="448.8015,-190.7246 451.236,-180.4133 442.9026,-186.9559 448.8015,-190.7246"/>
</g>
<!-- 15 -->
<g id="node16" class="node">
<title>15</title>
<path fill="none" stroke="#56b9d8" stroke-width="2" d="M713.5,-108C713.5,-108 606.5,-108 606.5,-108 600.5,-108 594.5,-102 594.5,-96 594.5,-96 594.5,-84 594.5,-84 594.5,-78 600.5,-72 606.5,-72 606.5,-72 713.5,-72 713.5,-72 719.5,-72 725.5,-78 725.5,-84 725.5,-84 725.5,-96 725.5,-96 725.5,-102 719.5,-108 713.5,-108"/>
<text text-anchor="middle" x="660" y="-87.5" font-family="sans" font-size="10.00" fill="#000000">_copy_exomedepth_ref</text>
</g>
<!-- 15&#45;&gt;0 -->
<g id="edge2" class="edge">
<title>15&#45;&gt;0</title>
<path fill="none" stroke="#c0c0c0" stroke-width="2" d="M610.5429,-71.9243C576.0899,-59.3324 530.8896,-42.8124 499.6418,-31.3919"/>
<polygon fill="#c0c0c0" stroke="#c0c0c0" stroke-width="2" points="500.6118,-28.0201 490.018,-27.8746 498.2088,-34.5947 500.6118,-28.0201"/>
</g>
<!-- 16&#45;&gt;15 -->
<g id="edge23" class="edge">
<title>16&#45;&gt;15</title>
<path fill="none" stroke="#c0c0c0" stroke-width="2" d="M680.9344,-143.8314C677.874,-135.9617 674.2221,-126.5712 670.8318,-117.8533"/>
<polygon fill="#c0c0c0" stroke="#c0c0c0" stroke-width="2" points="674.0473,-116.4647 667.1607,-108.4133 667.5232,-119.0019 674.0473,-116.4647"/>
</g>
<!-- 17&#45;&gt;16 -->
<g id="edge24" class="edge">
<title>17&#45;&gt;16</title>
<path fill="none" stroke="#c0c0c0" stroke-width="2" d="M803.887,-215.8314C783.2488,-206.2446 757.7516,-194.4008 735.9327,-184.2655"/>
<polygon fill="#c0c0c0" stroke="#c0c0c0" stroke-width="2" points="737.3756,-181.0766 726.8318,-180.038 734.4266,-187.4251 737.3756,-181.0766"/>
</g>
</g>
</svg>
