<?xml version="1.0" encoding="UTF-8" standalone="no"?>
<!DOCTYPE svg PUBLIC "-//W3C//DTD SVG 1.1//EN"
 "http://www.w3.org/Graphics/SVG/1.1/DTD/svg11.dtd">
<!-- Generated by graphviz version 2.40.1 (0)
 -->
<!-- Title: snakemake_dag Pages: 1 -->
<svg width="1999pt" height="1268pt"
 viewBox="0.00 0.00 1998.50 1268.00" xmlns="http://www.w3.org/2000/svg" xmlns:xlink="http://www.w3.org/1999/xlink">
<g id="graph0" class="graph" transform="scale(1 1) rotate(0) translate(4 1264)">
<title>snakemake_dag</title>
<polygon fill="#ffffff" stroke="transparent" points="-4,4 -4,-1264 1994.5,-1264 1994.5,4 -4,4"/>
<!-- 0 -->
<g id="node1" class="node">
<title>0</title>
<path fill="none" stroke="#56a2d8" stroke-width="2" d="M640.5,-36C640.5,-36 610.5,-36 610.5,-36 604.5,-36 598.5,-30 598.5,-24 598.5,-24 598.5,-12 598.5,-12 598.5,-6 604.5,0 610.5,0 610.5,0 640.5,0 640.5,0 646.5,0 652.5,-6 652.5,-12 652.5,-12 652.5,-24 652.5,-24 652.5,-30 646.5,-36 640.5,-36"/>
<text text-anchor="middle" x="625.5" y="-15.5" font-family="sans" font-size="10.00" fill="#000000">all</text>
</g>
<!-- 1 -->
<g id="node2" class="node">
<title>1</title>
<path fill="none" stroke="#afd856" stroke-width="2" d="M699.5,-468C699.5,-468 589.5,-468 589.5,-468 583.5,-468 577.5,-462 577.5,-456 577.5,-456 577.5,-444 577.5,-444 577.5,-438 583.5,-432 589.5,-432 589.5,-432 699.5,-432 699.5,-432 705.5,-432 711.5,-438 711.5,-444 711.5,-444 711.5,-456 711.5,-456 711.5,-462 705.5,-468 699.5,-468"/>
<text text-anchor="middle" x="644.5" y="-447.5" font-family="sans" font-size="10.00" fill="#000000">_copy_exomedepth_call</text>
</g>
<!-- 1&#45;&gt;0 -->
<g id="edge10" class="edge">
<title>1&#45;&gt;0</title>
<path fill="none" stroke="#c0c0c0" stroke-width="2" d="M577.4677,-442.7215C451.8331,-427.2069 193.5,-385.6244 193.5,-306 193.5,-306 193.5,-306 193.5,-162 193.5,-121.1184 182.4866,-99.7579 212.5,-72 239.9078,-46.6519 491.8458,-27.0601 588.2338,-20.4322"/>
<polygon fill="#c0c0c0" stroke="#c0c0c0" stroke-width="2" points="588.6582,-23.9116 598.398,-19.7419 588.1838,-16.9277 588.6582,-23.9116"/>
</g>
<!-- 2 -->
<g id="node3" class="node">
<title>2</title>
<path fill="none" stroke="#d8b456" stroke-width="2" d="M1643.5,-1044C1643.5,-1044 1527.5,-1044 1527.5,-1044 1521.5,-1044 1515.5,-1038 1515.5,-1032 1515.5,-1032 1515.5,-1020 1515.5,-1020 1515.5,-1014 1521.5,-1008 1527.5,-1008 1527.5,-1008 1643.5,-1008 1643.5,-1008 1649.5,-1008 1655.5,-1014 1655.5,-1020 1655.5,-1020 1655.5,-1032 1655.5,-1032 1655.5,-1038 1649.5,-1044 1643.5,-1044"/>
<text text-anchor="middle" x="1585.5" y="-1023.5" font-family="sans" font-size="10.00" fill="#000000">alignment_samtools_sort</text>
</g>
<!-- 5 -->
<g id="node6" class="node">
<title>5</title>
<path fill="none" stroke="#56d8a2" stroke-width="2" d="M1526.5,-972C1526.5,-972 1362.5,-972 1362.5,-972 1356.5,-972 1350.5,-966 1350.5,-960 1350.5,-960 1350.5,-948 1350.5,-948 1350.5,-942 1356.5,-936 1362.5,-936 1362.5,-936 1526.5,-936 1526.5,-936 1532.5,-936 1538.5,-942 1538.5,-948 1538.5,-948 1538.5,-960 1538.5,-960 1538.5,-966 1532.5,-972 1526.5,-972"/>
<text text-anchor="middle" x="1444.5" y="-951.5" font-family="sans" font-size="10.00" fill="#000000">alignment_samtools_extract_reads</text>
</g>
<!-- 2&#45;&gt;5 -->
<g id="edge22" class="edge">
<title>2&#45;&gt;5</title>
<path fill="none" stroke="#c0c0c0" stroke-width="2" d="M1549.9197,-1007.8314C1531.4675,-998.4089 1508.7455,-986.8062 1489.127,-976.7883"/>
<polygon fill="#c0c0c0" stroke="#c0c0c0" stroke-width="2" points="1490.5667,-973.5935 1480.0689,-972.1628 1487.3832,-979.8278 1490.5667,-973.5935"/>
</g>
<!-- 9 -->
<g id="node10" class="node">
<title>9</title>
<path fill="none" stroke="#d8c356" stroke-width="2" d="M1366,-828C1366,-828 1241,-828 1241,-828 1235,-828 1229,-822 1229,-816 1229,-816 1229,-804 1229,-804 1229,-798 1235,-792 1241,-792 1241,-792 1366,-792 1366,-792 1372,-792 1378,-798 1378,-804 1378,-804 1378,-816 1378,-816 1378,-822 1372,-828 1366,-828"/>
<text text-anchor="middle" x="1303.5" y="-807.5" font-family="sans" font-size="10.00" fill="#000000">alignment_samtools_index</text>
</g>
<!-- 2&#45;&gt;9 -->
<g id="edge26" class="edge">
<title>2&#45;&gt;9</title>
<path fill="none" stroke="#c0c0c0" stroke-width="2" d="M1515.4886,-1020.1156C1464.8748,-1013.6283 1396.0862,-1000.0934 1341.5,-972 1298.9673,-950.1101 1280.9612,-943.6974 1261.5,-900 1254.9906,-885.384 1256.3074,-879.134 1261.5,-864 1264.969,-853.8894 1271.1899,-844.2137 1277.799,-835.9166"/>
<polygon fill="#c0c0c0" stroke="#c0c0c0" stroke-width="2" points="1280.6265,-837.9949 1284.45,-828.1141 1275.2992,-833.4539 1280.6265,-837.9949"/>
</g>
<!-- 28 -->
<g id="node29" class="node">
<title>28</title>
<path fill="none" stroke="#566bd8" stroke-width="2" d="M772,-756C772,-756 641,-756 641,-756 635,-756 629,-750 629,-744 629,-744 629,-732 629,-732 629,-726 635,-720 641,-720 641,-720 772,-720 772,-720 778,-720 784,-726 784,-732 784,-732 784,-744 784,-744 784,-750 778,-756 772,-756"/>
<text text-anchor="middle" x="706.5" y="-735.5" font-family="sans" font-size="10.00" fill="#000000">qc_mosdepth_bed_coverage</text>
</g>
<!-- 2&#45;&gt;28 -->
<g id="edge55" class="edge">
<title>2&#45;&gt;28</title>
<path fill="none" stroke="#c0c0c0" stroke-width="2" d="M1515.3324,-1022.9203C1358.2307,-1015.6305 987.9065,-996.1081 936.5,-972 836.7622,-925.226 756.4599,-815.5846 723.146,-764.7512"/>
<polygon fill="#c0c0c0" stroke="#c0c0c0" stroke-width="2" points="726.0254,-762.7583 717.6595,-756.2573 720.1454,-766.5564 726.0254,-762.7583"/>
</g>
<!-- 29 -->
<g id="node30" class="node">
<title>29</title>
<path fill="none" stroke="#78d856" stroke-width="2" d="M1100,-684C1100,-684 1029,-684 1029,-684 1023,-684 1017,-678 1017,-672 1017,-672 1017,-660 1017,-660 1017,-654 1023,-648 1029,-648 1029,-648 1100,-648 1100,-648 1106,-648 1112,-654 1112,-660 1112,-660 1112,-672 1112,-672 1112,-678 1106,-684 1100,-684"/>
<text text-anchor="middle" x="1064.5" y="-663.5" font-family="sans" font-size="10.00" fill="#000000">qc_pic_dup_met</text>
</g>
<!-- 2&#45;&gt;29 -->
<g id="edge57" class="edge">
<title>2&#45;&gt;29</title>
<path fill="none" stroke="#c0c0c0" stroke-width="2" d="M1515.2683,-1022.6272C1365.1324,-1013.4982 1026.5,-981.8411 1026.5,-882 1026.5,-882 1026.5,-882 1026.5,-810 1026.5,-768.3681 1041.5328,-722.14 1052.6881,-693.567"/>
<polygon fill="#c0c0c0" stroke="#c0c0c0" stroke-width="2" points="1055.9578,-694.817 1056.4412,-684.2332 1049.4632,-692.2055 1055.9578,-694.817"/>
</g>
<!-- 34 -->
<g id="node35" class="node">
<title>34</title>
<path fill="none" stroke="#70d856" stroke-width="2" d="M948.5,-756C948.5,-756 814.5,-756 814.5,-756 808.5,-756 802.5,-750 802.5,-744 802.5,-744 802.5,-732 802.5,-732 802.5,-726 808.5,-720 814.5,-720 814.5,-720 948.5,-720 948.5,-720 954.5,-720 960.5,-726 960.5,-732 960.5,-732 960.5,-744 960.5,-744 960.5,-750 954.5,-756 948.5,-756"/>
<text text-anchor="middle" x="881.5" y="-735.5" font-family="sans" font-size="10.00" fill="#000000">compression_samtools_view</text>
</g>
<!-- 2&#45;&gt;34 -->
<g id="edge63" class="edge">
<title>2&#45;&gt;34</title>
<path fill="none" stroke="#c0c0c0" stroke-width="2" d="M1515.2911,-1023.8974C1363.9271,-1018.7822 1017.0637,-1003.7122 974.5,-972 907.7115,-922.2391 888.8244,-816.9401 883.532,-766.329"/>
<polygon fill="#c0c0c0" stroke="#c0c0c0" stroke-width="2" points="886.9926,-765.7441 882.5731,-756.115 880.0232,-766.3985 886.9926,-765.7441"/>
</g>
<!-- 54 -->
<g id="node55" class="node">
<title>54</title>
<path fill="none" stroke="#97d856" stroke-width="2" d="M1929.5,-900C1929.5,-900 1861.5,-900 1861.5,-900 1855.5,-900 1849.5,-894 1849.5,-888 1849.5,-888 1849.5,-876 1849.5,-876 1849.5,-870 1855.5,-864 1861.5,-864 1861.5,-864 1929.5,-864 1929.5,-864 1935.5,-864 1941.5,-870 1941.5,-876 1941.5,-876 1941.5,-888 1941.5,-888 1941.5,-894 1935.5,-900 1929.5,-900"/>
<text text-anchor="middle" x="1895.5" y="-879.5" font-family="sans" font-size="10.00" fill="#000000">qc_pic_ins_size</text>
</g>
<!-- 2&#45;&gt;54 -->
<g id="edge93" class="edge">
<title>2&#45;&gt;54</title>
<path fill="none" stroke="#c0c0c0" stroke-width="2" d="M1655.9376,-1016.1744C1697.7034,-1008.3307 1750.6719,-994.7612 1793.5,-972 1824.3812,-955.5881 1853.6653,-928.049 1872.8672,-907.7472"/>
<polygon fill="#c0c0c0" stroke="#c0c0c0" stroke-width="2" points="1875.4843,-910.0723 1879.7151,-900.3589 1870.3503,-905.3138 1875.4843,-910.0723"/>
</g>
<!-- 55 -->
<g id="node56" class="node">
<title>55</title>
<path fill="none" stroke="#56d8b1" stroke-width="2" d="M1358,-756C1358,-756 1293,-756 1293,-756 1287,-756 1281,-750 1281,-744 1281,-744 1281,-732 1281,-732 1281,-726 1287,-720 1293,-720 1293,-720 1358,-720 1358,-720 1364,-720 1370,-726 1370,-732 1370,-732 1370,-744 1370,-744 1370,-750 1364,-756 1358,-756"/>
<text text-anchor="middle" x="1325.5" y="-735.5" font-family="sans" font-size="10.00" fill="#000000">qc_pic_gc_met</text>
</g>
<!-- 2&#45;&gt;55 -->
<g id="edge95" class="edge">
<title>2&#45;&gt;55</title>
<path fill="none" stroke="#c0c0c0" stroke-width="2" d="M1592.4347,-1007.8638C1607.622,-964.7383 1638.4273,-854.9788 1585.5,-792 1557.295,-758.4386 1439.0772,-766.2875 1380.0897,-755.5887"/>
<polygon fill="#c0c0c0" stroke="#c0c0c0" stroke-width="2" points="1380.6499,-752.1292 1370.1374,-753.448 1379.1778,-758.9727 1380.6499,-752.1292"/>
</g>
<!-- 56 -->
<g id="node57" class="node">
<title>56</title>
<path fill="none" stroke="#5673d8" stroke-width="2" d="M1519,-756C1519,-756 1400,-756 1400,-756 1394,-756 1388,-750 1388,-744 1388,-744 1388,-732 1388,-732 1388,-726 1394,-720 1400,-720 1400,-720 1519,-720 1519,-720 1525,-720 1531,-726 1531,-732 1531,-732 1531,-744 1531,-744 1531,-750 1525,-756 1519,-756"/>
<text text-anchor="middle" x="1459.5" y="-735.5" font-family="sans" font-size="10.00" fill="#000000">qc_mosdepth_bed_design</text>
</g>
<!-- 2&#45;&gt;56 -->
<g id="edge97" class="edge">
<title>2&#45;&gt;56</title>
<path fill="none" stroke="#c0c0c0" stroke-width="2" d="M1600.1752,-1007.7088C1607.2046,-997.772 1614.8695,-984.9031 1618.5,-972 1640.1679,-894.9902 1665.0933,-857.0313 1618.5,-792 1608.6484,-778.2499 1575.0567,-765.8696 1541.2721,-756.4427"/>
<polygon fill="#c0c0c0" stroke="#c0c0c0" stroke-width="2" points="1541.8513,-752.9736 1531.2842,-753.7389 1540.0222,-759.7304 1541.8513,-752.9736"/>
</g>
<!-- 57 -->
<g id="node58" class="node">
<title>57</title>
<path fill="none" stroke="#88d856" stroke-width="2" d="M1626,-756C1626,-756 1561,-756 1561,-756 1555,-756 1549,-750 1549,-744 1549,-744 1549,-732 1549,-732 1549,-726 1555,-720 1561,-720 1561,-720 1626,-720 1626,-720 1632,-720 1638,-726 1638,-732 1638,-732 1638,-744 1638,-744 1638,-750 1632,-756 1626,-756"/>
<text text-anchor="middle" x="1593.5" y="-735.5" font-family="sans" font-size="10.00" fill="#000000">qc_pic_hs_met</text>
</g>
<!-- 2&#45;&gt;57 -->
<g id="edge99" class="edge">
<title>2&#45;&gt;57</title>
<path fill="none" stroke="#c0c0c0" stroke-width="2" d="M1621.4291,-1007.9923C1635.0172,-999.158 1649.0017,-987.1235 1656.5,-972 1692.0362,-900.3259 1689.9285,-864.681 1656.5,-792 1651.233,-780.5483 1642.2065,-770.6164 1632.6058,-762.5032"/>
<polygon fill="#c0c0c0" stroke="#c0c0c0" stroke-width="2" points="1634.5034,-759.5433 1624.4761,-756.1224 1630.1815,-765.0498 1634.5034,-759.5433"/>
</g>
<!-- 58 -->
<g id="node59" class="node">
<title>58</title>
<path fill="none" stroke="#56d8c9" stroke-width="2" d="M1772.5,-756C1772.5,-756 1668.5,-756 1668.5,-756 1662.5,-756 1656.5,-750 1656.5,-744 1656.5,-744 1656.5,-732 1656.5,-732 1656.5,-726 1662.5,-720 1668.5,-720 1668.5,-720 1772.5,-720 1772.5,-720 1778.5,-720 1784.5,-726 1784.5,-732 1784.5,-732 1784.5,-744 1784.5,-744 1784.5,-750 1778.5,-756 1772.5,-756"/>
<text text-anchor="middle" x="1720.5" y="-735.5" font-family="sans" font-size="10.00" fill="#000000">qc_pic_align_sum_met</text>
</g>
<!-- 2&#45;&gt;58 -->
<g id="edge101" class="edge">
<title>2&#45;&gt;58</title>
<path fill="none" stroke="#c0c0c0" stroke-width="2" d="M1632.0796,-1007.8042C1648.6112,-999.2239 1665.9587,-987.4205 1677.5,-972 1723.7674,-910.1814 1725.3923,-813.8696 1722.9018,-766.4041"/>
<polygon fill="#c0c0c0" stroke="#c0c0c0" stroke-width="2" points="1726.3836,-766.0019 1722.2641,-756.2407 1719.3973,-766.4403 1726.3836,-766.0019"/>
</g>
<!-- 60 -->
<g id="node61" class="node">
<title>60</title>
<path fill="none" stroke="#56d8a2" stroke-width="2" d="M1962,-972C1962,-972 1879,-972 1879,-972 1873,-972 1867,-966 1867,-960 1867,-960 1867,-948 1867,-948 1867,-942 1873,-936 1879,-936 1879,-936 1962,-936 1962,-936 1968,-936 1974,-942 1974,-948 1974,-948 1974,-960 1974,-960 1974,-966 1968,-972 1962,-972"/>
<text text-anchor="middle" x="1920.5" y="-951.5" font-family="sans" font-size="10.00" fill="#000000">qc_samtools_stats</text>
</g>
<!-- 2&#45;&gt;60 -->
<g id="edge102" class="edge">
<title>2&#45;&gt;60</title>
<path fill="none" stroke="#c0c0c0" stroke-width="2" d="M1655.6989,-1012.0288C1708.0919,-1001.4537 1781.3902,-986.3472 1845.5,-972 1849.2875,-971.1524 1853.1788,-970.266 1857.1017,-969.3604"/>
<polygon fill="#c0c0c0" stroke="#c0c0c0" stroke-width="2" points="1857.9334,-972.7605 1866.8775,-967.0812 1856.344,-965.9433 1857.9334,-972.7605"/>
</g>
<!-- 61 -->
<g id="node62" class="node">
<title>61</title>
<path fill="none" stroke="#d86656" stroke-width="2" d="M1912.5,-756C1912.5,-756 1814.5,-756 1814.5,-756 1808.5,-756 1802.5,-750 1802.5,-744 1802.5,-744 1802.5,-732 1802.5,-732 1802.5,-726 1808.5,-720 1814.5,-720 1814.5,-720 1912.5,-720 1912.5,-720 1918.5,-720 1924.5,-726 1924.5,-732 1924.5,-732 1924.5,-744 1924.5,-744 1924.5,-750 1918.5,-756 1912.5,-756"/>
<text text-anchor="middle" x="1863.5" y="-735.5" font-family="sans" font-size="10.00" fill="#000000">qc_samtools_idxstats</text>
</g>
<!-- 2&#45;&gt;61 -->
<g id="edge104" class="edge">
<title>2&#45;&gt;61</title>
<path fill="none" stroke="#c0c0c0" stroke-width="2" d="M1638.6893,-1007.8793C1659.4096,-999.1466 1682.4596,-987.2164 1700.5,-972 1772.0199,-911.6756 1826.7734,-812.8973 1850.5401,-765.3123"/>
<polygon fill="#c0c0c0" stroke="#c0c0c0" stroke-width="2" points="1853.7316,-766.7536 1855.0063,-756.2357 1847.4508,-763.663 1853.7316,-766.7536"/>
</g>
<!-- 64 -->
<g id="node65" class="node">
<title>64</title>
<path fill="none" stroke="#56c1d8" stroke-width="2" d="M1012.5,-612C1012.5,-612 896.5,-612 896.5,-612 890.5,-612 884.5,-606 884.5,-600 884.5,-600 884.5,-588 884.5,-588 884.5,-582 890.5,-576 896.5,-576 896.5,-576 1012.5,-576 1012.5,-576 1018.5,-576 1024.5,-582 1024.5,-588 1024.5,-588 1024.5,-600 1024.5,-600 1024.5,-606 1018.5,-612 1012.5,-612"/>
<text text-anchor="middle" x="954.5" y="-591.5" font-family="sans" font-size="10.00" fill="#000000">cnv_sv_exomedepth_call</text>
</g>
<!-- 2&#45;&gt;64 -->
<g id="edge110" class="edge">
<title>2&#45;&gt;64</title>
<path fill="none" stroke="#c0c0c0" stroke-width="2" d="M1515.4969,-1024.8275C1393.0494,-1021.7718 1145.7468,-1010.8389 1069.5,-972 1021.5482,-947.5741 988.5,-935.8145 988.5,-882 988.5,-882 988.5,-882 988.5,-738 988.5,-696.8199 975.1668,-650.7455 965.1995,-622.0555"/>
<polygon fill="#c0c0c0" stroke="#c0c0c0" stroke-width="2" points="968.3773,-620.5477 961.7105,-612.3133 961.7871,-622.9079 968.3773,-620.5477"/>
</g>
<!-- 3 -->
<g id="node4" class="node">
<title>3</title>
<path fill="none" stroke="#5673d8" stroke-width="2" d="M1564.5,-828C1564.5,-828 1408.5,-828 1408.5,-828 1402.5,-828 1396.5,-822 1396.5,-816 1396.5,-816 1396.5,-804 1396.5,-804 1396.5,-798 1402.5,-792 1408.5,-792 1408.5,-792 1564.5,-792 1564.5,-792 1570.5,-792 1576.5,-798 1576.5,-804 1576.5,-804 1576.5,-816 1576.5,-816 1576.5,-822 1570.5,-828 1564.5,-828"/>
<text text-anchor="middle" x="1486.5" y="-807.5" font-family="sans" font-size="10.00" fill="#000000">alignment_samtools_merge_bam</text>
</g>
<!-- 3&#45;&gt;2 -->
<g id="edge17" class="edge">
<title>3&#45;&gt;2</title>
<path fill="none" stroke="#c0c0c0" stroke-width="2" d="M1495.687,-828.2238C1507.8926,-852.6022 1529.9559,-897.2556 1547.5,-936 1556.9449,-956.8581 1566.9958,-980.7457 1574.3871,-998.6671"/>
<polygon fill="#c0c0c0" stroke="#c0c0c0" stroke-width="2" points="1571.1635,-1000.0309 1578.199,-1007.9525 1577.639,-997.3725 1571.1635,-1000.0309"/>
</g>
<!-- 4 -->
<g id="node5" class="node">
<title>4</title>
<path fill="none" stroke="#61d856" stroke-width="2" d="M1446.5,-900C1446.5,-900 1282.5,-900 1282.5,-900 1276.5,-900 1270.5,-894 1270.5,-888 1270.5,-888 1270.5,-876 1270.5,-876 1270.5,-870 1276.5,-864 1282.5,-864 1282.5,-864 1446.5,-864 1446.5,-864 1452.5,-864 1458.5,-870 1458.5,-876 1458.5,-876 1458.5,-888 1458.5,-888 1458.5,-894 1452.5,-900 1446.5,-900"/>
<text text-anchor="middle" x="1364.5" y="-879.5" font-family="sans" font-size="10.00" fill="#000000">alignment_picard_mark_duplicates</text>
</g>
<!-- 4&#45;&gt;3 -->
<g id="edge19" class="edge">
<title>4&#45;&gt;3</title>
<path fill="none" stroke="#c0c0c0" stroke-width="2" d="M1395.2858,-863.8314C1410.8903,-854.6221 1430.024,-843.3301 1446.7303,-833.4706"/>
<polygon fill="#c0c0c0" stroke="#c0c0c0" stroke-width="2" points="1448.8909,-836.2596 1455.7241,-828.1628 1445.3331,-830.2312 1448.8909,-836.2596"/>
</g>
<!-- 4&#45;&gt;9 -->
<g id="edge25" class="edge">
<title>4&#45;&gt;9</title>
<path fill="none" stroke="#c0c0c0" stroke-width="2" d="M1349.1071,-863.8314C1342.0096,-855.454 1333.452,-845.3531 1325.676,-836.1749"/>
<polygon fill="#c0c0c0" stroke="#c0c0c0" stroke-width="2" points="1328.2348,-833.7807 1319.1001,-828.4133 1322.8939,-838.3056 1328.2348,-833.7807"/>
</g>
<!-- 15 -->
<g id="node16" class="node">
<title>15</title>
<path fill="none" stroke="#d8bc56" stroke-width="2" d="M1174.5,-756C1174.5,-756 1066.5,-756 1066.5,-756 1060.5,-756 1054.5,-750 1054.5,-744 1054.5,-744 1054.5,-732 1054.5,-732 1054.5,-726 1060.5,-720 1066.5,-720 1066.5,-720 1174.5,-720 1174.5,-720 1180.5,-720 1186.5,-726 1186.5,-732 1186.5,-732 1186.5,-744 1186.5,-744 1186.5,-750 1180.5,-756 1174.5,-756"/>
<text text-anchor="middle" x="1120.5" y="-735.5" font-family="sans" font-size="10.00" fill="#000000">snv_indels_deepvariant</text>
</g>
<!-- 4&#45;&gt;15 -->
<g id="edge36" class="edge">
<title>4&#45;&gt;15</title>
<path fill="none" stroke="#c0c0c0" stroke-width="2" d="M1300.38,-863.8877C1274.5169,-855.0976 1245.0518,-843.1237 1220.5,-828 1200.4156,-815.6282 1198.9989,-807.8187 1181.5,-792 1170.8816,-782.4012 1159.1255,-771.9524 1148.7906,-762.8259"/>
<polygon fill="#c0c0c0" stroke="#c0c0c0" stroke-width="2" points="1151.0228,-760.1279 1141.2069,-756.1405 1146.3938,-765.3788 1151.0228,-760.1279"/>
</g>
<!-- 5&#45;&gt;4 -->
<g id="edge20" class="edge">
<title>5&#45;&gt;4</title>
<path fill="none" stroke="#c0c0c0" stroke-width="2" d="M1424.3126,-935.8314C1414.6486,-927.1337 1402.9204,-916.5783 1392.4184,-907.1265"/>
<polygon fill="#c0c0c0" stroke="#c0c0c0" stroke-width="2" points="1394.4553,-904.251 1384.6809,-900.1628 1389.7725,-909.454 1394.4553,-904.251"/>
</g>
<!-- 6 -->
<g id="node7" class="node">
<title>6</title>
<path fill="none" stroke="#a7d856" stroke-width="2" d="M1653,-1116C1653,-1116 1518,-1116 1518,-1116 1512,-1116 1506,-1110 1506,-1104 1506,-1104 1506,-1092 1506,-1092 1506,-1086 1512,-1080 1518,-1080 1518,-1080 1653,-1080 1653,-1080 1659,-1080 1665,-1086 1665,-1092 1665,-1092 1665,-1104 1665,-1104 1665,-1110 1659,-1116 1653,-1116"/>
<text text-anchor="middle" x="1585.5" y="-1095.5" font-family="sans" font-size="10.00" fill="#000000">alignment_bwa_mem_merge</text>
</g>
<!-- 6&#45;&gt;2 -->
<g id="edge18" class="edge">
<title>6&#45;&gt;2</title>
<path fill="none" stroke="#c0c0c0" stroke-width="2" d="M1585.5,-1079.8314C1585.5,-1072.131 1585.5,-1062.9743 1585.5,-1054.4166"/>
<polygon fill="#c0c0c0" stroke="#c0c0c0" stroke-width="2" points="1589.0001,-1054.4132 1585.5,-1044.4133 1582.0001,-1054.4133 1589.0001,-1054.4132"/>
</g>
<!-- 7 -->
<g id="node8" class="node">
<title>7</title>
<path fill="none" stroke="#d8a456" stroke-width="2" d="M1634.5,-1188C1634.5,-1188 1536.5,-1188 1536.5,-1188 1530.5,-1188 1524.5,-1182 1524.5,-1176 1524.5,-1176 1524.5,-1164 1524.5,-1164 1524.5,-1158 1530.5,-1152 1536.5,-1152 1536.5,-1152 1634.5,-1152 1634.5,-1152 1640.5,-1152 1646.5,-1158 1646.5,-1164 1646.5,-1164 1646.5,-1176 1646.5,-1176 1646.5,-1182 1640.5,-1188 1634.5,-1188"/>
<text text-anchor="middle" x="1585.5" y="-1167.5" font-family="sans" font-size="10.00" fill="#000000">alignment_bwa_mem</text>
</g>
<!-- 7&#45;&gt;6 -->
<g id="edge23" class="edge">
<title>7&#45;&gt;6</title>
<path fill="none" stroke="#c0c0c0" stroke-width="2" d="M1585.5,-1151.8314C1585.5,-1144.131 1585.5,-1134.9743 1585.5,-1126.4166"/>
<polygon fill="#c0c0c0" stroke="#c0c0c0" stroke-width="2" points="1589.0001,-1126.4132 1585.5,-1116.4133 1582.0001,-1126.4133 1589.0001,-1126.4132"/>
</g>
<!-- 8 -->
<g id="node9" class="node">
<title>8</title>
<path fill="none" stroke="#56d892" stroke-width="2" d="M1638,-1260C1638,-1260 1533,-1260 1533,-1260 1527,-1260 1521,-1254 1521,-1248 1521,-1248 1521,-1236 1521,-1236 1521,-1230 1527,-1224 1533,-1224 1533,-1224 1638,-1224 1638,-1224 1644,-1224 1650,-1230 1650,-1236 1650,-1236 1650,-1248 1650,-1248 1650,-1254 1644,-1260 1638,-1260"/>
<text text-anchor="middle" x="1585.5" y="-1239.5" font-family="sans" font-size="10.00" fill="#000000">prealignment_fastp_pe</text>
</g>
<!-- 8&#45;&gt;7 -->
<g id="edge24" class="edge">
<title>8&#45;&gt;7</title>
<path fill="none" stroke="#c0c0c0" stroke-width="2" d="M1585.5,-1223.8314C1585.5,-1216.131 1585.5,-1206.9743 1585.5,-1198.4166"/>
<polygon fill="#c0c0c0" stroke="#c0c0c0" stroke-width="2" points="1589.0001,-1198.4132 1585.5,-1188.4133 1582.0001,-1198.4133 1589.0001,-1198.4132"/>
</g>
<!-- 9&#45;&gt;5 -->
<g id="edge21" class="edge">
<title>9&#45;&gt;5</title>
<path fill="none" stroke="#c0c0c0" stroke-width="2" d="M1378.4092,-825.6825C1416.2109,-835.2739 1456.3859,-848.6393 1467.5,-864 1480.8238,-882.4145 1472.506,-907.8315 1462.3373,-926.9594"/>
<polygon fill="#c0c0c0" stroke="#c0c0c0" stroke-width="2" points="1459.215,-925.3688 1457.2834,-935.786 1465.2897,-928.847 1459.215,-925.3688"/>
</g>
<!-- 9&#45;&gt;15 -->
<g id="edge35" class="edge">
<title>9&#45;&gt;15</title>
<path fill="none" stroke="#c0c0c0" stroke-width="2" d="M1257.3214,-791.8314C1232.5199,-782.0734 1201.775,-769.977 1175.7157,-759.7242"/>
<polygon fill="#c0c0c0" stroke="#c0c0c0" stroke-width="2" points="1176.9337,-756.4423 1166.3466,-756.038 1174.3708,-762.9563 1176.9337,-756.4423"/>
</g>
<!-- 9&#45;&gt;28 -->
<g id="edge54" class="edge">
<title>9&#45;&gt;28</title>
<path fill="none" stroke="#c0c0c0" stroke-width="2" d="M1228.7428,-798.3187C1213.1515,-796.0656 1196.8052,-793.8377 1181.5,-792 1012.7405,-771.7365 966.49,-781.2149 794.1242,-755.9938"/>
<polygon fill="#c0c0c0" stroke="#c0c0c0" stroke-width="2" points="794.6162,-752.5286 784.2113,-754.5257 793.5907,-759.4531 794.6162,-752.5286"/>
</g>
<!-- 9&#45;&gt;29 -->
<g id="edge56" class="edge">
<title>9&#45;&gt;29</title>
<path fill="none" stroke="#c0c0c0" stroke-width="2" d="M1281.5192,-791.7741C1268.9178,-781.3166 1252.809,-767.9334 1238.5,-756 1219.3585,-740.0363 1216.8265,-732.9002 1195.5,-720 1172.5605,-706.1242 1145.4105,-694.276 1121.7925,-685.2438"/>
<polygon fill="#c0c0c0" stroke="#c0c0c0" stroke-width="2" points="1122.8441,-681.9003 1112.2517,-681.6729 1120.3904,-688.4562 1122.8441,-681.9003"/>
</g>
<!-- 9&#45;&gt;34 -->
<g id="edge62" class="edge">
<title>9&#45;&gt;34</title>
<path fill="none" stroke="#c0c0c0" stroke-width="2" d="M1228.5411,-797.2108C1156.4599,-784.9126 1047.4536,-766.3144 970.8869,-753.2508"/>
<polygon fill="#c0c0c0" stroke="#c0c0c0" stroke-width="2" points="971.2225,-749.7576 960.7763,-751.5258 970.0451,-756.6579 971.2225,-749.7576"/>
</g>
<!-- 9&#45;&gt;55 -->
<g id="edge94" class="edge">
<title>9&#45;&gt;55</title>
<path fill="none" stroke="#c0c0c0" stroke-width="2" d="M1309.0515,-791.8314C1311.4303,-784.0463 1314.2638,-774.7729 1316.9033,-766.1347"/>
<polygon fill="#c0c0c0" stroke="#c0c0c0" stroke-width="2" points="1320.2987,-766.9996 1319.8737,-756.4133 1313.6042,-764.954 1320.2987,-766.9996"/>
</g>
<!-- 9&#45;&gt;56 -->
<g id="edge96" class="edge">
<title>9&#45;&gt;56</title>
<path fill="none" stroke="#c0c0c0" stroke-width="2" d="M1342.8654,-791.8314C1363.6367,-782.2446 1389.2983,-770.4008 1411.2581,-760.2655"/>
<polygon fill="#c0c0c0" stroke="#c0c0c0" stroke-width="2" points="1412.8048,-763.4065 1420.4177,-756.038 1409.8714,-757.0508 1412.8048,-763.4065"/>
</g>
<!-- 9&#45;&gt;57 -->
<g id="edge98" class="edge">
<title>9&#45;&gt;57</title>
<path fill="none" stroke="#c0c0c0" stroke-width="2" d="M1378.1171,-793.8796C1431.0726,-782.287 1498.5438,-767.1736 1538.8903,-756.2905"/>
<polygon fill="#c0c0c0" stroke="#c0c0c0" stroke-width="2" points="1540.0802,-759.5928 1548.7826,-753.5497 1538.2111,-752.8469 1540.0802,-759.5928"/>
</g>
<!-- 9&#45;&gt;58 -->
<g id="edge100" class="edge">
<title>9&#45;&gt;58</title>
<path fill="none" stroke="#c0c0c0" stroke-width="2" d="M1378.0993,-793.7169C1381.2717,-793.1185 1384.4155,-792.5433 1387.5,-792 1499.2481,-772.318 1531.2006,-777.6732 1646.5587,-756.0705"/>
<polygon fill="#c0c0c0" stroke="#c0c0c0" stroke-width="2" points="1647.3183,-759.4889 1656.4891,-754.1836 1646.0115,-752.612 1647.3183,-759.4889"/>
</g>
<!-- 9&#45;&gt;61 -->
<g id="edge103" class="edge">
<title>9&#45;&gt;61</title>
<path fill="none" stroke="#c0c0c0" stroke-width="2" d="M1378.0679,-793.5249C1381.2489,-792.9791 1384.403,-792.4673 1387.5,-792 1563.3885,-765.4592 1613.1717,-785.8915 1792.1506,-756.0738"/>
<polygon fill="#c0c0c0" stroke="#c0c0c0" stroke-width="2" points="1792.8882,-759.4988 1802.1624,-754.3763 1791.718,-752.5973 1792.8882,-759.4988"/>
</g>
<!-- 9&#45;&gt;64 -->
<g id="edge108" class="edge">
<title>9&#45;&gt;64</title>
<path fill="none" stroke="#c0c0c0" stroke-width="2" d="M1291.2158,-791.7184C1277.7456,-772.4918 1254.7934,-742.0282 1230.5,-720 1187.4898,-681.0001 1173.8233,-673.1622 1121.5,-648 1094.1106,-634.8285 1062.7136,-623.7235 1034.5894,-615.0741"/>
<polygon fill="#c0c0c0" stroke="#c0c0c0" stroke-width="2" points="1035.3747,-611.6553 1024.79,-612.1178 1033.3529,-618.357 1035.3747,-611.6553"/>
</g>
<!-- 10 -->
<g id="node11" class="node">
<title>10</title>
<path fill="none" stroke="#56a2d8" stroke-width="2" d="M1203.5,-252C1203.5,-252 1087.5,-252 1087.5,-252 1081.5,-252 1075.5,-246 1075.5,-240 1075.5,-240 1075.5,-228 1075.5,-228 1075.5,-222 1081.5,-216 1087.5,-216 1087.5,-216 1203.5,-216 1203.5,-216 1209.5,-216 1215.5,-222 1215.5,-228 1215.5,-228 1215.5,-240 1215.5,-240 1215.5,-246 1209.5,-252 1203.5,-252"/>
<text text-anchor="middle" x="1145.5" y="-231.5" font-family="sans" font-size="10.00" fill="#000000">cnv_sv_exomedepth_sex</text>
</g>
<!-- 10&#45;&gt;64 -->
<g id="edge109" class="edge">
<title>10&#45;&gt;64</title>
<path fill="none" stroke="#c0c0c0" stroke-width="2" d="M1171.7563,-252.1849C1182.8422,-261.4715 1194.5458,-273.8098 1200.5,-288 1222.1689,-339.6421 1232.9963,-496.6819 1197.5,-540 1192.1643,-546.5115 1103.2792,-565.1055 1034.5407,-578.6591"/>
<polygon fill="#c0c0c0" stroke="#c0c0c0" stroke-width="2" points="1033.6952,-575.2582 1024.5574,-580.6202 1035.0446,-582.127 1033.6952,-575.2582"/>
</g>
<!-- 11 -->
<g id="node12" class="node">
<title>11</title>
<path fill="none" stroke="#56d8b9" stroke-width="2" d="M1301,-324C1301,-324 1262,-324 1262,-324 1256,-324 1250,-318 1250,-312 1250,-312 1250,-300 1250,-300 1250,-294 1256,-288 1262,-288 1262,-288 1301,-288 1301,-288 1307,-288 1313,-294 1313,-300 1313,-300 1313,-312 1313,-312 1313,-318 1307,-324 1301,-324"/>
<text text-anchor="middle" x="1281.5" y="-303.5" font-family="sans" font-size="10.00" fill="#000000">qc_peddy</text>
</g>
<!-- 11&#45;&gt;10 -->
<g id="edge27" class="edge">
<title>11&#45;&gt;10</title>
<path fill="none" stroke="#c0c0c0" stroke-width="2" d="M1249.957,-289.3008C1231.7205,-279.6461 1208.5172,-267.3621 1188.6137,-256.8249"/>
<polygon fill="#c0c0c0" stroke="#c0c0c0" stroke-width="2" points="1190.2063,-253.7078 1179.7307,-252.1222 1186.931,-259.8943 1190.2063,-253.7078"/>
</g>
<!-- 53 -->
<g id="node54" class="node">
<title>53</title>
<path fill="none" stroke="#56d8d0" stroke-width="2" d="M1604.5,-180C1604.5,-180 1558.5,-180 1558.5,-180 1552.5,-180 1546.5,-174 1546.5,-168 1546.5,-168 1546.5,-156 1546.5,-156 1546.5,-150 1552.5,-144 1558.5,-144 1558.5,-144 1604.5,-144 1604.5,-144 1610.5,-144 1616.5,-150 1616.5,-156 1616.5,-156 1616.5,-168 1616.5,-168 1616.5,-174 1610.5,-180 1604.5,-180"/>
<text text-anchor="middle" x="1581.5" y="-159.5" font-family="sans" font-size="10.00" fill="#000000">qc_multiqc</text>
</g>
<!-- 11&#45;&gt;53 -->
<g id="edge85" class="edge">
<title>11&#45;&gt;53</title>
<path fill="none" stroke="#c0c0c0" stroke-width="2" d="M1280.1219,-287.6863C1279.6631,-267.2556 1282.3347,-234.6333 1301.5,-216 1334.2498,-184.1594 1465.2656,-170.1642 1535.8695,-164.8315"/>
<polygon fill="#c0c0c0" stroke="#c0c0c0" stroke-width="2" points="1536.5237,-168.2932 1546.2437,-164.0775 1536.0162,-161.3117 1536.5237,-168.2932"/>
</g>
<!-- 62 -->
<g id="node63" class="node">
<title>62</title>
<path fill="none" stroke="#d88556" stroke-width="2" d="M1427,-252C1427,-252 1322,-252 1322,-252 1316,-252 1310,-246 1310,-240 1310,-240 1310,-228 1310,-228 1310,-222 1316,-216 1322,-216 1322,-216 1427,-216 1427,-216 1433,-216 1439,-222 1439,-228 1439,-228 1439,-240 1439,-240 1439,-246 1433,-252 1427,-252"/>
<text text-anchor="middle" x="1374.5" y="-231.5" font-family="sans" font-size="10.00" fill="#000000">create_peddy_mqc_tsv</text>
</g>
<!-- 11&#45;&gt;62 -->
<g id="edge105" class="edge">
<title>11&#45;&gt;62</title>
<path fill="none" stroke="#c0c0c0" stroke-width="2" d="M1304.9678,-287.8314C1316.5327,-278.8779 1330.6404,-267.9558 1343.1183,-258.2955"/>
<polygon fill="#c0c0c0" stroke="#c0c0c0" stroke-width="2" points="1345.275,-261.0521 1351.0397,-252.1628 1340.9898,-255.5171 1345.275,-261.0521"/>
</g>
<!-- 63 -->
<g id="node64" class="node">
<title>63</title>
<path fill="none" stroke="#78d856" stroke-width="2" d="M1319.5,-180C1319.5,-180 1235.5,-180 1235.5,-180 1229.5,-180 1223.5,-174 1223.5,-168 1223.5,-168 1223.5,-156 1223.5,-156 1223.5,-150 1229.5,-144 1235.5,-144 1235.5,-144 1319.5,-144 1319.5,-144 1325.5,-144 1331.5,-150 1331.5,-156 1331.5,-156 1331.5,-168 1331.5,-168 1331.5,-174 1325.5,-180 1319.5,-180"/>
<text text-anchor="middle" x="1277.5" y="-159.5" font-family="sans" font-size="10.00" fill="#000000">_copy_peddy_html</text>
</g>
<!-- 11&#45;&gt;63 -->
<g id="edge107" class="edge">
<title>11&#45;&gt;63</title>
<path fill="none" stroke="#c0c0c0" stroke-width="2" d="M1275.5302,-287.7319C1272.4592,-277.3756 1269.0437,-264.105 1267.5,-252 1264.8815,-231.4659 1267.6021,-208.2456 1270.8622,-190.5346"/>
<polygon fill="#c0c0c0" stroke="#c0c0c0" stroke-width="2" points="1274.3816,-190.7855 1272.919,-180.2922 1267.5186,-189.4073 1274.3816,-190.7855"/>
</g>
<!-- 12 -->
<g id="node13" class="node">
<title>12</title>
<path fill="none" stroke="#56b1d8" stroke-width="2" d="M1410.5,-468C1410.5,-468 1258.5,-468 1258.5,-468 1252.5,-468 1246.5,-462 1246.5,-456 1246.5,-456 1246.5,-444 1246.5,-444 1246.5,-438 1252.5,-432 1258.5,-432 1258.5,-432 1410.5,-432 1410.5,-432 1416.5,-432 1422.5,-438 1422.5,-444 1422.5,-444 1422.5,-456 1422.5,-456 1422.5,-462 1416.5,-468 1410.5,-468"/>
<text text-anchor="middle" x="1334.5" y="-447.5" font-family="sans" font-size="10.00" fill="#000000">snv_indels_bcftools_view_peddy</text>
</g>
<!-- 12&#45;&gt;11 -->
<g id="edge28" class="edge">
<title>12&#45;&gt;11</title>
<path fill="none" stroke="#c0c0c0" stroke-width="2" d="M1327.7875,-431.7623C1318.668,-406.9846 1302.2846,-362.4714 1291.6561,-333.5939"/>
<polygon fill="#c0c0c0" stroke="#c0c0c0" stroke-width="2" points="1294.8967,-332.2652 1288.158,-324.0896 1288.3275,-334.6831 1294.8967,-332.2652"/>
</g>
<!-- 19 -->
<g id="node20" class="node">
<title>19</title>
<path fill="none" stroke="#567bd8" stroke-width="2" d="M1015.5,-396C1015.5,-396 969.5,-396 969.5,-396 963.5,-396 957.5,-390 957.5,-384 957.5,-384 957.5,-372 957.5,-372 957.5,-366 963.5,-360 969.5,-360 969.5,-360 1015.5,-360 1015.5,-360 1021.5,-360 1027.5,-366 1027.5,-372 1027.5,-372 1027.5,-384 1027.5,-384 1027.5,-390 1021.5,-396 1015.5,-396"/>
<text text-anchor="middle" x="992.5" y="-375.5" font-family="sans" font-size="10.00" fill="#000000">misc_tabix</text>
</g>
<!-- 12&#45;&gt;19 -->
<g id="edge39" class="edge">
<title>12&#45;&gt;19</title>
<path fill="none" stroke="#c0c0c0" stroke-width="2" d="M1246.3642,-438.7134C1186.706,-429.9236 1106.499,-415.8544 1037.5,-396 1037.3989,-395.9709 1037.2978,-395.9417 1037.1965,-395.9123"/>
<polygon fill="#c0c0c0" stroke="#c0c0c0" stroke-width="2" points="1038.231,-392.5685 1027.6394,-392.8312 1036.0831,-399.2308 1038.231,-392.5685"/>
</g>
<!-- 13 -->
<g id="node14" class="node">
<title>13</title>
<path fill="none" stroke="#88d856" stroke-width="2" d="M1389,-540C1389,-540 1266,-540 1266,-540 1260,-540 1254,-534 1254,-528 1254,-528 1254,-516 1254,-516 1254,-510 1260,-504 1266,-504 1266,-504 1389,-504 1389,-504 1395,-504 1401,-510 1401,-516 1401,-516 1401,-528 1401,-528 1401,-534 1395,-540 1389,-540"/>
<text text-anchor="middle" x="1327.5" y="-519.5" font-family="sans" font-size="10.00" fill="#000000">snv_indels_glnexus_peddy</text>
</g>
<!-- 13&#45;&gt;12 -->
<g id="edge31" class="edge">
<title>13&#45;&gt;12</title>
<path fill="none" stroke="#c0c0c0" stroke-width="2" d="M1329.2664,-503.8314C1330.015,-496.131 1330.9053,-486.9743 1331.7373,-478.4166"/>
<polygon fill="#c0c0c0" stroke="#c0c0c0" stroke-width="2" points="1335.2256,-478.7051 1332.7098,-468.4133 1328.2585,-478.0276 1335.2256,-478.7051"/>
</g>
<!-- 14 -->
<g id="node15" class="node">
<title>14</title>
<path fill="none" stroke="#5692d8" stroke-width="2" d="M1203.5,-612C1203.5,-612 1077.5,-612 1077.5,-612 1071.5,-612 1065.5,-606 1065.5,-600 1065.5,-600 1065.5,-588 1065.5,-588 1065.5,-582 1071.5,-576 1077.5,-576 1077.5,-576 1203.5,-576 1203.5,-576 1209.5,-576 1215.5,-582 1215.5,-588 1215.5,-588 1215.5,-600 1215.5,-600 1215.5,-606 1209.5,-612 1203.5,-612"/>
<text text-anchor="middle" x="1140.5" y="-591.5" font-family="sans" font-size="10.00" fill="#000000">snv_indels_bcftools_concat</text>
</g>
<!-- 14&#45;&gt;13 -->
<g id="edge32" class="edge">
<title>14&#45;&gt;13</title>
<path fill="none" stroke="#c0c0c0" stroke-width="2" d="M1187.688,-575.8314C1213.0316,-566.0734 1244.4485,-553.977 1271.0774,-543.7242"/>
<polygon fill="#c0c0c0" stroke="#c0c0c0" stroke-width="2" points="1272.5768,-546.8974 1280.6513,-540.038 1270.0615,-540.3649 1272.5768,-546.8974"/>
</g>
<!-- 25 -->
<g id="node26" class="node">
<title>25</title>
<path fill="none" stroke="#56d8a9" stroke-width="2" d="M1008,-540C1008,-540 931,-540 931,-540 925,-540 919,-534 919,-528 919,-528 919,-516 919,-516 919,-510 925,-504 931,-504 931,-504 1008,-504 1008,-504 1014,-504 1020,-510 1020,-516 1020,-516 1020,-528 1020,-528 1020,-534 1014,-540 1008,-540"/>
<text text-anchor="middle" x="969.5" y="-519.5" font-family="sans" font-size="10.00" fill="#000000">snv_indels_fix_af</text>
</g>
<!-- 14&#45;&gt;25 -->
<g id="edge49" class="edge">
<title>14&#45;&gt;25</title>
<path fill="none" stroke="#c0c0c0" stroke-width="2" d="M1097.3495,-575.8314C1074.3776,-566.159 1045.9491,-554.1891 1021.7368,-543.9944"/>
<polygon fill="#c0c0c0" stroke="#c0c0c0" stroke-width="2" points="1022.9148,-540.6929 1012.3402,-540.038 1020.1984,-547.1443 1022.9148,-540.6929"/>
</g>
<!-- 49 -->
<g id="node50" class="node">
<title>49</title>
<path fill="none" stroke="#56d88a" stroke-width="2" d="M1176.5,-540C1176.5,-540 1066.5,-540 1066.5,-540 1060.5,-540 1054.5,-534 1054.5,-528 1054.5,-528 1054.5,-516 1054.5,-516 1054.5,-510 1060.5,-504 1066.5,-504 1066.5,-504 1176.5,-504 1176.5,-504 1182.5,-504 1188.5,-510 1188.5,-516 1188.5,-516 1188.5,-528 1188.5,-528 1188.5,-534 1182.5,-540 1176.5,-540"/>
<text text-anchor="middle" x="1121.5" y="-519.5" font-family="sans" font-size="10.00" fill="#000000">snv_indels_glnexus_trio</text>
</g>
<!-- 14&#45;&gt;49 -->
<g id="edge78" class="edge">
<title>14&#45;&gt;49</title>
<path fill="none" stroke="#c0c0c0" stroke-width="2" d="M1135.7055,-575.8314C1133.6511,-568.0463 1131.204,-558.7729 1128.9244,-550.1347"/>
<polygon fill="#c0c0c0" stroke="#c0c0c0" stroke-width="2" points="1132.2948,-549.1892 1126.3591,-540.4133 1125.5265,-550.9753 1132.2948,-549.1892"/>
</g>
<!-- 15&#45;&gt;14 -->
<g id="edge34" class="edge">
<title>15&#45;&gt;14</title>
<path fill="none" stroke="#c0c0c0" stroke-width="2" d="M1123.033,-719.7623C1126.4443,-695.201 1132.549,-651.2474 1136.5619,-622.3541"/>
<polygon fill="#c0c0c0" stroke="#c0c0c0" stroke-width="2" points="1140.0785,-622.4761 1137.9876,-612.0896 1133.1451,-621.513 1140.0785,-622.4761"/>
</g>
<!-- 17 -->
<g id="node18" class="node">
<title>17</title>
<path fill="none" stroke="#56c9d8" stroke-width="2" d="M1366.5,-684C1366.5,-684 1292.5,-684 1292.5,-684 1286.5,-684 1280.5,-678 1280.5,-672 1280.5,-672 1280.5,-660 1280.5,-660 1280.5,-654 1286.5,-648 1292.5,-648 1292.5,-648 1366.5,-648 1366.5,-648 1372.5,-648 1378.5,-654 1378.5,-660 1378.5,-660 1378.5,-672 1378.5,-672 1378.5,-678 1372.5,-684 1366.5,-684"/>
<text text-anchor="middle" x="1329.5" y="-663.5" font-family="sans" font-size="10.00" fill="#000000">snv_indels_tabix</text>
</g>
<!-- 15&#45;&gt;17 -->
<g id="edge38" class="edge">
<title>15&#45;&gt;17</title>
<path fill="none" stroke="#c0c0c0" stroke-width="2" d="M1172.9698,-719.9243C1202.6475,-709.7004 1239.842,-696.887 1270.5268,-686.3161"/>
<polygon fill="#c0c0c0" stroke="#c0c0c0" stroke-width="2" points="1271.9282,-689.5353 1280.2428,-682.969 1269.6481,-682.917 1271.9282,-689.5353"/>
</g>
<!-- 16 -->
<g id="node17" class="node">
<title>16</title>
<path fill="none" stroke="#c6d856" stroke-width="2" d="M1160.5,-828C1160.5,-828 1066.5,-828 1066.5,-828 1060.5,-828 1054.5,-822 1054.5,-816 1054.5,-816 1054.5,-804 1054.5,-804 1054.5,-798 1060.5,-792 1066.5,-792 1066.5,-792 1160.5,-792 1160.5,-792 1166.5,-792 1172.5,-798 1172.5,-804 1172.5,-804 1172.5,-816 1172.5,-816 1172.5,-822 1166.5,-828 1160.5,-828"/>
<text text-anchor="middle" x="1113.5" y="-807.5" font-family="sans" font-size="10.00" fill="#000000">snv_indels_bed_split</text>
</g>
<!-- 16&#45;&gt;15 -->
<g id="edge37" class="edge">
<title>16&#45;&gt;15</title>
<path fill="none" stroke="#c0c0c0" stroke-width="2" d="M1115.2664,-791.8314C1116.015,-784.131 1116.9053,-774.9743 1117.7373,-766.4166"/>
<polygon fill="#c0c0c0" stroke="#c0c0c0" stroke-width="2" points="1121.2256,-766.7051 1118.7098,-756.4133 1114.2585,-766.0276 1121.2256,-766.7051"/>
</g>
<!-- 17&#45;&gt;14 -->
<g id="edge33" class="edge">
<title>17&#45;&gt;14</title>
<path fill="none" stroke="#c0c0c0" stroke-width="2" d="M1281.8073,-647.8314C1256.1927,-638.0734 1224.4398,-625.977 1197.526,-615.7242"/>
<polygon fill="#c0c0c0" stroke="#c0c0c0" stroke-width="2" points="1198.4406,-612.3273 1187.8497,-612.038 1195.9486,-618.8687 1198.4406,-612.3273"/>
</g>
<!-- 18 -->
<g id="node19" class="node">
<title>18</title>
<path fill="none" stroke="#d87d56" stroke-width="2" d="M1387,-396C1387,-396 1340,-396 1340,-396 1334,-396 1328,-390 1328,-384 1328,-384 1328,-372 1328,-372 1328,-366 1334,-360 1340,-360 1340,-360 1387,-360 1387,-360 1393,-360 1399,-366 1399,-372 1399,-372 1399,-384 1399,-384 1399,-390 1393,-396 1387,-396"/>
<text text-anchor="middle" x="1363.5" y="-375.5" font-family="sans" font-size="10.00" fill="#000000">create_ped</text>
</g>
<!-- 18&#45;&gt;11 -->
<g id="edge30" class="edge">
<title>18&#45;&gt;11</title>
<path fill="none" stroke="#c0c0c0" stroke-width="2" d="M1342.8079,-359.8314C1332.8052,-351.0485 1320.645,-340.3712 1309.8001,-330.8489"/>
<polygon fill="#c0c0c0" stroke="#c0c0c0" stroke-width="2" points="1312.0092,-328.1308 1302.1854,-324.1628 1307.3906,-333.3909 1312.0092,-328.1308"/>
</g>
<!-- 18&#45;&gt;62 -->
<g id="edge106" class="edge">
<title>18&#45;&gt;62</title>
<path fill="none" stroke="#c0c0c0" stroke-width="2" d="M1364.8932,-359.7623C1366.7694,-335.201 1370.1269,-291.2474 1372.3341,-262.3541"/>
<polygon fill="#c0c0c0" stroke="#c0c0c0" stroke-width="2" points="1375.8462,-262.3272 1373.1182,-252.0896 1368.8666,-261.794 1375.8462,-262.3272"/>
</g>
<!-- 19&#45;&gt;11 -->
<g id="edge29" class="edge">
<title>19&#45;&gt;11</title>
<path fill="none" stroke="#c0c0c0" stroke-width="2" d="M1027.6779,-363.298C1030.9736,-362.1121 1034.2835,-360.9912 1037.5,-360 1108.3999,-338.1506 1128.066,-340.0471 1200.5,-324 1213.3734,-321.148 1227.3961,-318.0344 1240.1005,-315.2108"/>
<polygon fill="#c0c0c0" stroke="#c0c0c0" stroke-width="2" points="1240.9572,-318.6058 1249.9593,-313.019 1239.4381,-311.7726 1240.9572,-318.6058"/>
</g>
<!-- 23 -->
<g id="node24" class="node">
<title>23</title>
<path fill="none" stroke="#56b1d8" stroke-width="2" d="M909,-324C909,-324 806,-324 806,-324 800,-324 794,-318 794,-312 794,-312 794,-300 794,-300 794,-294 800,-288 806,-288 806,-288 909,-288 909,-288 915,-288 921,-294 921,-300 921,-300 921,-312 921,-312 921,-318 915,-324 909,-324"/>
<text text-anchor="middle" x="857.5" y="-303.5" font-family="sans" font-size="10.00" fill="#000000">filtering_bcftools_view</text>
</g>
<!-- 19&#45;&gt;23 -->
<g id="edge44" class="edge">
<title>19&#45;&gt;23</title>
<path fill="none" stroke="#c0c0c0" stroke-width="2" d="M958.4338,-359.8314C940.8467,-350.4516 919.2084,-338.9112 900.4832,-328.9244"/>
<polygon fill="#c0c0c0" stroke="#c0c0c0" stroke-width="2" points="902.0259,-325.7805 891.5553,-324.1628 898.7318,-331.957 902.0259,-325.7805"/>
</g>
<!-- 42 -->
<g id="node43" class="node">
<title>42</title>
<path fill="none" stroke="#56d873" stroke-width="2" d="M1047.5,-324C1047.5,-324 951.5,-324 951.5,-324 945.5,-324 939.5,-318 939.5,-312 939.5,-312 939.5,-300 939.5,-300 939.5,-294 945.5,-288 951.5,-288 951.5,-288 1047.5,-288 1047.5,-288 1053.5,-288 1059.5,-294 1059.5,-300 1059.5,-300 1059.5,-312 1059.5,-312 1059.5,-318 1053.5,-324 1047.5,-324"/>
<text text-anchor="middle" x="999.5" y="-303.5" font-family="sans" font-size="10.00" fill="#000000">_copy_snv_indels_tbi</text>
</g>
<!-- 19&#45;&gt;42 -->
<g id="edge71" class="edge">
<title>19&#45;&gt;42</title>
<path fill="none" stroke="#c0c0c0" stroke-width="2" d="M994.2664,-359.8314C995.015,-352.131 995.9053,-342.9743 996.7373,-334.4166"/>
<polygon fill="#c0c0c0" stroke="#c0c0c0" stroke-width="2" points="1000.2256,-334.7051 997.7098,-324.4133 993.2585,-334.0276 1000.2256,-334.7051"/>
</g>
<!-- 20 -->
<g id="node21" class="node">
<title>20</title>
<path fill="none" stroke="#56d86b" stroke-width="2" d="M889,-108C889,-108 798,-108 798,-108 792,-108 786,-102 786,-96 786,-96 786,-84 786,-84 786,-78 792,-72 798,-72 798,-72 889,-72 889,-72 895,-72 901,-78 901,-84 901,-84 901,-96 901,-96 901,-102 895,-108 889,-108"/>
<text text-anchor="middle" x="843.5" y="-87.5" font-family="sans" font-size="10.00" fill="#000000">_copy_automap_pdf</text>
</g>
<!-- 20&#45;&gt;0 -->
<g id="edge1" class="edge">
<title>20&#45;&gt;0</title>
<path fill="none" stroke="#c0c0c0" stroke-width="2" d="M788.7708,-71.9243C749.2819,-58.8821 697.0344,-41.626 662.399,-30.1868"/>
<polygon fill="#c0c0c0" stroke="#c0c0c0" stroke-width="2" points="663.2794,-26.7917 652.6862,-26.9789 661.0841,-33.4386 663.2794,-26.7917"/>
</g>
<!-- 21 -->
<g id="node22" class="node">
<title>21</title>
<path fill="none" stroke="#56d0d8" stroke-width="2" d="M842,-180C842,-180 767,-180 767,-180 761,-180 755,-174 755,-168 755,-168 755,-156 755,-156 755,-150 761,-144 767,-144 767,-144 842,-144 842,-144 848,-144 854,-150 854,-156 854,-156 854,-168 854,-168 854,-174 848,-180 842,-180"/>
<text text-anchor="middle" x="804.5" y="-159.5" font-family="sans" font-size="10.00" fill="#000000">cnv_sv_automap</text>
</g>
<!-- 21&#45;&gt;20 -->
<g id="edge41" class="edge">
<title>21&#45;&gt;20</title>
<path fill="none" stroke="#c0c0c0" stroke-width="2" d="M814.3413,-143.8314C818.6957,-135.7925 823.9098,-126.1666 828.7169,-117.2918"/>
<polygon fill="#c0c0c0" stroke="#c0c0c0" stroke-width="2" points="831.8408,-118.8732 833.5261,-108.4133 825.6857,-115.5392 831.8408,-118.8732"/>
</g>
<!-- 31 -->
<g id="node32" class="node">
<title>31</title>
<path fill="none" stroke="#d89556" stroke-width="2" d="M755.5,-108C755.5,-108 665.5,-108 665.5,-108 659.5,-108 653.5,-102 653.5,-96 653.5,-96 653.5,-84 653.5,-84 653.5,-78 659.5,-72 665.5,-72 665.5,-72 755.5,-72 755.5,-72 761.5,-72 767.5,-78 767.5,-84 767.5,-84 767.5,-96 767.5,-96 767.5,-102 761.5,-108 755.5,-108"/>
<text text-anchor="middle" x="710.5" y="-87.5" font-family="sans" font-size="10.00" fill="#000000">_copy_automap_tsv</text>
</g>
<!-- 21&#45;&gt;31 -->
<g id="edge59" class="edge">
<title>21&#45;&gt;31</title>
<path fill="none" stroke="#c0c0c0" stroke-width="2" d="M780.7798,-143.8314C769.0906,-134.8779 754.8312,-123.9558 742.2191,-114.2955"/>
<polygon fill="#c0c0c0" stroke="#c0c0c0" stroke-width="2" points="744.2797,-111.4651 734.2126,-108.1628 740.0231,-117.0222 744.2797,-111.4651"/>
</g>
<!-- 22 -->
<g id="node23" class="node">
<title>22</title>
<path fill="none" stroke="#80d856" stroke-width="2" d="M828,-252C828,-252 781,-252 781,-252 775,-252 769,-246 769,-240 769,-240 769,-228 769,-228 769,-222 775,-216 781,-216 781,-216 828,-216 828,-216 834,-216 840,-222 840,-228 840,-228 840,-240 840,-240 840,-246 834,-252 828,-252"/>
<text text-anchor="middle" x="804.5" y="-231.5" font-family="sans" font-size="10.00" fill="#000000">vcf_addRef</text>
</g>
<!-- 22&#45;&gt;21 -->
<g id="edge42" class="edge">
<title>22&#45;&gt;21</title>
<path fill="none" stroke="#c0c0c0" stroke-width="2" d="M804.5,-215.8314C804.5,-208.131 804.5,-198.9743 804.5,-190.4166"/>
<polygon fill="#c0c0c0" stroke="#c0c0c0" stroke-width="2" points="808.0001,-190.4132 804.5,-180.4133 801.0001,-190.4133 808.0001,-190.4132"/>
</g>
<!-- 24 -->
<g id="node25" class="node">
<title>24</title>
<path fill="none" stroke="#d8cb56" stroke-width="2" d="M881,-468C881,-468 834,-468 834,-468 828,-468 822,-462 822,-456 822,-456 822,-444 822,-444 822,-438 828,-432 834,-432 834,-432 881,-432 881,-432 887,-432 893,-438 893,-444 893,-444 893,-456 893,-456 893,-462 887,-468 881,-468"/>
<text text-anchor="middle" x="857.5" y="-447.5" font-family="sans" font-size="10.00" fill="#000000">misc_bgzip</text>
</g>
<!-- 22&#45;&gt;24 -->
<g id="edge46" class="edge">
<title>22&#45;&gt;24</title>
<path fill="none" stroke="#c0c0c0" stroke-width="2" d="M795.7216,-252.0583C788.0033,-270.3225 778.9419,-299.3049 785.5,-324 795.4061,-361.302 819.2378,-399.0785 836.7821,-423.4049"/>
<polygon fill="#c0c0c0" stroke="#c0c0c0" stroke-width="2" points="834.1717,-425.7623 842.9239,-431.733 839.8054,-421.6075 834.1717,-425.7623"/>
</g>
<!-- 23&#45;&gt;22 -->
<g id="edge43" class="edge">
<title>23&#45;&gt;22</title>
<path fill="none" stroke="#c0c0c0" stroke-width="2" d="M844.1259,-287.8314C838.0838,-279.6232 830.8237,-269.7606 824.1779,-260.7323"/>
<polygon fill="#c0c0c0" stroke="#c0c0c0" stroke-width="2" points="826.8011,-258.3918 818.0542,-252.4133 821.1637,-262.5415 826.8011,-258.3918"/>
</g>
<!-- 24&#45;&gt;19 -->
<g id="edge40" class="edge">
<title>24&#45;&gt;19</title>
<path fill="none" stroke="#c0c0c0" stroke-width="2" d="M891.5662,-431.8314C909.1533,-422.4516 930.7916,-410.9112 949.5168,-400.9244"/>
<polygon fill="#c0c0c0" stroke="#c0c0c0" stroke-width="2" points="951.2682,-403.957 958.4447,-396.1628 947.9741,-397.7805 951.2682,-403.957"/>
</g>
<!-- 24&#45;&gt;23 -->
<g id="edge45" class="edge">
<title>24&#45;&gt;23</title>
<path fill="none" stroke="#c0c0c0" stroke-width="2" d="M857.5,-431.7623C857.5,-407.201 857.5,-363.2474 857.5,-334.3541"/>
<polygon fill="#c0c0c0" stroke="#c0c0c0" stroke-width="2" points="861.0001,-334.0896 857.5,-324.0896 854.0001,-334.0897 861.0001,-334.0896"/>
</g>
<!-- 32 -->
<g id="node33" class="node">
<title>32</title>
<path fill="none" stroke="#565bd8" stroke-width="2" d="M725.5,-324C725.5,-324 627.5,-324 627.5,-324 621.5,-324 615.5,-318 615.5,-312 615.5,-312 615.5,-300 615.5,-300 615.5,-294 621.5,-288 627.5,-288 627.5,-288 725.5,-288 725.5,-288 731.5,-288 737.5,-294 737.5,-300 737.5,-300 737.5,-312 737.5,-312 737.5,-318 731.5,-324 725.5,-324"/>
<text text-anchor="middle" x="676.5" y="-303.5" font-family="sans" font-size="10.00" fill="#000000">_copy_snv_indels_vcf</text>
</g>
<!-- 24&#45;&gt;32 -->
<g id="edge60" class="edge">
<title>24&#45;&gt;32</title>
<path fill="none" stroke="#c0c0c0" stroke-width="2" d="M821.6976,-433.1436C802.9209,-423.5114 780.0352,-410.4798 761.5,-396 737.196,-377.0135 713.4309,-351.0335 697.2373,-331.8662"/>
<polygon fill="#c0c0c0" stroke="#c0c0c0" stroke-width="2" points="699.8684,-329.5563 690.7812,-324.109 694.4881,-334.0342 699.8684,-329.5563"/>
</g>
<!-- 40 -->
<g id="node41" class="node">
<title>40</title>
<path fill="none" stroke="#8fd856" stroke-width="2" d="M697.5,-396C697.5,-396 589.5,-396 589.5,-396 583.5,-396 577.5,-390 577.5,-384 577.5,-384 577.5,-372 577.5,-372 577.5,-366 583.5,-360 589.5,-360 589.5,-360 697.5,-360 697.5,-360 703.5,-360 709.5,-366 709.5,-372 709.5,-372 709.5,-384 709.5,-384 709.5,-390 703.5,-396 697.5,-396"/>
<text text-anchor="middle" x="643.5" y="-375.5" font-family="sans" font-size="10.00" fill="#000000">_copy_exomedepth_vcf</text>
</g>
<!-- 24&#45;&gt;40 -->
<g id="edge69" class="edge">
<title>24&#45;&gt;40</title>
<path fill="none" stroke="#c0c0c0" stroke-width="2" d="M821.6812,-437.9488C790.4429,-427.4387 744.3908,-411.9446 706.9307,-399.3412"/>
<polygon fill="#c0c0c0" stroke="#c0c0c0" stroke-width="2" points="707.7048,-395.9089 697.1108,-396.0373 705.4726,-402.5435 707.7048,-395.9089"/>
</g>
<!-- 25&#45;&gt;24 -->
<g id="edge48" class="edge">
<title>25&#45;&gt;24</title>
<path fill="none" stroke="#c0c0c0" stroke-width="2" d="M941.2377,-503.8314C927.0448,-494.7074 909.6718,-483.539 894.4364,-473.7449"/>
<polygon fill="#c0c0c0" stroke="#c0c0c0" stroke-width="2" points="896.0578,-470.6263 885.7533,-468.1628 892.2724,-476.5146 896.0578,-470.6263"/>
</g>
<!-- 26 -->
<g id="node27" class="node">
<title>26</title>
<path fill="none" stroke="#d88d56" stroke-width="2" d="M115,-468C115,-468 12,-468 12,-468 6,-468 0,-462 0,-456 0,-456 0,-444 0,-444 0,-438 6,-432 12,-432 12,-432 115,-432 115,-432 121,-432 127,-438 127,-444 127,-444 127,-456 127,-456 127,-462 121,-468 115,-468"/>
<text text-anchor="middle" x="63.5" y="-447.5" font-family="sans" font-size="10.00" fill="#000000">_copy_coverage_excel</text>
</g>
<!-- 26&#45;&gt;0 -->
<g id="edge2" class="edge">
<title>26&#45;&gt;0</title>
<path fill="none" stroke="#c0c0c0" stroke-width="2" d="M69.226,-431.5668C77.1516,-404.3758 90.5,-351.7842 90.5,-306 90.5,-306 90.5,-306 90.5,-162 90.5,-116.0242 103.1232,-97.318 141.5,-72 178.5955,-47.5273 481.2209,-26.8293 588.2039,-20.2128"/>
<polygon fill="#c0c0c0" stroke="#c0c0c0" stroke-width="2" points="588.4563,-23.704 598.2236,-19.599 588.0283,-16.7171 588.4563,-23.704"/>
</g>
<!-- 27 -->
<g id="node28" class="node">
<title>27</title>
<path fill="none" stroke="#568ad8" stroke-width="2" d="M641,-612C641,-612 564,-612 564,-612 558,-612 552,-606 552,-600 552,-600 552,-588 552,-588 552,-582 558,-576 564,-576 564,-576 641,-576 641,-576 647,-576 653,-582 653,-588 653,-588 653,-600 653,-600 653,-606 647,-612 641,-612"/>
<text text-anchor="middle" x="602.5" y="-591.5" font-family="sans" font-size="10.00" fill="#000000">create_cov_excel</text>
</g>
<!-- 27&#45;&gt;26 -->
<g id="edge50" class="edge">
<title>27&#45;&gt;26</title>
<path fill="none" stroke="#c0c0c0" stroke-width="2" d="M551.9049,-592.6459C447.4299,-589.1183 211.7472,-577.1678 141.5,-540 114.3145,-525.6161 92.3868,-497.5617 78.7853,-476.5797"/>
<polygon fill="#c0c0c0" stroke="#c0c0c0" stroke-width="2" points="81.7421,-474.7068 73.4747,-468.0809 75.8057,-478.4162 81.7421,-474.7068"/>
</g>
<!-- 28&#45;&gt;27 -->
<g id="edge51" class="edge">
<title>28&#45;&gt;27</title>
<path fill="none" stroke="#c0c0c0" stroke-width="2" d="M702.7142,-719.6592C698.0568,-700.3832 688.7035,-669.8787 672.5,-648 664.1288,-636.6968 652.7808,-626.5663 641.66,-618.2173"/>
<polygon fill="#c0c0c0" stroke="#c0c0c0" stroke-width="2" points="643.4197,-615.1723 633.2532,-612.1902 639.341,-620.8614 643.4197,-615.1723"/>
</g>
<!-- 30 -->
<g id="node31" class="node">
<title>30</title>
<path fill="none" stroke="#d8d356" stroke-width="2" d="M651,-684C651,-684 562,-684 562,-684 556,-684 550,-678 550,-672 550,-672 550,-660 550,-660 550,-654 556,-648 562,-648 562,-648 651,-648 651,-648 657,-648 663,-654 663,-660 663,-660 663,-672 663,-672 663,-678 657,-684 651,-684"/>
<text text-anchor="middle" x="606.5" y="-663.5" font-family="sans" font-size="10.00" fill="#000000">mosdepth_bedtools</text>
</g>
<!-- 28&#45;&gt;30 -->
<g id="edge58" class="edge">
<title>28&#45;&gt;30</title>
<path fill="none" stroke="#c0c0c0" stroke-width="2" d="M681.2658,-719.8314C668.712,-710.7927 653.3717,-699.7476 639.8609,-690.0198"/>
<polygon fill="#c0c0c0" stroke="#c0c0c0" stroke-width="2" points="641.8866,-687.1655 631.7261,-684.1628 637.7964,-692.8463 641.8866,-687.1655"/>
</g>
<!-- 28&#45;&gt;53 -->
<g id="edge82" class="edge">
<title>28&#45;&gt;53</title>
<path fill="none" stroke="#c0c0c0" stroke-width="2" d="M784.0332,-721.1404C837.8269,-709.1105 904.4823,-693.4491 931.5,-684 967.1598,-671.5284 972.4234,-659.209 1008.5,-648 1101.4415,-619.1232 1130.6305,-637.7006 1224.5,-612 1309.9975,-588.5916 1350.3252,-605.0905 1410.5,-540 1512.5392,-429.6253 1420.6957,-338.7175 1507.5,-216 1515.7774,-204.298 1527.3982,-194.1427 1538.9825,-185.8953"/>
<polygon fill="#c0c0c0" stroke="#c0c0c0" stroke-width="2" points="1541.0368,-188.7313 1547.3628,-180.2323 1537.1175,-182.9314 1541.0368,-188.7313"/>
</g>
<!-- 29&#45;&gt;27 -->
<g id="edge52" class="edge">
<title>29&#45;&gt;27</title>
<path fill="none" stroke="#c0c0c0" stroke-width="2" d="M1016.7953,-659.5263C991.4579,-656.0923 959.7884,-651.8072 931.5,-648 815.1084,-632.3356 782.1392,-637.1349 662.9672,-611.9088"/>
<polygon fill="#c0c0c0" stroke="#c0c0c0" stroke-width="2" points="663.6037,-608.4657 653.0922,-609.7922 662.1366,-615.3103 663.6037,-608.4657"/>
</g>
<!-- 29&#45;&gt;53 -->
<g id="edge86" class="edge">
<title>29&#45;&gt;53</title>
<path fill="none" stroke="#c0c0c0" stroke-width="2" d="M1112.1137,-660.7068C1226.1466,-646.7109 1505.5,-604.0509 1505.5,-522 1505.5,-522 1505.5,-522 1505.5,-306 1505.5,-264.6022 1509.1618,-252.0574 1529.5,-216 1535.4346,-205.4787 1543.9009,-195.4885 1552.2833,-187.0273"/>
<polygon fill="#c0c0c0" stroke="#c0c0c0" stroke-width="2" points="1554.7919,-189.4705 1559.5622,-180.0103 1549.9336,-184.4309 1554.7919,-189.4705"/>
</g>
<!-- 30&#45;&gt;27 -->
<g id="edge53" class="edge">
<title>30&#45;&gt;27</title>
<path fill="none" stroke="#c0c0c0" stroke-width="2" d="M605.4906,-647.8314C605.0628,-640.131 604.5541,-630.9743 604.0787,-622.4166"/>
<polygon fill="#c0c0c0" stroke="#c0c0c0" stroke-width="2" points="607.5724,-622.2037 603.523,-612.4133 600.5831,-622.592 607.5724,-622.2037"/>
</g>
<!-- 31&#45;&gt;0 -->
<g id="edge4" class="edge">
<title>31&#45;&gt;0</title>
<path fill="none" stroke="#c0c0c0" stroke-width="2" d="M689.0509,-71.8314C678.6822,-63.0485 666.0771,-52.3712 654.8354,-42.8489"/>
<polygon fill="#c0c0c0" stroke="#c0c0c0" stroke-width="2" points="656.8349,-39.9556 646.9422,-36.1628 652.3105,-45.297 656.8349,-39.9556"/>
</g>
<!-- 32&#45;&gt;0 -->
<g id="edge13" class="edge">
<title>32&#45;&gt;0</title>
<path fill="none" stroke="#c0c0c0" stroke-width="2" d="M673.3097,-287.9843C664.6875,-239.2939 640.8702,-104.7961 630.4685,-46.0573"/>
<polygon fill="#c0c0c0" stroke="#c0c0c0" stroke-width="2" points="633.8792,-45.2454 628.6891,-36.0089 626.9865,-46.466 633.8792,-45.2454"/>
</g>
<!-- 33 -->
<g id="node34" class="node">
<title>33</title>
<path fill="none" stroke="#56d87b" stroke-width="2" d="M784,-612C784,-612 683,-612 683,-612 677,-612 671,-606 671,-600 671,-600 671,-588 671,-588 671,-582 677,-576 683,-576 683,-576 784,-576 784,-576 790,-576 796,-582 796,-588 796,-588 796,-600 796,-600 796,-606 790,-612 784,-612"/>
<text text-anchor="middle" x="733.5" y="-591.5" font-family="sans" font-size="10.00" fill="#000000">_copy_samtools_cram</text>
</g>
<!-- 33&#45;&gt;0 -->
<g id="edge9" class="edge">
<title>33&#45;&gt;0</title>
<path fill="none" stroke="#c0c0c0" stroke-width="2" d="M670.806,-577.9939C668.0007,-577.313 665.2221,-576.6455 662.5,-576 549.5387,-549.2135 155.5,-566.0938 155.5,-450 155.5,-450 155.5,-450 155.5,-162 155.5,-119.3959 155.1364,-98.4949 188.5,-72 219.5822,-47.3168 487.8414,-27.1429 587.9966,-20.4069"/>
<polygon fill="#c0c0c0" stroke="#c0c0c0" stroke-width="2" points="588.5099,-23.8806 598.2556,-19.7245 588.0453,-16.896 588.5099,-23.8806"/>
</g>
<!-- 34&#45;&gt;33 -->
<g id="edge61" class="edge">
<title>34&#45;&gt;33</title>
<path fill="none" stroke="#c0c0c0" stroke-width="2" d="M805.0102,-719.8866C785.3977,-711.8556 766.0424,-700.3681 752.5,-684 738.3276,-666.8704 733.9506,-641.7548 732.9065,-622.4052"/>
<polygon fill="#c0c0c0" stroke="#c0c0c0" stroke-width="2" points="736.4033,-622.2354 732.6283,-612.3359 729.4059,-622.4288 736.4033,-622.2354"/>
</g>
<!-- 39 -->
<g id="node40" class="node">
<title>39</title>
<path fill="none" stroke="#5663d8" stroke-width="2" d="M910,-684C910,-684 773,-684 773,-684 767,-684 761,-678 761,-672 761,-672 761,-660 761,-660 761,-654 767,-648 773,-648 773,-648 910,-648 910,-648 916,-648 922,-654 922,-660 922,-660 922,-672 922,-672 922,-678 916,-684 910,-684"/>
<text text-anchor="middle" x="841.5" y="-663.5" font-family="sans" font-size="10.00" fill="#000000">compression_samtools_index</text>
</g>
<!-- 34&#45;&gt;39 -->
<g id="edge68" class="edge">
<title>34&#45;&gt;39</title>
<path fill="none" stroke="#c0c0c0" stroke-width="2" d="M871.4063,-719.8314C866.9403,-711.7925 861.5925,-702.1666 856.6621,-693.2918"/>
<polygon fill="#c0c0c0" stroke="#c0c0c0" stroke-width="2" points="859.6456,-691.4551 851.7296,-684.4133 853.5265,-694.8546 859.6456,-691.4551"/>
</g>
<!-- 35 -->
<g id="node36" class="node">
<title>35</title>
<path fill="none" stroke="#d8ac56" stroke-width="2" d="M509,-108C509,-108 398,-108 398,-108 392,-108 386,-102 386,-96 386,-96 386,-84 386,-84 386,-78 392,-72 398,-72 398,-72 509,-72 509,-72 515,-72 521,-78 521,-84 521,-84 521,-96 521,-96 521,-102 515,-108 509,-108"/>
<text text-anchor="middle" x="453.5" y="-87.5" font-family="sans" font-size="10.00" fill="#000000">_copy_exomedepth_aed</text>
</g>
<!-- 35&#45;&gt;0 -->
<g id="edge14" class="edge">
<title>35&#45;&gt;0</title>
<path fill="none" stroke="#c0c0c0" stroke-width="2" d="M496.9029,-71.8314C525.2657,-59.9585 561.8984,-44.6239 588.8061,-33.3603"/>
<polygon fill="#c0c0c0" stroke="#c0c0c0" stroke-width="2" points="590.3732,-36.4986 598.2461,-29.4086 587.6702,-30.0415 590.3732,-36.4986"/>
</g>
<!-- 36 -->
<g id="node37" class="node">
<title>36</title>
<path fill="none" stroke="#d6d856" stroke-width="2" d="M499,-180C499,-180 408,-180 408,-180 402,-180 396,-174 396,-168 396,-168 396,-156 396,-156 396,-150 402,-144 408,-144 408,-144 499,-144 499,-144 505,-144 511,-150 511,-156 511,-156 511,-168 511,-168 511,-174 505,-180 499,-180"/>
<text text-anchor="middle" x="453.5" y="-159.5" font-family="sans" font-size="10.00" fill="#000000">exomedepth_export</text>
</g>
<!-- 36&#45;&gt;35 -->
<g id="edge64" class="edge">
<title>36&#45;&gt;35</title>
<path fill="none" stroke="#c0c0c0" stroke-width="2" d="M453.5,-143.8314C453.5,-136.131 453.5,-126.9743 453.5,-118.4166"/>
<polygon fill="#c0c0c0" stroke="#c0c0c0" stroke-width="2" points="457.0001,-118.4132 453.5,-108.4133 450.0001,-118.4133 457.0001,-118.4132"/>
</g>
<!-- 37 -->
<g id="node38" class="node">
<title>37</title>
<path fill="none" stroke="#56c9d8" stroke-width="2" d="M355.5,-108C355.5,-108 233.5,-108 233.5,-108 227.5,-108 221.5,-102 221.5,-96 221.5,-96 221.5,-84 221.5,-84 221.5,-78 227.5,-72 233.5,-72 233.5,-72 355.5,-72 355.5,-72 361.5,-72 367.5,-78 367.5,-84 367.5,-84 367.5,-96 367.5,-96 367.5,-102 361.5,-108 355.5,-108"/>
<text text-anchor="middle" x="294.5" y="-87.5" font-family="sans" font-size="10.00" fill="#000000">_copy_exomedepth_nexus</text>
</g>
<!-- 36&#45;&gt;37 -->
<g id="edge66" class="edge">
<title>36&#45;&gt;37</title>
<path fill="none" stroke="#c0c0c0" stroke-width="2" d="M413.3776,-143.8314C392.2068,-134.2446 366.0517,-122.4008 343.6697,-112.2655"/>
<polygon fill="#c0c0c0" stroke="#c0c0c0" stroke-width="2" points="344.8872,-108.9748 334.3339,-108.038 341.9997,-115.3515 344.8872,-108.9748"/>
</g>
<!-- 37&#45;&gt;0 -->
<g id="edge7" class="edge">
<title>37&#45;&gt;0</title>
<path fill="none" stroke="#c0c0c0" stroke-width="2" d="M367.8156,-73.8967C370.7485,-73.2556 373.652,-72.6214 376.5,-72 451.5905,-55.616 539.4537,-36.5969 588.1609,-26.0669"/>
<polygon fill="#c0c0c0" stroke="#c0c0c0" stroke-width="2" points="589.1948,-29.4243 598.2296,-23.8905 587.7158,-22.5823 589.1948,-29.4243"/>
</g>
<!-- 38 -->
<g id="node39" class="node">
<title>38</title>
<path fill="none" stroke="#97d856" stroke-width="2" d="M615,-540C615,-540 520,-540 520,-540 514,-540 508,-534 508,-528 508,-528 508,-516 508,-516 508,-510 514,-504 520,-504 520,-504 615,-504 615,-504 621,-504 627,-510 627,-516 627,-516 627,-528 627,-528 627,-534 621,-540 615,-540"/>
<text text-anchor="middle" x="567.5" y="-519.5" font-family="sans" font-size="10.00" fill="#000000">_copy_samtools_crai</text>
</g>
<!-- 38&#45;&gt;0 -->
<g id="edge15" class="edge">
<title>38&#45;&gt;0</title>
<path fill="none" stroke="#c0c0c0" stroke-width="2" d="M563.7704,-503.9053C558.4981,-476.7046 549.5,-423.6021 549.5,-378 549.5,-378 549.5,-378 549.5,-162 549.5,-116.656 579.3384,-71.5999 601.6226,-44.2735"/>
<polygon fill="#c0c0c0" stroke="#c0c0c0" stroke-width="2" points="604.5006,-46.2889 608.2544,-36.3814 599.1415,-41.7856 604.5006,-46.2889"/>
</g>
<!-- 39&#45;&gt;38 -->
<g id="edge67" class="edge">
<title>39&#45;&gt;38</title>
<path fill="none" stroke="#c0c0c0" stroke-width="2" d="M839.2848,-647.9148C835.786,-627.3808 827.0012,-594.3579 805.5,-576 798.9545,-570.4114 704.8132,-550.1579 636.9246,-536.1099"/>
<polygon fill="#c0c0c0" stroke="#c0c0c0" stroke-width="2" points="637.6134,-532.6784 627.1123,-534.0848 636.1984,-539.5339 637.6134,-532.6784"/>
</g>
<!-- 40&#45;&gt;0 -->
<g id="edge3" class="edge">
<title>40&#45;&gt;0</title>
<path fill="none" stroke="#c0c0c0" stroke-width="2" d="M628.1841,-359.5801C620.614,-349.608 611.9551,-336.7465 606.5,-324 590.415,-286.4157 587.5,-274.8816 587.5,-234 587.5,-234 587.5,-234 587.5,-162 587.5,-120.3681 602.5328,-74.14 613.6881,-45.567"/>
<polygon fill="#c0c0c0" stroke="#c0c0c0" stroke-width="2" points="616.9578,-46.817 617.4412,-36.2332 610.4632,-44.2055 616.9578,-46.817"/>
</g>
<!-- 41 -->
<g id="node42" class="node">
<title>41</title>
<path fill="none" stroke="#d85656" stroke-width="2" d="M880.5,-540C880.5,-540 850.5,-540 850.5,-540 844.5,-540 838.5,-534 838.5,-528 838.5,-528 838.5,-516 838.5,-516 838.5,-510 844.5,-504 850.5,-504 850.5,-504 880.5,-504 880.5,-504 886.5,-504 892.5,-510 892.5,-516 892.5,-516 892.5,-528 892.5,-528 892.5,-534 886.5,-540 880.5,-540"/>
<text text-anchor="middle" x="865.5" y="-519.5" font-family="sans" font-size="10.00" fill="#000000">tsv2vcf</text>
</g>
<!-- 41&#45;&gt;24 -->
<g id="edge47" class="edge">
<title>41&#45;&gt;24</title>
<path fill="none" stroke="#c0c0c0" stroke-width="2" d="M863.4813,-503.8314C862.6257,-496.131 861.6083,-486.9743 860.6574,-478.4166"/>
<polygon fill="#c0c0c0" stroke="#c0c0c0" stroke-width="2" points="864.1289,-477.9656 859.5459,-468.4133 857.1717,-478.7386 864.1289,-477.9656"/>
</g>
<!-- 42&#45;&gt;0 -->
<g id="edge5" class="edge">
<title>42&#45;&gt;0</title>
<path fill="none" stroke="#c0c0c0" stroke-width="2" d="M977.4318,-287.8366C967.1401,-278.218 955.6194,-265.5939 948.5,-252 910.5662,-179.5689 968.9136,-129.2109 910.5,-72 875.851,-38.0644 732.0046,-24.6255 662.8939,-20.0509"/>
<polygon fill="#c0c0c0" stroke="#c0c0c0" stroke-width="2" points="663.0678,-16.555 652.8662,-19.4149 662.6246,-23.541 663.0678,-16.555"/>
</g>
<!-- 43 -->
<g id="node44" class="node">
<title>43</title>
<path fill="none" stroke="#59d856" stroke-width="2" d="M1079,-108C1079,-108 970,-108 970,-108 964,-108 958,-102 958,-96 958,-96 958,-84 958,-84 958,-78 964,-72 970,-72 970,-72 1079,-72 1079,-72 1085,-72 1091,-78 1091,-84 1091,-84 1091,-96 1091,-96 1091,-102 1085,-108 1079,-108"/>
<text text-anchor="middle" x="1024.5" y="-87.5" font-family="sans" font-size="10.00" fill="#000000">_copy_upd_regions_bed</text>
</g>
<!-- 43&#45;&gt;0 -->
<g id="edge6" class="edge">
<title>43&#45;&gt;0</title>
<path fill="none" stroke="#c0c0c0" stroke-width="2" d="M957.8107,-74.9005C952.9736,-73.8912 948.1652,-72.9138 943.5,-72 842.4089,-52.1975 722.4017,-32.9713 662.862,-23.7182"/>
<polygon fill="#c0c0c0" stroke="#c0c0c0" stroke-width="2" points="663.2264,-20.233 652.8085,-22.1613 662.1551,-27.1505 663.2264,-20.233"/>
</g>
<!-- 44 -->
<g id="node45" class="node">
<title>44</title>
<path fill="none" stroke="#56d89a" stroke-width="2" d="M1061,-180C1061,-180 970,-180 970,-180 964,-180 958,-174 958,-168 958,-168 958,-156 958,-156 958,-150 964,-144 970,-144 970,-144 1061,-144 1061,-144 1067,-144 1073,-150 1073,-156 1073,-156 1073,-168 1073,-168 1073,-174 1067,-180 1061,-180"/>
<text text-anchor="middle" x="1015.5" y="-159.5" font-family="sans" font-size="10.00" fill="#000000">cnv_sv_upd_regions</text>
</g>
<!-- 44&#45;&gt;43 -->
<g id="edge72" class="edge">
<title>44&#45;&gt;43</title>
<path fill="none" stroke="#c0c0c0" stroke-width="2" d="M1017.7711,-143.8314C1018.7336,-136.131 1019.8782,-126.9743 1020.9479,-118.4166"/>
<polygon fill="#c0c0c0" stroke="#c0c0c0" stroke-width="2" points="1024.4309,-118.7702 1022.1983,-108.4133 1017.4849,-117.9019 1024.4309,-118.7702"/>
</g>
<!-- 45 -->
<g id="node46" class="node">
<title>45</title>
<path fill="none" stroke="#56d892" stroke-width="2" d="M1045.5,-252C1045.5,-252 969.5,-252 969.5,-252 963.5,-252 957.5,-246 957.5,-240 957.5,-240 957.5,-228 957.5,-228 957.5,-222 963.5,-216 969.5,-216 969.5,-216 1045.5,-216 1045.5,-216 1051.5,-216 1057.5,-222 1057.5,-228 1057.5,-228 1057.5,-240 1057.5,-240 1057.5,-246 1051.5,-252 1045.5,-252"/>
<text text-anchor="middle" x="1007.5" y="-231.5" font-family="sans" font-size="10.00" fill="#000000">snv_indels_bgzip</text>
</g>
<!-- 45&#45;&gt;44 -->
<g id="edge73" class="edge">
<title>45&#45;&gt;44</title>
<path fill="none" stroke="#c0c0c0" stroke-width="2" d="M1009.5187,-215.8314C1010.3743,-208.131 1011.3917,-198.9743 1012.3426,-190.4166"/>
<polygon fill="#c0c0c0" stroke="#c0c0c0" stroke-width="2" points="1015.8283,-190.7386 1013.4541,-180.4133 1008.8711,-189.9656 1015.8283,-190.7386"/>
</g>
<!-- 46 -->
<g id="node47" class="node">
<title>46</title>
<path fill="none" stroke="#d6d856" stroke-width="2" d="M1179.5,-324C1179.5,-324 1089.5,-324 1089.5,-324 1083.5,-324 1077.5,-318 1077.5,-312 1077.5,-312 1077.5,-300 1077.5,-300 1077.5,-294 1083.5,-288 1089.5,-288 1089.5,-288 1179.5,-288 1179.5,-288 1185.5,-288 1191.5,-294 1191.5,-300 1191.5,-300 1191.5,-312 1191.5,-312 1191.5,-318 1185.5,-324 1179.5,-324"/>
<text text-anchor="middle" x="1134.5" y="-303.5" font-family="sans" font-size="10.00" fill="#000000">annotation_vep_trio</text>
</g>
<!-- 46&#45;&gt;45 -->
<g id="edge74" class="edge">
<title>46&#45;&gt;45</title>
<path fill="none" stroke="#c0c0c0" stroke-width="2" d="M1102.4525,-287.8314C1086.058,-278.5368 1065.9214,-267.1208 1048.4171,-257.1971"/>
<polygon fill="#c0c0c0" stroke="#c0c0c0" stroke-width="2" points="1049.9626,-254.05 1039.5372,-252.1628 1046.5103,-260.1395 1049.9626,-254.05"/>
</g>
<!-- 47 -->
<g id="node48" class="node">
<title>47</title>
<path fill="none" stroke="#ced856" stroke-width="2" d="M1179,-396C1179,-396 1058,-396 1058,-396 1052,-396 1046,-390 1046,-384 1046,-384 1046,-372 1046,-372 1046,-366 1052,-360 1058,-360 1058,-360 1179,-360 1179,-360 1185,-360 1191,-366 1191,-372 1191,-372 1191,-384 1191,-384 1191,-390 1185,-396 1179,-396"/>
<text text-anchor="middle" x="1118.5" y="-375.5" font-family="sans" font-size="10.00" fill="#000000">snv_indels_vt_decompose</text>
</g>
<!-- 47&#45;&gt;46 -->
<g id="edge75" class="edge">
<title>47&#45;&gt;46</title>
<path fill="none" stroke="#c0c0c0" stroke-width="2" d="M1122.5375,-359.8314C1124.2487,-352.131 1126.2835,-342.9743 1128.1852,-334.4166"/>
<polygon fill="#c0c0c0" stroke="#c0c0c0" stroke-width="2" points="1131.6554,-334.9344 1130.4082,-324.4133 1124.8221,-333.4159 1131.6554,-334.9344"/>
</g>
<!-- 48 -->
<g id="node49" class="node">
<title>48</title>
<path fill="none" stroke="#d85656" stroke-width="2" d="M1177,-468C1177,-468 1060,-468 1060,-468 1054,-468 1048,-462 1048,-456 1048,-456 1048,-444 1048,-444 1048,-438 1054,-432 1060,-432 1060,-432 1177,-432 1177,-432 1183,-432 1189,-438 1189,-444 1189,-444 1189,-456 1189,-456 1189,-462 1183,-468 1177,-468"/>
<text text-anchor="middle" x="1118.5" y="-447.5" font-family="sans" font-size="10.00" fill="#000000">snv_indels_bcftools_view</text>
</g>
<!-- 48&#45;&gt;47 -->
<g id="edge76" class="edge">
<title>48&#45;&gt;47</title>
<path fill="none" stroke="#c0c0c0" stroke-width="2" d="M1118.5,-431.8314C1118.5,-424.131 1118.5,-414.9743 1118.5,-406.4166"/>
<polygon fill="#c0c0c0" stroke="#c0c0c0" stroke-width="2" points="1122.0001,-406.4132 1118.5,-396.4133 1115.0001,-406.4133 1122.0001,-406.4132"/>
</g>
<!-- 49&#45;&gt;48 -->
<g id="edge77" class="edge">
<title>49&#45;&gt;48</title>
<path fill="none" stroke="#c0c0c0" stroke-width="2" d="M1120.743,-503.8314C1120.4221,-496.131 1120.0406,-486.9743 1119.684,-478.4166"/>
<polygon fill="#c0c0c0" stroke="#c0c0c0" stroke-width="2" points="1123.1806,-478.2589 1119.2672,-468.4133 1116.1867,-478.5503 1123.1806,-478.2589"/>
</g>
<!-- 50 -->
<g id="node51" class="node">
<title>50</title>
<path fill="none" stroke="#56d85b" stroke-width="2" d="M1177.5,-108C1177.5,-108 1121.5,-108 1121.5,-108 1115.5,-108 1109.5,-102 1109.5,-96 1109.5,-96 1109.5,-84 1109.5,-84 1109.5,-78 1115.5,-72 1121.5,-72 1121.5,-72 1177.5,-72 1177.5,-72 1183.5,-72 1189.5,-78 1189.5,-84 1189.5,-84 1189.5,-96 1189.5,-96 1189.5,-102 1183.5,-108 1177.5,-108"/>
<text text-anchor="middle" x="1149.5" y="-87.5" font-family="sans" font-size="10.00" fill="#000000">_copy_spring</text>
</g>
<!-- 50&#45;&gt;0 -->
<g id="edge11" class="edge">
<title>50&#45;&gt;0</title>
<path fill="none" stroke="#c0c0c0" stroke-width="2" d="M1109.3575,-74.3897C1106.3843,-73.5002 1103.4102,-72.6894 1100.5,-72 940.5081,-34.0963 743.685,-22.5186 662.8444,-19.2205"/>
<polygon fill="#c0c0c0" stroke="#c0c0c0" stroke-width="2" points="662.7995,-15.7162 652.6709,-18.8247 662.5273,-22.7109 662.7995,-15.7162"/>
</g>
<!-- 51 -->
<g id="node52" class="node">
<title>51</title>
<path fill="none" stroke="#56c1d8" stroke-width="2" d="M1193.5,-180C1193.5,-180 1103.5,-180 1103.5,-180 1097.5,-180 1091.5,-174 1091.5,-168 1091.5,-168 1091.5,-156 1091.5,-156 1091.5,-150 1097.5,-144 1103.5,-144 1103.5,-144 1193.5,-144 1193.5,-144 1199.5,-144 1205.5,-150 1205.5,-156 1205.5,-156 1205.5,-168 1205.5,-168 1205.5,-174 1199.5,-180 1193.5,-180"/>
<text text-anchor="middle" x="1148.5" y="-159.5" font-family="sans" font-size="10.00" fill="#000000">compression_spring</text>
</g>
<!-- 51&#45;&gt;50 -->
<g id="edge79" class="edge">
<title>51&#45;&gt;50</title>
<path fill="none" stroke="#c0c0c0" stroke-width="2" d="M1148.7523,-143.8314C1148.8593,-136.131 1148.9865,-126.9743 1149.1053,-118.4166"/>
<polygon fill="#c0c0c0" stroke="#c0c0c0" stroke-width="2" points="1152.6049,-118.4609 1149.2443,-108.4133 1145.6056,-118.3637 1152.6049,-118.4609"/>
</g>
<!-- 52 -->
<g id="node53" class="node">
<title>52</title>
<path fill="none" stroke="#56d8c1" stroke-width="2" d="M1488,-108C1488,-108 1397,-108 1397,-108 1391,-108 1385,-102 1385,-96 1385,-96 1385,-84 1385,-84 1385,-78 1391,-72 1397,-72 1397,-72 1488,-72 1488,-72 1494,-72 1500,-78 1500,-84 1500,-84 1500,-96 1500,-96 1500,-102 1494,-108 1488,-108"/>
<text text-anchor="middle" x="1442.5" y="-87.5" font-family="sans" font-size="10.00" fill="#000000">_copy_multiqc_html</text>
</g>
<!-- 52&#45;&gt;0 -->
<g id="edge12" class="edge">
<title>52&#45;&gt;0</title>
<path fill="none" stroke="#c0c0c0" stroke-width="2" d="M1384.6449,-84.0321C1349.1239,-80.4213 1302.6934,-75.7969 1261.5,-72 1034.1933,-51.0487 760.8974,-28.8508 662.8017,-20.9781"/>
<polygon fill="#c0c0c0" stroke="#c0c0c0" stroke-width="2" points="663.035,-17.4856 652.7872,-20.1753 662.4756,-24.4632 663.035,-17.4856"/>
</g>
<!-- 53&#45;&gt;52 -->
<g id="edge80" class="edge">
<title>53&#45;&gt;52</title>
<path fill="none" stroke="#c0c0c0" stroke-width="2" d="M1546.4244,-143.8314C1528.2339,-134.4089 1505.8342,-122.8062 1486.494,-112.7883"/>
<polygon fill="#c0c0c0" stroke="#c0c0c0" stroke-width="2" points="1488.0537,-109.6545 1477.5643,-108.1628 1484.834,-115.8701 1488.0537,-109.6545"/>
</g>
<!-- 54&#45;&gt;53 -->
<g id="edge92" class="edge">
<title>54&#45;&gt;53</title>
<path fill="none" stroke="#c0c0c0" stroke-width="2" d="M1907.8682,-863.8166C1924.6323,-837.3548 1952.5,-786.1283 1952.5,-738 1952.5,-738 1952.5,-738 1952.5,-306 1952.5,-236.8512 1725.6829,-187.8004 1626.7451,-169.6937"/>
<polygon fill="#c0c0c0" stroke="#c0c0c0" stroke-width="2" points="1627.1998,-166.2193 1616.7373,-167.888 1625.9569,-173.1081 1627.1998,-166.2193"/>
</g>
<!-- 55&#45;&gt;53 -->
<g id="edge84" class="edge">
<title>55&#45;&gt;53</title>
<path fill="none" stroke="#c0c0c0" stroke-width="2" d="M1368.0501,-719.907C1431.4921,-691.5588 1543.5,-635.6166 1543.5,-594 1543.5,-594 1543.5,-594 1543.5,-306 1543.5,-264.3681 1558.5328,-218.14 1569.6881,-189.567"/>
<polygon fill="#c0c0c0" stroke="#c0c0c0" stroke-width="2" points="1572.9578,-190.817 1573.4412,-180.2332 1566.4632,-188.2055 1572.9578,-190.817"/>
</g>
<!-- 56&#45;&gt;53 -->
<g id="edge90" class="edge">
<title>56&#45;&gt;53</title>
<path fill="none" stroke="#c0c0c0" stroke-width="2" d="M1509.7155,-719.9533C1527.076,-711.4635 1545.2309,-699.6824 1557.5,-684 1583.0086,-651.3949 1581.5,-635.3978 1581.5,-594 1581.5,-594 1581.5,-594 1581.5,-306 1581.5,-265.876 1581.5,-219.4631 1581.5,-190.4177"/>
<polygon fill="#c0c0c0" stroke="#c0c0c0" stroke-width="2" points="1585.0001,-190.1853 1581.5,-180.1854 1578.0001,-190.1854 1585.0001,-190.1853"/>
</g>
<!-- 57&#45;&gt;53 -->
<g id="edge81" class="edge">
<title>57&#45;&gt;53</title>
<path fill="none" stroke="#c0c0c0" stroke-width="2" d="M1619.6438,-719.8783C1651.6067,-695.3584 1701.5,-648.375 1701.5,-594 1701.5,-594 1701.5,-594 1701.5,-306 1701.5,-265.1184 1707.0431,-248.6947 1682.5,-216 1668.4852,-197.3304 1646.0819,-184.4274 1625.932,-175.9284"/>
<polygon fill="#c0c0c0" stroke="#c0c0c0" stroke-width="2" points="1627.1564,-172.6489 1616.5704,-172.2164 1624.5762,-179.156 1627.1564,-172.6489"/>
</g>
<!-- 58&#45;&gt;53 -->
<g id="edge89" class="edge">
<title>58&#45;&gt;53</title>
<path fill="none" stroke="#c0c0c0" stroke-width="2" d="M1724.4368,-719.9156C1730.002,-692.7281 1739.5,-639.6422 1739.5,-594 1739.5,-594 1739.5,-594 1739.5,-306 1739.5,-263.0818 1734.1915,-246.9902 1704.5,-216 1683.4695,-194.0496 1651.9669,-180.4525 1626.1087,-172.3929"/>
<polygon fill="#c0c0c0" stroke="#c0c0c0" stroke-width="2" points="1627.0894,-169.0331 1616.5082,-169.5692 1625.1142,-175.7487 1627.0894,-169.0331"/>
</g>
<!-- 59 -->
<g id="node60" class="node">
<title>59</title>
<path fill="none" stroke="#569ad8" stroke-width="2" d="M1661,-252C1661,-252 1622,-252 1622,-252 1616,-252 1610,-246 1610,-240 1610,-240 1610,-228 1610,-228 1610,-222 1616,-216 1622,-216 1622,-216 1661,-216 1661,-216 1667,-216 1673,-222 1673,-228 1673,-228 1673,-240 1673,-240 1673,-246 1667,-252 1661,-252"/>
<text text-anchor="middle" x="1641.5" y="-231.5" font-family="sans" font-size="10.00" fill="#000000">qc_fastqc</text>
</g>
<!-- 59&#45;&gt;53 -->
<g id="edge88" class="edge">
<title>59&#45;&gt;53</title>
<path fill="none" stroke="#c0c0c0" stroke-width="2" d="M1626.3595,-215.8314C1619.3783,-207.454 1610.9609,-197.3531 1603.3124,-188.1749"/>
<polygon fill="#c0c0c0" stroke="#c0c0c0" stroke-width="2" points="1605.9351,-185.8548 1596.8444,-180.4133 1600.5575,-190.3362 1605.9351,-185.8548"/>
</g>
<!-- 60&#45;&gt;53 -->
<g id="edge83" class="edge">
<title>60&#45;&gt;53</title>
<path fill="none" stroke="#c0c0c0" stroke-width="2" d="M1936.0353,-935.8219C1956.6578,-909.7696 1990.5,-859.4792 1990.5,-810 1990.5,-810 1990.5,-810 1990.5,-306 1990.5,-240.3951 1933.4223,-242.708 1873.5,-216 1791.5425,-179.4707 1686.0539,-167.6517 1626.915,-163.8281"/>
<polygon fill="#c0c0c0" stroke="#c0c0c0" stroke-width="2" points="1626.97,-160.3252 1616.779,-163.2222 1626.5523,-167.3128 1626.97,-160.3252"/>
</g>
<!-- 61&#45;&gt;53 -->
<g id="edge87" class="edge">
<title>61&#45;&gt;53</title>
<path fill="none" stroke="#c0c0c0" stroke-width="2" d="M1854.3808,-719.8786C1841.7585,-693.076 1820.5,-640.9635 1820.5,-594 1820.5,-594 1820.5,-594 1820.5,-306 1820.5,-216.4952 1696.0032,-181.178 1626.718,-168.4534"/>
<polygon fill="#c0c0c0" stroke="#c0c0c0" stroke-width="2" points="1626.9621,-164.9431 1616.5086,-166.6682 1625.7562,-171.8385 1626.9621,-164.9431"/>
</g>
<!-- 62&#45;&gt;53 -->
<g id="edge91" class="edge">
<title>62&#45;&gt;53</title>
<path fill="none" stroke="#c0c0c0" stroke-width="2" d="M1426.4677,-215.9243C1460.4385,-204.1084 1504.3532,-188.8337 1536.7669,-177.5593"/>
<polygon fill="#c0c0c0" stroke="#c0c0c0" stroke-width="2" points="1538.1382,-180.7881 1546.4333,-174.1971 1535.8385,-174.1766 1538.1382,-180.7881"/>
</g>
<!-- 63&#45;&gt;0 -->
<g id="edge8" class="edge">
<title>63&#45;&gt;0</title>
<path fill="none" stroke="#c0c0c0" stroke-width="2" d="M1267.4005,-143.7961C1254.4857,-122.4888 1229.9767,-88.0755 1198.5,-72 1150.8832,-47.6816 782.3333,-26.2793 662.7973,-19.9166"/>
<polygon fill="#c0c0c0" stroke="#c0c0c0" stroke-width="2" points="662.841,-16.4142 652.6703,-19.382 662.4718,-23.4044 662.841,-16.4142"/>
</g>
<!-- 64&#45;&gt;1 -->
<g id="edge16" class="edge">
<title>64&#45;&gt;1</title>
<path fill="none" stroke="#c0c0c0" stroke-width="2" d="M884.4859,-582.235C827.4354,-571.7864 752.1218,-555.7696 725.5,-540 698.9131,-524.2511 676.1517,-496.9134 661.5889,-476.4887"/>
<polygon fill="#c0c0c0" stroke="#c0c0c0" stroke-width="2" points="664.4306,-474.4444 655.8624,-468.2125 658.6742,-478.4274 664.4306,-474.4444"/>
</g>
<!-- 64&#45;&gt;36 -->
<g id="edge65" class="edge">
<title>64&#45;&gt;36</title>
<path fill="none" stroke="#c0c0c0" stroke-width="2" d="M900.8564,-575.9148C877.867,-566.9049 851.3392,-554.7586 829.5,-540 772.9953,-501.8151 780.1292,-465.0942 720.5,-432 659.7978,-398.3103 622.7745,-439.29 568.5,-396 501.4084,-342.487 470.6174,-239.8956 459.157,-190.2687"/>
<polygon fill="#c0c0c0" stroke="#c0c0c0" stroke-width="2" points="462.5161,-189.2489 456.9398,-180.2403 455.6812,-190.7601 462.5161,-189.2489"/>
</g>
<!-- 64&#45;&gt;41 -->
<g id="edge70" class="edge">
<title>64&#45;&gt;41</title>
<path fill="none" stroke="#c0c0c0" stroke-width="2" d="M932.0415,-575.8314C921.0795,-566.9632 907.7301,-556.1637 895.8735,-546.5718"/>
<polygon fill="#c0c0c0" stroke="#c0c0c0" stroke-width="2" points="897.9271,-543.7313 887.9513,-540.1628 893.5245,-549.1734 897.9271,-543.7313"/>
</g>
</g>
</svg>
